<svg width="25" height="24" viewBox="0 0 25 24" fill="none" xmlns="http://www.w3.org/2000/svg">
<path d="M7.25998 22H17.74C20.5 22 21.6 20.31 21.73 18.25L22.25 9.99C22.39 7.83 20.67 6 18.5 6C17.89 6 17.33 5.65 17.05 5.11L16.33 3.66C15.87 2.75 14.67 2 13.65 2H11.36C10.33 2 9.12998 2.75 8.66998 3.66L7.94998 5.11C7.66998 5.65 7.10998 6 6.49998 6C4.32998 6 2.60998 7.83 2.74998 9.99L3.26998 18.25C3.38998 20.31 4.49998 22 7.25998 22Z" stroke="#A0AEC0" stroke-width="1.5" stroke-linecap="round" stroke-linejoin="round"/>
<path d="M11 8H14" stroke="#A0AEC0" stroke-width="1.5" stroke-linecap="round" stroke-linejoin="round"/>
<path d="M12.5 18C14.29 18 15.75 16.54 15.75 14.75C15.75 12.96 14.29 11.5 12.5 11.5C10.71 11.5 9.25 12.96 9.25 14.75C9.25 16.54 10.71 18 12.5 18Z" stroke="#A0AEC0" stroke-width="1.5" stroke-linecap="round" stroke-linejoin="round"/>
</svg>
