<svg width="12" height="12" viewBox="0 0 12 12" fill="none" xmlns="http://www.w3.org/2000/svg">
<path d="M7.79002 6C7.79002 6.99 6.99002 7.79 6.00002 7.79C5.01002 7.79 4.21002 6.99 4.21002 6C4.21002 5.01 5.01002 4.21 6.00002 4.21C6.99002 4.21 7.79002 5.01 7.79002 6Z" stroke="#8894AA" stroke-linecap="round" stroke-linejoin="round"/>
<path d="M5.99998 10.135C7.76498 10.135 9.40998 9.095 10.555 7.295C11.005 6.59 11.005 5.405 10.555 4.7C9.40998 2.9 7.76498 1.86 5.99998 1.86C4.23498 1.86 2.58998 2.9 1.44498 4.7C0.994983 5.405 0.994983 6.59 1.44498 7.295C2.58998 9.095 4.23498 10.135 5.99998 10.135Z" stroke="#8894AA" stroke-linecap="round" stroke-linejoin="round"/>
</svg>
