<svg width="33" height="32" viewBox="0 0 33 32" fill="none" xmlns="http://www.w3.org/2000/svg">
<path d="M30.58 16.3333C30.58 15.2933 30.4867 14.2933 30.3133 13.3333H16.5V19.0067H24.3933C24.0533 20.84 23.02 22.3933 21.4667 23.4333V27.1133H26.2067C28.98 24.56 30.58 20.8 30.58 16.3333Z" fill="#4285F4"/>
<path d="M16.5 30.6667C20.46 30.6667 23.78 29.3533 26.2066 27.1133L21.4666 23.4333C20.1533 24.3133 18.4733 24.8333 16.5 24.8333C12.68 24.8333 9.44664 22.2533 8.29331 18.7867H3.39331V22.5867C5.80664 27.38 10.7666 30.6667 16.5 30.6667Z" fill="#34A853"/>
<path d="M8.29331 18.7867C7.99998 17.9067 7.83331 16.9667 7.83331 16C7.83331 15.0333 7.99998 14.0933 8.29331 13.2133V9.41333H3.39331C2.36665 11.4571 1.83241 13.7128 1.83331 16C1.83331 18.3667 2.39998 20.6067 3.39331 22.5867L8.29331 18.7867Z" fill="#FBBC05"/>
<path d="M16.5 7.16666C18.6533 7.16666 20.5866 7.90666 22.1066 9.35999L26.3133 5.15333C23.7733 2.78666 20.4533 1.33333 16.5 1.33333C10.7666 1.33333 5.80664 4.61999 3.39331 9.41333L8.29331 13.2133C9.44664 9.74666 12.68 7.16666 16.5 7.16666Z" fill="#EA4335"/>
</svg>
