<svg width="65" height="64" viewBox="0 0 65 64" fill="none" xmlns="http://www.w3.org/2000/svg">
    <rect x="0.5" width="64" height="64" rx="12" fill="#F5F8FF" />
    <path
        d="M29.9836 15.7166L21.6669 18.8499C19.7503 19.5666 18.1836 21.8333 18.1836 23.8666V36.2499C18.1836 38.2166 19.4836 40.7999 21.0669 41.9833L28.2336 47.3333C30.5836 49.0999 34.4503 49.0999 36.8003 47.3333L43.9669 41.9833C45.5503 40.7999 46.8503 38.2166 46.8503 36.2499V23.8666C46.8503 21.8166 45.2836 19.5499 43.3669 18.8333L35.0503 15.7166C33.6336 15.1999 31.3669 15.1999 29.9836 15.7166Z"
        stroke="#004DF0" stroke-width="3" stroke-linecap="round" stroke-linejoin="round" />
    <path d="M27.583 31.7831L30.2663 34.4665L37.433 27.2998" stroke="#004DF0" stroke-width="3"
        stroke-linecap="round" stroke-linejoin="round" />
</svg>
