<svg width="24" height="24" viewBox="0 0 24 24" fill="none" xmlns="http://www.w3.org/2000/svg">
<path fill-rule="evenodd" clip-rule="evenodd" d="M21.21 7.89973V16.0497C21.21 19.0697 19.32 21.1997 16.3 21.1997H7.65C4.63 21.1997 2.75 19.0697 2.75 16.0497V7.89973C2.75 4.87973 4.64 2.75073 7.65 2.75073H16.3C19.32 2.75073 21.21 4.87973 21.21 7.89973Z" stroke="#A0AEC0" stroke-width="1.5" stroke-linecap="round" stroke-linejoin="round"/>
<path d="M5.28131 16.4319L6.81031 14.8189C7.36131 14.2369 8.28631 14.2339 8.84231 14.8109L9.72731 15.7139C10.3243 16.3229 11.3173 16.2789 11.8583 15.6199L14.0873 12.9089C14.7273 12.1299 15.9013 12.0819 16.6023 12.8049L18.6783 14.9469" stroke="#A0AEC0" stroke-width="1.5" stroke-linecap="round" stroke-linejoin="round"/>
<path fill-rule="evenodd" clip-rule="evenodd" d="M10.3135 9.13413C10.3135 10.1021 9.52749 10.8881 8.55949 10.8881C7.59149 10.8881 6.80649 10.1021 6.80649 9.13413C6.80649 8.16613 7.59149 7.38013 8.55949 7.38013C9.52749 7.38013 10.3135 8.16613 10.3135 9.13413Z" stroke="#A0AEC0" stroke-width="1.5" stroke-linecap="round" stroke-linejoin="round"/>
</svg>
