<svg width="25" height="24" viewBox="0 0 25 24" fill="none" xmlns="http://www.w3.org/2000/svg">
    <path
        d="M16.69 2H8.31C4.67 2 2.5 4.17 2.5 7.81V16.18C2.5 19.83 4.67 22 8.31 22H16.68C20.32 22 22.49 19.83 22.49 16.19V7.81C22.5 4.17 20.33 2 16.69 2Z"
        fill="#004DF0" />
    <path
        d="M16.9198 7.8099V16.1899C16.9198 16.8299 16.3998 17.3499 15.7598 17.3499C15.1098 17.3499 14.5898 16.8299 14.5898 16.1899V7.8099C14.5898 7.1699 15.1098 6.6499 15.7598 6.6499C16.3998 6.6499 16.9198 7.1699 16.9198 7.8099Z"
        fill="white" />
    <path
        d="M10.4101 12.93V16.19C10.4101 16.83 9.89008 17.35 9.24008 17.35C8.60008 17.35 8.08008 16.83 8.08008 16.19V12.93C8.08008 12.29 8.60008 11.77 9.24008 11.77C9.89008 11.77 10.4101 12.29 10.4101 12.93Z"
        fill="white" />
</svg>
