<svg width="24" height="24" viewBox="0 0 24 24" fill="none" xmlns="http://www.w3.org/2000/svg">
    <path d="M21.5297 15.9299C21.3697 15.6599 20.9197 15.2399 19.7997 15.4399C19.1797 15.5499 18.5497 15.5999 17.9197 15.5699C15.5897 15.4699 13.4797 14.3999 12.0097 12.7499C10.7097 11.2999 9.90971 9.40987 9.89971 7.36987C9.89971 6.22987 10.1197 5.12987 10.5697 4.08987C11.0097 3.07987 10.6997 2.54987 10.4797 2.32987C10.2497 2.09987 9.70971 1.77987 8.64971 2.21987C4.55971 3.93987 2.02971 8.03987 2.32971 12.4299C2.62971 16.5599 5.52971 20.0899 9.36971 21.4199C10.2897 21.7399 11.2597 21.9299 12.2597 21.9699C12.4197 21.9799 12.5797 21.9899 12.7397 21.9899C16.0897 21.9899 19.2297 20.4099 21.2097 17.7199C21.8797 16.7899 21.6997 16.1999 21.5297 15.9299Z" fill="#23262F"/>
</svg>
