<svg width="24" height="24" viewBox="0 0 24 24" fill="none" xmlns="http://www.w3.org/2000/svg">
<path d="M17 21H7C3 21 2 20 2 16V8C2 4 3 3 7 3H17C21 3 22 4 22 8V16C22 20 21 21 17 21Z" stroke="white" stroke-width="1.5" stroke-linecap="round" stroke-linejoin="round"/>
<path d="M14 8H19" stroke="white" stroke-width="1.5" stroke-linecap="round" stroke-linejoin="round"/>
<path d="M15 12H19" stroke="white" stroke-width="1.5" stroke-linecap="round" stroke-linejoin="round"/>
<path d="M17 16H19" stroke="white" stroke-width="1.5" stroke-linecap="round" stroke-linejoin="round"/>
<path d="M8.5 11.2899C9.49964 11.2899 10.31 10.4796 10.31 9.47992C10.31 8.48029 9.49964 7.66992 8.5 7.66992C7.50037 7.66992 6.69 8.48029 6.69 9.47992C6.69 10.4796 7.50037 11.2899 8.5 11.2899Z" stroke="white" stroke-width="1.5" stroke-linecap="round" stroke-linejoin="round"/>
<path d="M12 16.33C11.86 14.88 10.71 13.74 9.26 13.61C8.76 13.56 8.25 13.56 7.74 13.61C6.29 13.75 5.14 14.88 5 16.33" stroke="white" stroke-width="1.5" stroke-linecap="round" stroke-linejoin="round"/>
</svg>
