<svg width="20" height="20" viewBox="0 0 20 20" fill="none" xmlns="http://www.w3.org/2000/svg">
    <path
        d="M18.3334 4.25835V13.725C18.3334 14.9334 17.4667 15.4417 16.4084 14.8584L14.8 13.9584C14.6667 13.8834 14.5834 13.7417 14.5834 13.5917V7.49169C14.5834 5.37502 12.8584 3.65002 10.7417 3.65002H7.35003C7.0417 3.65002 6.82503 3.32502 6.9667 3.05835C7.40003 2.23335 8.2667 1.66669 9.25836 1.66669H15.7417C17.1667 1.66669 18.3334 2.83335 18.3334 4.25835Z"
        fill="#004DF0" />
    <path
        d="M10.7415 4.90002H4.25817C2.83317 4.90002 1.6665 6.06669 1.6665 7.49169V16.9584C1.6665 18.1667 2.53317 18.675 3.5915 18.0917L6.8665 16.2667C7.2165 16.075 7.78317 16.075 8.13317 16.2667L11.4082 18.0917C12.4665 18.675 13.3332 18.1667 13.3332 16.9584V7.49169C13.3332 6.06669 12.1665 4.90002 10.7415 4.90002ZM9.1665 10.625H8.12484V11.6667C8.12484 12.0084 7.8415 12.2917 7.49984 12.2917C7.15817 12.2917 6.87484 12.0084 6.87484 11.6667V10.625H5.83317C5.4915 10.625 5.20817 10.3417 5.20817 10C5.20817 9.65836 5.4915 9.37502 5.83317 9.37502H6.87484V8.33336C6.87484 7.99169 7.15817 7.70836 7.49984 7.70836C7.8415 7.70836 8.12484 7.99169 8.12484 8.33336V9.37502H9.1665C9.50817 9.37502 9.7915 9.65836 9.7915 10C9.7915 10.3417 9.50817 10.625 9.1665 10.625Z"
        fill="#004DF0" />
</svg>
