<svg width="20" height="20" viewBox="0 0 20 20" fill="none" xmlns="http://www.w3.org/2000/svg">
<path d="M10.5579 7.59333L11.0247 7.56221V7.09444V4.13609C11.0247 3.87218 11.2923 3.7704 11.4514 3.878L11.5088 3.92706L17.7403 10.0533C17.7406 10.0535 17.7408 10.0538 17.741 10.054C17.7944 10.1074 17.8269 10.1782 17.8325 10.2535C17.8377 10.3241 17.8191 10.3942 17.7798 10.4527L17.729 10.5106L11.4965 16.6406C11.3444 16.7899 11.0706 16.7194 11.0294 16.4814L11.0247 16.4042V13.5084V12.9618L10.4803 13.0103L10.1219 13.0423L10.1219 13.0422L10.1124 13.0432C9.75047 13.0825 9.39153 13.1391 9.03427 13.2132C6.79922 13.6763 4.66794 14.8285 2.62924 16.6492C2.53108 16.7368 2.41908 16.7403 2.32075 16.6867C2.22078 16.6321 2.1518 16.5257 2.16956 16.38L2.16957 16.3799C2.50709 13.6079 3.37623 11.5158 4.71299 10.074C6.04248 8.64004 7.8781 7.80216 10.2486 7.61395L10.5579 7.59333ZM10.2802 8.00111L10.2802 8.00107L10.2736 8.00159C7.98663 8.18479 6.25061 8.98747 4.9984 10.3377C3.99554 11.4185 3.25524 12.904 2.82685 14.8289L2.53322 16.1483L3.61478 15.3376C5.65338 13.8097 7.79325 12.9043 10.0462 12.657H10.0527L10.075 12.6549L11.4136 12.5345V14.9834V16.1766L12.2642 15.3398L17.0503 10.6314L17.4128 10.2749L17.0502 9.91847L12.2641 5.21289L11.4136 4.37666V5.56943V7.92536L10.2802 8.00111Z" stroke="#8894AA"/>
</svg>
