<svg width="25" height="24" viewBox="0 0 25 24" fill="none" xmlns="http://www.w3.org/2000/svg">
<path d="M17.21 6.17001C19.21 7.56001 20.59 9.77001 20.87 12.32" stroke="#8894AA" stroke-width="1.5" stroke-linecap="round" stroke-linejoin="round"/>
<path d="M3.73999 12.37C3.99999 9.83 5.35999 7.62 7.33999 6.22" stroke="#8894AA" stroke-width="1.5" stroke-linecap="round" stroke-linejoin="round"/>
<path d="M8.43994 20.94C9.59994 21.53 10.9199 21.86 12.3099 21.86C13.6499 21.86 14.9099 21.56 16.0399 21.01" stroke="#8894AA" stroke-width="1.5" stroke-linecap="round" stroke-linejoin="round"/>
<path d="M12.31 7.70001C13.8454 7.70001 15.09 6.45537 15.09 4.92001C15.09 3.38466 13.8454 2.14001 12.31 2.14001C10.7747 2.14001 9.53003 3.38466 9.53003 4.92001C9.53003 6.45537 10.7747 7.70001 12.31 7.70001Z" stroke="#8894AA" stroke-width="1.5" stroke-linecap="round" stroke-linejoin="round"/>
<path d="M5.08005 19.92C6.6154 19.92 7.86005 18.6753 7.86005 17.14C7.86005 15.6046 6.6154 14.36 5.08005 14.36C3.5447 14.36 2.30005 15.6046 2.30005 17.14C2.30005 18.6753 3.5447 19.92 5.08005 19.92Z" stroke="#8894AA" stroke-width="1.5" stroke-linecap="round" stroke-linejoin="round"/>
<path d="M19.42 19.92C20.9554 19.92 22.2 18.6753 22.2 17.14C22.2 15.6046 20.9554 14.36 19.42 14.36C17.8847 14.36 16.64 15.6046 16.64 17.14C16.64 18.6753 17.8847 19.92 19.42 19.92Z" stroke="#8894AA" stroke-width="1.5" stroke-linecap="round" stroke-linejoin="round"/>
</svg>
