<svg width="75" height="93" viewBox="0 0 75 93" fill="none" xmlns="http://www.w3.org/2000/svg">
<path style="mix-blend-mode:multiply" opacity="0.3" d="M65.686 92.9741C65.6939 92.9853 65.7046 92.9942 65.717 92.9999C65.7103 92.9979 65.7042 92.9946 65.6989 92.9901C65.6936 92.9857 65.6892 92.9803 65.686 92.9741Z" fill="url(#paint0_linear_318_49499)"/>
<path opacity="0.5" d="M74.9872 4.2537C74.9872 4.19074 74.9872 4.12778 74.9872 4.06482C74.9414 4.04317 74.8899 4.0385 74.8412 4.05159C74.7925 4.06468 74.7496 4.09474 74.7196 4.13677C74.7057 4.15797 74.6962 4.18196 74.6917 4.2072C74.6872 4.23244 74.6878 4.25838 74.6935 4.28336C74.6992 4.30834 74.7098 4.3318 74.7247 4.35225C74.7396 4.3727 74.7584 4.38968 74.78 4.40211C74.8022 4.41295 74.8265 4.41817 74.8509 4.41737C74.8754 4.41656 74.8993 4.40974 74.9208 4.39747C74.9423 4.38519 74.9606 4.36781 74.9744 4.34673C74.9882 4.32566 74.997 4.30149 75.0001 4.27619L74.9872 4.2537Z" fill="#E5F6FF"/>
<path d="M63.6789 32.3391C63.6712 32.3547 63.6606 32.3685 63.6476 32.3797C63.6347 32.3909 63.6197 32.3993 63.6036 32.4043C63.5875 32.4093 63.5706 32.4109 63.5538 32.409C63.5371 32.4071 63.5209 32.4017 63.5063 32.3931C63.4469 32.3549 63.4025 32.2959 63.3811 32.2267C63.3603 32.1739 63.3501 32.1173 63.3509 32.0603C63.3578 32.0032 63.3835 31.9505 63.4237 31.9111C63.4639 31.8717 63.516 31.8481 63.571 31.8444C63.6257 31.8407 63.6802 31.8526 63.7289 31.8788C63.7775 31.9049 63.8185 31.9443 63.8473 31.9928C63.8633 32.015 63.8747 32.0406 63.8807 32.0677C63.8866 32.0948 63.887 32.1229 63.8818 32.1502C63.8757 32.1771 63.8607 32.201 63.8394 32.2174C63.818 32.2339 63.7918 32.242 63.7653 32.2402L63.6789 32.3391Z" fill="#E5F6FF"/>
<path d="M73.3328 14.3721H73.5222C73.5435 14.271 73.5281 14.1653 73.4791 14.0753C73.4189 13.9943 73.2682 13.9898 73.2424 14.0753C73.234 14.1122 73.234 14.1508 73.2424 14.1877L73.3457 14.5385L73.3328 14.3721Z" fill="#E5F6FF"/>
<path d="M66.5643 1.55077C66.4435 1.55077 66.4089 1.73965 66.4694 1.84758C66.5298 1.95552 66.6334 2.02297 66.7025 2.12641C66.7375 2.17885 66.7613 2.23847 66.7725 2.30128C66.7837 2.36409 66.7819 2.42866 66.7672 2.49068C66.7615 2.52728 66.7465 2.56162 66.7237 2.5901C66.7009 2.61858 66.6712 2.64016 66.6377 2.65258C66.5914 2.66807 66.5416 2.66807 66.4953 2.65258C66.2671 2.59119 66.0604 2.46327 65.8996 2.28381C65.8169 2.19199 65.7629 2.07633 65.7444 1.95196C65.7259 1.82759 65.7439 1.7003 65.796 1.58674C65.8366 1.51247 65.8948 1.4503 65.9651 1.4062C66.0354 1.36211 66.1154 1.33755 66.1974 1.3349C66.2789 1.33532 66.3588 1.35796 66.4292 1.40057C66.4996 1.44317 66.5581 1.50426 66.5989 1.57775L66.5643 1.55077Z" fill="#E5F6FF"/>
<path d="M69.2195 9.10162C69.3738 9.06835 69.5204 9.0042 69.6512 8.91274C69.7188 8.86406 69.7698 8.7943 69.797 8.71349C69.8241 8.63268 69.826 8.54499 69.8023 8.46301C69.7777 8.38564 69.7271 8.32014 69.6598 8.27863C69.6107 8.24609 69.5558 8.22424 69.4983 8.2144C69.4409 8.20455 69.3821 8.20692 69.3255 8.22135C69.269 8.23578 69.2158 8.26197 69.1693 8.29836C69.1227 8.33475 69.0837 8.38058 69.0545 8.4331C69.0254 8.48561 69.0068 8.54372 68.9997 8.60393C68.9927 8.66414 68.9975 8.72521 69.0137 8.78346C69.0299 8.84171 69.0573 8.89594 69.0941 8.94289C69.131 8.98984 69.1766 9.02853 69.2282 9.05665L69.2195 9.10162Z" fill="#E5F6FF"/>
<path opacity="0.5" d="M71.0511 8.29683C71.1326 8.25975 71.2071 8.20799 71.2713 8.14393C71.3022 8.10958 71.3225 8.06631 71.3294 8.01976C71.3364 7.97322 71.3296 7.92559 71.3101 7.88309C71.2368 7.75267 71.0425 7.77516 70.9216 7.68971C70.8008 7.60426 70.749 7.41538 70.6022 7.3794C70.4554 7.34342 70.3303 7.50533 70.3346 7.65823C70.3554 7.80992 70.4255 7.9496 70.5331 8.05398C70.6116 8.16305 70.7178 8.24715 70.8396 8.29683C70.9011 8.31907 70.9681 8.3187 71.0293 8.29579C71.0906 8.27288 71.1425 8.22881 71.1763 8.17091L71.0511 8.29683Z" fill="#E5F6FF"/>
<path d="M71.2533 14.9387L71.3569 14.7858C71.3326 14.7401 71.2943 14.7043 71.2481 14.6839C71.202 14.6635 71.1506 14.6598 71.1022 14.6734C71.0791 14.6824 71.058 14.696 71.04 14.7136C71.022 14.7312 71.0076 14.7523 70.9976 14.7757C70.9875 14.7992 70.9821 14.8245 70.9815 14.8501C70.9809 14.8758 70.9853 14.9013 70.9943 14.9252C71.0058 14.948 71.0223 14.9676 71.0426 14.9824C71.0628 14.9972 71.0861 15.0067 71.1106 15.0103C71.1351 15.0138 71.16 15.0112 71.1833 15.0026C71.2066 14.9941 71.2277 14.9799 71.2446 14.9612L71.2533 14.9387Z" fill="#E5F6FF"/>
<path d="M64.6607 10.5808C64.9749 10.5719 65.2817 10.4797 65.5521 10.3129C65.8225 10.146 66.0476 9.91011 66.2061 9.62737C66.0561 9.34163 65.8426 9.09742 65.5835 8.91513C65.3245 8.73284 65.0273 8.61777 64.7168 8.57953C64.4113 8.55802 64.1096 8.66082 63.8753 8.86632C63.641 9.07182 63.4924 9.36399 63.4607 9.68134C63.4866 10.3334 64.3672 10.7922 64.8032 10.3289L64.6607 10.5808Z" fill="#E5F6FF"/>
<path d="M70.118 8.30154C70.2949 8.26107 70.2604 7.94626 70.0921 7.85182C70.003 7.82916 69.9104 7.82545 69.82 7.8409C69.7295 7.85636 69.6429 7.89066 69.5654 7.94176C69.6065 8.0657 69.6815 8.17437 69.7813 8.25431C69.881 8.33424 70.0011 8.38194 70.1266 8.39148L70.118 8.30154Z" fill="#E5F6FF"/>
<path opacity="0.5" d="M73.6052 6.53369C73.5624 6.53371 73.5213 6.51632 73.4907 6.48524C73.4601 6.45415 73.4423 6.41183 73.4412 6.36729C73.4426 6.322 73.453 6.2775 73.4715 6.23651C73.4901 6.19553 73.5165 6.15892 73.5491 6.12894C73.5851 6.09113 73.6296 6.0633 73.6786 6.04799C73.707 6.04217 73.7362 6.04236 73.7645 6.04854C73.7928 6.05472 73.8197 6.06677 73.8434 6.08397C73.8672 6.10117 73.8874 6.12317 73.9028 6.14867C73.9182 6.17416 73.9286 6.20263 73.9333 6.23238C73.9384 6.29336 73.9212 6.35411 73.8852 6.40248C73.8492 6.45084 73.797 6.48325 73.739 6.49322C73.681 6.49779 73.6233 6.48154 73.5754 6.44718C73.5275 6.41282 73.4923 6.36241 73.4757 6.30433L73.6052 6.53369Z" fill="#E5F6FF"/>
<path opacity="0.5" d="M71.0858 6.16538C71.0223 6.1692 70.9591 6.15342 70.9041 6.12001C70.8491 6.0866 70.8048 6.03705 70.7767 5.97753C70.7486 5.91802 70.7379 5.8512 70.7461 5.78542C70.7542 5.71965 70.7808 5.65784 70.8225 5.60772C70.8786 5.53577 70.9909 5.49979 71.047 5.56725C71.0667 5.59979 71.0785 5.63682 71.0815 5.67518L71.1463 6.16987H71.0858V6.16538Z" fill="#E5F6FF"/>
<path opacity="0.5" d="M69.8834 3.885C69.905 3.7186 69.7539 3.59268 69.6114 3.51622C69.469 3.43977 69.3136 3.34083 69.3006 3.17444C69.2977 3.15245 69.2997 3.13004 69.3064 3.10898C69.3131 3.08791 69.3245 3.06876 69.3395 3.05301C69.4258 2.98106 69.5424 3.08899 69.6417 3.13846C69.7255 3.16761 69.8125 3.18574 69.9007 3.19243C70.008 3.21262 70.1069 3.26651 70.1841 3.34689C70.2612 3.42727 70.3129 3.53028 70.3323 3.64215C70.3131 3.69786 70.2788 3.74657 70.2335 3.78235C70.1883 3.81814 70.134 3.83947 70.0773 3.84376C70.0207 3.84804 69.964 3.8351 69.9143 3.8065C69.8645 3.77789 69.8238 3.73486 69.7971 3.68262L69.8834 3.885Z" fill="#E5F6FF"/>
<path opacity="0.5" d="M71.2853 3.12041L71.432 3.01248C71.4251 2.9607 71.401 2.91306 71.364 2.87777C71.3269 2.84248 71.2793 2.82173 71.2291 2.8191C71.2044 2.8184 71.1798 2.82311 71.1569 2.83293C71.1341 2.84275 71.1134 2.85746 71.0963 2.8761C71.0792 2.89475 71.0661 2.91692 71.0577 2.94118C71.0494 2.96545 71.046 2.99127 71.0478 3.01698C71.0522 3.04202 71.062 3.0657 71.0764 3.08619C71.0909 3.10668 71.1097 3.12344 71.1314 3.13516C71.1531 3.14689 71.1771 3.15328 71.2015 3.15384C71.2259 3.1544 71.2501 3.14912 71.2723 3.1384L71.2853 3.12041Z" fill="#E5F6FF"/>
<path d="M66.3324 12.929L66.5439 12.6771C66.4958 12.609 66.4358 12.551 66.3669 12.5062C66.2987 12.546 66.2482 12.6122 66.2264 12.6905C66.2046 12.7687 66.2132 12.8528 66.2504 12.9245L66.3324 12.929Z" fill="#E5F6FF"/>
<path d="M63.8115 28.9433C63.7683 28.9422 63.7272 28.9238 63.6967 28.892C63.6662 28.8602 63.6486 28.8174 63.6475 28.7724C63.649 28.7278 63.6594 28.684 63.678 28.6438C63.6965 28.6035 63.7229 28.5677 63.7554 28.5386C63.7921 28.5017 63.8364 28.474 63.8849 28.4576C63.913 28.4518 63.9419 28.4518 63.97 28.4577C63.998 28.4636 64.0247 28.4752 64.0484 28.492C64.0721 28.5087 64.0924 28.5302 64.108 28.5552C64.1237 28.5802 64.1344 28.6082 64.1396 28.6375C64.1447 28.6985 64.1275 28.7592 64.0915 28.8076C64.0555 28.856 64.0033 28.8884 63.9453 28.8984C63.8872 28.9038 63.829 28.8879 63.781 28.8534C63.7329 28.8189 63.6979 28.768 63.682 28.7095L63.8115 28.9433Z" fill="#E5F6FF"/>
<path d="M40.7039 63.4642C39.8835 62.7872 38.9252 62.3149 37.9024 62.0836C37.7409 62.0366 37.5714 62.0274 37.406 62.0566C37.2497 62.106 37.1079 62.1958 36.994 62.3177C36.88 62.4396 36.7975 62.5896 36.7542 62.7536C36.633 63.1533 36.6304 63.5817 36.7467 63.9828C36.863 64.384 37.0928 64.7393 37.406 65.0022C37.7214 65.2562 38.0912 65.4265 38.4837 65.4986C38.8762 65.5707 39.2796 65.5423 39.6593 65.416C40.088 65.305 40.4572 65.0222 40.6867 64.629C40.7935 64.4298 40.83 64.1979 40.7898 63.9736C40.7496 63.7493 40.6352 63.5468 40.4665 63.4012C40.4349 63.413 40.4066 63.4328 40.3843 63.459C40.3621 63.4852 40.3466 63.5169 40.3392 63.551C40.3319 63.5852 40.333 63.6207 40.3424 63.6543C40.3519 63.6879 40.3693 63.7184 40.3931 63.743L40.7039 63.4642Z" fill="white"/>
<path d="M37.5369 64.0131C37.4834 63.7971 37.3781 63.5987 37.2308 63.4367C37.0836 63.2746 36.8993 63.1542 36.6952 63.0867C36.5375 63.2353 36.4161 63.4209 36.3411 63.6282C36.266 63.8354 36.2394 64.0583 36.2635 64.2784C36.2974 64.4972 36.4133 64.693 36.5857 64.8229C36.7581 64.9527 36.9729 65.006 37.183 64.971C37.2803 64.9386 37.3677 64.8799 37.4362 64.8009C37.5047 64.7218 37.5518 64.6253 37.5729 64.5211C37.5939 64.4169 37.5881 64.3088 37.556 64.2077C37.5239 64.1066 37.4667 64.0162 37.3902 63.9456L37.5369 64.0131Z" fill="white"/>
<path d="M34.1229 62.2277C34.1578 62.1309 34.171 62.027 34.1612 61.924C34.1515 61.8211 34.1192 61.7219 34.0668 61.634C33.985 61.6701 33.9114 61.7237 33.8509 61.7914C33.8209 61.8254 33.8012 61.8679 33.7943 61.9135C33.7873 61.9591 33.7935 62.0058 33.8121 62.0478C33.8682 62.1602 34.015 62.1692 34.1358 62.1647L34.0668 62.2412L34.1229 62.2277Z" fill="white"/>
<path d="M34.8776 62.4437C34.9348 62.4631 34.9847 62.5009 35.02 62.5516C34.9483 62.5764 34.872 62.5836 34.7971 62.5726C34.7223 62.5617 34.6508 62.533 34.5884 62.4887C34.515 62.4482 34.4243 62.3807 34.4373 62.2953C34.4502 62.2098 34.4934 62.1873 34.5193 62.1289C34.5452 62.0704 34.5452 61.8411 34.6574 61.8006C34.6911 61.7934 34.7262 61.7984 34.7568 61.8147C34.7874 61.8311 34.8117 61.8578 34.8258 61.8905C34.8513 61.9561 34.8617 62.0269 34.856 62.0974V62.5471L34.8776 62.4437Z" fill="white"/>
<path opacity="0.5" d="M25.4715 58.8003C25.4197 58.6834 25.2254 58.7553 25.2039 58.8857C25.2018 58.9506 25.2126 59.0153 25.2357 59.0757C25.2587 59.136 25.2934 59.1908 25.3377 59.2365C25.411 59.1912 25.4697 59.1244 25.5066 59.0443C25.5435 58.9643 25.5568 58.8747 25.5449 58.7868L25.4715 58.8003Z" fill="white"/>
<path d="M23.4516 62.924C23.4581 62.9538 23.4532 62.985 23.4379 63.0111C23.4225 63.0371 23.398 63.0559 23.3696 63.0634C23.3404 63.0703 23.3101 63.0702 23.2809 63.0632C23.2518 63.0562 23.2245 63.0424 23.2012 63.0229C23.1712 63.0075 23.1469 62.9822 23.1322 62.9509C23.1236 62.9321 23.1189 62.9117 23.1182 62.8909C23.1176 62.8702 23.121 62.8495 23.1283 62.8301C23.1355 62.8107 23.1465 62.7931 23.1605 62.7783C23.1746 62.7635 23.1914 62.7519 23.2099 62.7441C23.2477 62.7319 23.2885 62.7349 23.3244 62.7523C23.3603 62.7698 23.3887 62.8005 23.4041 62.8385C23.4168 62.8781 23.4156 62.9212 23.4006 62.96C23.3855 62.9987 23.3577 63.0306 23.3221 63.0499L23.4516 62.924Z" fill="white"/>
<path d="M32.4734 63.1313C32.5035 63.13 32.5328 63.1206 32.5585 63.104C32.5841 63.0875 32.6053 63.0644 32.62 63.0369C32.6346 63.0094 32.6423 62.9784 32.6423 62.9469C32.6423 62.9154 32.6345 62.8845 32.6198 62.857C32.5542 62.854 32.4894 62.8729 32.4347 62.911C32.408 62.9306 32.3881 62.9587 32.378 62.9911C32.3679 63.0236 32.3682 63.0586 32.3788 63.0908C32.3861 63.1053 32.3967 63.1178 32.4096 63.1271C32.4225 63.1365 32.4373 63.1425 32.4529 63.1447C32.4684 63.1469 32.4842 63.1452 32.4991 63.1398C32.5139 63.1343 32.5272 63.1252 32.538 63.1133L32.4734 63.1313Z" fill="white"/>
<path d="M35.2678 62.9331C35.3166 62.8713 35.351 62.7985 35.3682 62.7204C35.3855 62.6424 35.385 62.5613 35.367 62.4834L35.0174 62.6048C34.9609 62.6169 34.9086 62.6449 34.8663 62.6858C34.85 62.7095 34.8387 62.7365 34.8331 62.765C34.8275 62.7936 34.8278 62.8231 34.8339 62.8515C34.84 62.88 34.8518 62.9068 34.8686 62.9301C34.8853 62.9535 34.9066 62.9729 34.9311 62.9871C34.9825 63.011 35.0397 63.0182 35.0951 63.0077C35.1505 62.9973 35.2017 62.9697 35.2419 62.9286L35.2678 62.9331Z" fill="white"/>
<path opacity="0.5" d="M25.1172 62.5418L24.9967 62.5733C24.9905 62.6083 24.9957 62.6445 25.0112 62.6762C25.0268 62.7079 25.0519 62.7334 25.0827 62.7487C25.1147 62.7603 25.1498 62.7583 25.1804 62.7431C25.211 62.728 25.2346 62.7009 25.2463 62.6677C25.2498 62.6504 25.2493 62.6325 25.2449 62.6154C25.2405 62.5983 25.2323 62.5826 25.221 62.5694C25.2096 62.5563 25.1955 62.5461 25.1797 62.5398C25.1639 62.5334 25.1469 62.531 25.1301 62.5328L25.1172 62.5418Z" fill="white"/>
<path d="M33.3488 62.8971C33.3229 62.9736 33.4178 63.0455 33.4999 63.0411C33.5787 63.0197 33.6565 62.9942 33.733 62.9646C33.7736 62.9561 33.8154 62.9569 33.8557 62.967C33.8959 62.9771 33.9336 62.9963 33.966 63.0231C33.9863 63.0373 34.0025 63.0569 34.0132 63.0798C34.0238 63.1027 34.0284 63.1281 34.0265 63.1535C34.0193 63.1863 34.0028 63.2161 33.979 63.2389C33.8774 63.3693 33.7428 63.4674 33.5905 63.5223C33.5155 63.5494 33.4345 63.5528 33.3577 63.532C33.2808 63.5112 33.2116 63.4671 33.1588 63.4053C33.1243 63.3586 33.1024 63.303 33.0956 63.2445C33.0887 63.1859 33.0972 63.1265 33.12 63.0725C33.1428 63.0201 33.1782 62.9747 33.2228 62.9408C33.2675 62.9069 33.3198 62.8857 33.3747 62.8792L33.3488 62.8971Z" fill="white"/>
<path d="M34.5677 61.0395C34.5944 60.9944 34.6035 60.9403 34.593 60.8884C34.5826 60.8365 34.5534 60.7908 34.5116 60.7607C34.4679 60.7333 34.4179 60.7189 34.367 60.7189C34.316 60.7189 34.266 60.7333 34.2224 60.7607C34.1835 60.7607 34.1447 60.8236 34.1619 60.8686C34.1792 60.9136 34.2008 60.9136 34.231 60.9271L34.5763 61.071L34.5677 61.0395Z" fill="white"/>
<path d="M29.9745 59.7988C29.9653 59.8507 29.9449 59.8997 29.9148 59.9422C29.8846 59.9846 29.8456 60.0193 29.8006 60.0436C29.7556 60.0679 29.7059 60.0812 29.6552 60.0824C29.6046 60.0836 29.5543 60.0727 29.5083 60.0506C29.5341 59.8838 29.6044 59.728 29.7112 59.6009C29.7379 59.5685 29.7711 59.5426 29.8083 59.5248C29.8456 59.507 29.886 59.4978 29.927 59.4978C29.968 59.4978 30.0085 59.507 30.0457 59.5248C30.083 59.5426 30.1161 59.5685 30.1428 59.6009L30.0997 59.8842L29.9745 59.7988Z" fill="white"/>
<path d="M44.7555 66.1303C44.7987 66.1303 44.8246 66.1932 44.8159 66.2427C44.7998 66.2879 44.7694 66.3259 44.7296 66.3506C44.6992 66.3752 44.6637 66.3921 44.626 66.4001C44.5883 66.403 44.5508 66.3926 44.5195 66.3705C44.4882 66.3485 44.4649 66.3162 44.4533 66.2787C44.4434 66.2407 44.4433 66.2007 44.4532 66.1628C44.463 66.1248 44.4825 66.0903 44.5095 66.0628C44.5214 66.0488 44.536 66.0377 44.5524 66.0299C44.5687 66.0222 44.5865 66.0181 44.6044 66.0178C44.6225 66.0177 44.6399 66.0245 44.6535 66.0369C44.667 66.0494 44.6757 66.0666 44.6778 66.0853L44.7555 66.1303Z" fill="white"/>
<path d="M31.826 62.16L31.7958 62.0295C31.7618 62.028 31.7279 62.0336 31.696 62.046C31.6641 62.0583 31.6349 62.0772 31.6102 62.1015C31.567 62.1555 31.5886 62.2589 31.6576 62.2634C31.6825 62.2605 31.7062 62.2512 31.7267 62.2364L31.9339 62.115L31.826 62.16Z" fill="white"/>
<path d="M29.5772 61.7371C29.5319 61.636 29.469 61.5445 29.3916 61.4673C29.3513 61.4308 29.3015 61.4075 29.2485 61.4003C29.1956 61.3931 29.1417 61.4023 29.0938 61.4268C29.0495 61.4585 29.0162 61.5043 28.9988 61.5572C28.9755 61.6366 28.9827 61.7222 29.019 61.7961C29.0552 61.87 29.1176 61.9262 29.193 61.953C29.231 61.9639 29.2707 61.9668 29.3098 61.9615C29.3488 61.9563 29.3865 61.9431 29.4206 61.9226C29.4548 61.9021 29.4846 61.8748 29.5086 61.8421C29.5325 61.8095 29.5499 61.7723 29.56 61.7326L29.5772 61.7371Z" fill="white"/>
<path d="M28.9963 60.7246L28.8069 60.6167C28.7668 60.6572 28.7385 60.7086 28.7251 60.7651C28.7622 60.8038 28.8125 60.8256 28.865 60.8256C28.9174 60.8256 28.9677 60.8038 29.0049 60.7651L28.9963 60.7246Z" fill="white"/>
<path d="M35.0626 57.352C34.6553 57.2508 34.231 57.2508 33.8237 57.352C33.7575 57.3615 33.6942 57.3861 33.6381 57.4239C33.5897 57.4699 33.5529 57.5276 33.531 57.5919C33.5092 57.6563 33.503 57.7252 33.5129 57.7927C33.5345 57.9574 33.6027 58.1117 33.7088 58.2358C33.8149 58.36 33.9541 58.4484 34.1086 58.4898C34.2646 58.527 34.427 58.5243 34.5818 58.482C34.7367 58.4397 34.8794 58.3591 34.9978 58.2469C35.1309 58.135 35.2175 57.9739 35.2396 57.7972C35.2458 57.7063 35.2217 57.6159 35.1714 57.5413C35.121 57.4667 35.0475 57.4126 34.9633 57.3879C34.9538 57.3981 34.947 57.4106 34.9433 57.4243C34.9396 57.4379 34.9393 57.4523 34.9423 57.4661C34.9453 57.48 34.9515 57.4928 34.9605 57.5035C34.9694 57.5142 34.9808 57.5224 34.9935 57.5274L35.0626 57.352Z" fill="white"/>
<path d="M35.2735 66.3466C35.247 66.2459 35.1985 66.1529 35.1319 66.0749C35.0652 65.9969 34.9822 65.936 34.8893 65.8969C34.8453 65.9787 34.8174 66.0689 34.8073 66.1622C34.8028 66.2081 34.8115 66.2544 34.8322 66.2953C34.853 66.3361 34.8849 66.3696 34.9239 66.3915C35.0318 66.4455 35.157 66.3601 35.2519 66.2836V66.387L35.2735 66.3466Z" fill="white"/>
<path d="M33.8469 66.3781C33.8147 66.3299 33.7674 66.2949 33.713 66.2791C33.6589 66.2732 33.6043 66.2858 33.5576 66.3151C33.4188 66.3804 33.2743 66.4317 33.126 66.468L33.7864 66.8008C33.8048 66.8086 33.8212 66.8209 33.8339 66.8368C33.8771 66.8908 33.8339 66.9717 33.8339 67.0392C33.8339 67.1066 33.9677 67.1876 34.067 67.1921C34.7965 67.246 34.0497 66.6119 33.8469 66.3781Z" fill="white"/>
<path d="M36.6001 66.189C36.6023 66.1111 36.588 66.0336 36.5581 65.9621C36.5283 65.8906 36.4837 65.8268 36.4275 65.7753L36.216 66.0856C36.1779 66.1317 36.1526 66.1876 36.1426 66.2475C36.1429 66.2761 36.1491 66.3043 36.1607 66.3303C36.1723 66.3562 36.1891 66.3793 36.2099 66.398C36.2307 66.4167 36.2551 66.4306 36.2814 66.4388C36.3078 66.4469 36.3355 66.4492 36.3627 66.4454C36.4185 66.434 36.4696 66.4051 36.5089 66.3624C36.5483 66.3198 36.5742 66.2655 36.5829 66.207L36.6001 66.189Z" fill="white"/>
<path d="M43.6195 68.3749L43.499 68.4064C43.4925 68.441 43.497 68.4768 43.5117 68.5084C43.5265 68.5401 43.5507 68.5658 43.5808 68.5818C43.5965 68.5882 43.6134 68.5911 43.6303 68.5905C43.6473 68.5898 43.6639 68.5856 43.6792 68.578C43.6945 68.5704 43.7081 68.5597 43.7193 68.5464C43.7305 68.5332 43.739 68.5176 43.7443 68.5008C43.7476 68.4839 43.7472 68.4664 43.743 68.4497C43.7389 68.433 43.7311 68.4176 43.7202 68.4045C43.7094 68.3915 43.6959 68.3812 43.6806 68.3745C43.6654 68.3678 43.6489 68.3649 43.6324 68.3659L43.6195 68.3749Z" fill="white"/>
<path d="M34.9529 65.1058C34.9474 65.0533 34.9229 65.005 34.8844 64.9707C34.8459 64.9364 34.7963 64.9188 34.7457 64.9214C34.6955 64.9272 34.6478 64.9469 34.6076 64.9786C34.5673 65.0103 34.536 65.0526 34.5169 65.1013C34.5169 65.1463 34.491 65.2047 34.5169 65.2272C34.5312 65.2338 34.5466 65.2372 34.5622 65.2372C34.5778 65.2372 34.5932 65.2338 34.6075 65.2272L34.9658 65.1283L34.9529 65.1058Z" fill="white"/>
<path d="M36.0508 63.6933C36.0056 63.5921 35.9426 63.5006 35.8652 63.4235C35.8249 63.387 35.7751 63.3637 35.7222 63.3565C35.6692 63.3493 35.6154 63.3585 35.5674 63.383C35.5231 63.4147 35.4898 63.4605 35.4724 63.5134C35.4491 63.5927 35.4563 63.6784 35.4926 63.7523C35.5289 63.8262 35.5913 63.8824 35.6667 63.9092C35.7046 63.92 35.7443 63.9229 35.7834 63.9177C35.8225 63.9125 35.8601 63.8993 35.8943 63.8788C35.9284 63.8583 35.9583 63.8309 35.9822 63.7983C36.0061 63.7657 36.0236 63.7285 36.0336 63.6888L36.0508 63.6933Z" fill="white"/>
<path d="M32.0334 59.9968C31.9255 59.9968 31.8651 60.1318 31.8392 60.2397C31.8133 60.3476 31.7701 60.4735 31.6665 60.505C31.6538 60.5117 31.6397 60.5152 31.6255 60.5152C31.6112 60.5152 31.5972 60.5117 31.5845 60.505C31.524 60.4555 31.5845 60.3611 31.5845 60.2847C31.5908 60.2219 31.5908 60.1586 31.5845 60.0958C31.5842 60.0207 31.6054 59.9472 31.6454 59.8847C31.6854 59.8222 31.7423 59.7736 31.8089 59.745C31.8474 59.7493 31.8838 59.7652 31.9137 59.7908C31.9437 59.8163 31.9657 59.8504 31.9773 59.8889C31.9881 59.9278 31.9882 59.9692 31.9775 60.0081C31.9668 60.0471 31.9458 60.0822 31.9169 60.1093L32.0334 59.9968Z" fill="white"/>
<path d="M29.5227 60.9495C29.4147 60.9495 29.3586 61.0844 29.3284 61.1923C29.2982 61.3003 29.2637 61.4262 29.1601 61.4622C29.1465 61.4686 29.1318 61.472 29.1169 61.472C29.102 61.472 29.0873 61.4686 29.0737 61.4622C29.0133 61.4172 29.0737 61.3183 29.0737 61.2418C29.0801 61.179 29.0801 61.1157 29.0737 61.0529C29.0732 60.9772 29.0948 60.9031 29.1357 60.8404C29.1765 60.7777 29.2347 60.7295 29.3025 60.7021C29.341 60.7084 29.377 60.7255 29.4067 60.7517C29.4364 60.7779 29.4586 60.8121 29.4709 60.8506C29.4813 60.8892 29.4808 60.9302 29.4693 60.9685C29.4578 61.0069 29.4359 61.0409 29.4061 61.0664L29.5227 60.9495Z" fill="white"/>
<path d="M27.7859 59.9155C27.7165 59.8599 27.6349 59.8228 27.5485 59.8076H27.5053C27.4927 59.8133 27.4814 59.8219 27.4725 59.8329C27.4635 59.8438 27.457 59.8567 27.4535 59.8706C27.4444 59.9041 27.4453 59.9397 27.4561 59.9726C27.4669 60.0056 27.4871 60.0343 27.514 60.055C27.5405 60.0765 27.5718 60.0907 27.605 60.0963C27.6383 60.1018 27.6723 60.0984 27.7039 60.0864C27.7404 60.0747 27.7712 60.049 27.7902 60.0145C27.7976 59.9971 27.7995 59.9777 27.7956 59.9591C27.7917 59.9405 27.7823 59.9237 27.7687 59.9111V59.9425L27.7859 59.9155Z" fill="white"/>
<path d="M39.4529 65.0831C39.4273 64.982 39.3792 64.8886 39.3124 64.8104C39.2457 64.7323 39.1622 64.6717 39.0688 64.6334C39.0242 64.7134 38.9963 64.8023 38.9867 64.8943C38.9823 64.9402 38.9909 64.9865 39.0117 65.0273C39.0324 65.0681 39.0643 65.1016 39.1033 65.1236C39.2112 65.1776 39.3364 65.0966 39.4314 65.0157V65.1191L39.4529 65.0831Z" fill="white"/>
<path d="M38.6421 66.8363C38.6652 66.8164 38.6832 66.7908 38.6942 66.7616C38.7052 66.7325 38.709 66.701 38.7051 66.6699C38.7012 66.6389 38.6898 66.6094 38.672 66.5842C38.6542 66.559 38.6306 66.539 38.6033 66.526C38.5475 66.563 38.5051 66.6184 38.4828 66.6834C38.4737 66.7155 38.4746 66.7499 38.4854 66.7814C38.4963 66.813 38.5165 66.8401 38.5431 66.8588C38.557 66.8661 38.5724 66.8698 38.5879 66.8697C38.6035 66.8696 38.6188 66.8657 38.6326 66.8582C38.6465 66.8508 38.6584 66.84 38.6675 66.8268C38.6767 66.8136 38.6827 66.7984 38.6851 66.7823L38.6421 66.8363Z" fill="white"/>
<path d="M36.3951 64.3181C36.4181 64.2979 36.4358 64.2719 36.4465 64.2426C36.4572 64.2132 36.4606 64.1815 36.4563 64.1504C36.4519 64.1194 36.4401 64.0899 36.4219 64.065C36.4036 64.04 36.3796 64.0203 36.352 64.0078C36.2974 64.045 36.2564 64.1005 36.2358 64.1652C36.2255 64.1968 36.2254 64.2311 36.2355 64.2627C36.2456 64.2944 36.2654 64.3218 36.2918 64.3406C36.3058 64.3488 36.3216 64.3533 36.3378 64.3537C36.3539 64.3541 36.3698 64.3503 36.3843 64.3428C36.3987 64.3353 36.4111 64.3242 36.4205 64.3104C36.4299 64.2967 36.4359 64.2808 36.4381 64.2641L36.3951 64.3181Z" fill="white"/>
<path d="M39.2189 66.0992C39.2448 66.1802 39.3614 66.1757 39.4218 66.1217C39.4731 66.0557 39.5207 65.9867 39.5642 65.9149C39.5932 65.8833 39.628 65.8582 39.6666 65.8411C39.7052 65.8241 39.7468 65.8156 39.7887 65.8159C39.8127 65.8157 39.8363 65.8217 39.8574 65.8335C39.8786 65.8453 39.8965 65.8625 39.9096 65.8834C39.9208 65.9153 39.9208 65.9504 39.9096 65.9823C39.8988 66.1429 39.8482 66.2979 39.7628 66.432C39.7166 66.5037 39.6505 66.5589 39.5734 66.5902C39.4962 66.6216 39.4117 66.6276 39.3311 66.6074C39.2773 66.592 39.2285 66.5618 39.1898 66.5199C39.1511 66.4781 39.1239 66.4261 39.1111 66.3695C39.0983 66.313 39.1003 66.2538 39.117 66.1984C39.1337 66.1429 39.1644 66.0931 39.206 66.0543L39.2189 66.0992Z" fill="white"/>
<path d="M31.2725 60.8238C31.2984 60.9047 31.4149 60.9002 31.4753 60.8238C31.5276 60.7601 31.5752 60.6925 31.6178 60.6214C31.6457 60.5884 31.6803 60.5623 31.7192 60.5452C31.758 60.5281 31.8001 60.5203 31.8423 60.5224C31.8665 60.5209 31.8908 60.5259 31.9127 60.5369C31.9346 60.548 31.9535 60.5646 31.9674 60.5854C31.9759 60.6178 31.9759 60.652 31.9674 60.6843C31.962 60.853 31.9111 61.0166 31.8207 61.1566C31.7744 61.2279 31.708 61.2826 31.6308 61.3131C31.5535 61.3437 31.4691 61.3487 31.389 61.3274C31.3352 61.312 31.2864 61.2818 31.2477 61.2399C31.2089 61.1981 31.1817 61.1461 31.1689 61.0896C31.1561 61.033 31.1582 60.9738 31.1749 60.9184C31.1916 60.8629 31.2223 60.8131 31.2638 60.7743L31.2725 60.8238Z" fill="white"/>
<path d="M31.6956 59.8211C31.7172 59.9021 31.838 59.8976 31.8985 59.8211C31.9589 59.7447 31.9848 59.6817 32.0409 59.6187C32.0679 59.5858 32.1018 59.5598 32.14 59.5426C32.1781 59.5255 32.2196 59.5177 32.2611 59.5198C32.2855 59.5174 32.3101 59.5219 32.3321 59.533C32.3542 59.5441 32.3729 59.5613 32.3863 59.5828C32.3968 59.6148 32.3968 59.6496 32.3863 59.6817C32.3821 59.8499 32.3327 60.0135 32.2438 60.1539C32.1953 60.2229 32.1289 60.276 32.0525 60.3071C31.976 60.3381 31.8927 60.3458 31.8121 60.3293C31.7584 60.3122 31.7098 60.2809 31.6712 60.2383C31.6326 60.1957 31.6053 60.1434 31.592 60.0865C31.5792 60.0303 31.5809 59.9717 31.5968 59.9164C31.6127 59.8611 31.6423 59.8112 31.6826 59.7717L31.6956 59.8211Z" fill="white"/>
<path d="M33.0306 60.8011C33.0306 60.8821 33.173 60.8776 33.2334 60.8011C33.2939 60.7247 33.3198 60.6617 33.3759 60.5987C33.4029 60.5658 33.4368 60.5398 33.4749 60.5226C33.5131 60.5055 33.5545 60.4977 33.596 60.4998C33.6204 60.4973 33.645 60.5019 33.6671 60.513C33.6892 60.5241 33.7079 60.5413 33.7212 60.5628C33.7297 60.5951 33.7297 60.6293 33.7212 60.6617C33.7132 60.8222 33.664 60.9775 33.5788 61.1114C33.5297 61.1796 33.4631 61.2318 33.3867 61.2621C33.3103 61.2923 33.2272 61.2993 33.1471 61.2823C33.0937 61.266 33.0452 61.2355 33.0066 61.1936C32.968 61.1518 32.9405 61.1002 32.927 61.044C32.9142 60.9878 32.9158 60.9292 32.9317 60.8739C32.9477 60.8186 32.9773 60.7687 33.0176 60.7291L33.0306 60.8011Z" fill="white"/>
<path d="M24.6686 68.7888C24.6902 68.8697 24.811 68.8652 24.8715 68.7888C24.9319 68.7123 24.9578 68.6449 25.0139 68.5819C25.0417 68.55 25.0757 68.5246 25.1137 68.5076C25.1517 68.4905 25.1927 68.4821 25.2341 68.483C25.2584 68.481 25.2828 68.4858 25.3048 68.4969C25.3268 68.5079 25.3456 68.5249 25.3593 68.5459C25.3681 68.5798 25.3681 68.6155 25.3593 68.6494C25.3516 68.8106 25.3008 68.9664 25.2125 69.0991C25.1668 69.1712 25.1007 69.2268 25.0234 69.2582C24.9461 69.2896 24.8613 69.2953 24.7808 69.2745C24.7274 69.2582 24.6789 69.2276 24.6403 69.1858C24.6017 69.144 24.5742 69.0924 24.5607 69.0361C24.548 68.9793 24.5497 68.92 24.5655 68.864C24.5814 68.808 24.611 68.7573 24.6513 68.7168L24.6686 68.7888Z" fill="white"/>
<path d="M37.5766 66.4589L37.4776 66.3735C37.4239 66.4169 37.3872 66.4792 37.3743 66.5488C37.3743 66.6163 37.4474 66.6883 37.5034 66.6478C37.5211 66.6305 37.5344 66.6088 37.5421 66.5848L37.6411 66.3555L37.5766 66.4589Z" fill="white"/>
<path d="M29.0841 65.8027C29.0383 65.7031 28.9754 65.6132 28.8984 65.5374C28.8581 65.5009 28.8083 65.4776 28.7554 65.4704C28.7024 65.4632 28.6486 65.4724 28.6006 65.4969C28.5566 65.527 28.5233 65.5712 28.5056 65.6228C28.4917 65.662 28.4856 65.7038 28.4877 65.7455C28.4899 65.7872 28.5002 65.8281 28.5181 65.8655C28.536 65.9029 28.561 65.9361 28.5917 65.963C28.6224 65.99 28.6581 66.0101 28.6965 66.0221C28.7349 66.0341 28.7753 66.0378 28.8151 66.0329C28.855 66.028 28.8935 66.0146 28.9282 65.9937C28.9629 65.9727 28.9931 65.9445 29.0169 65.9109C29.0408 65.8773 29.0577 65.8389 29.0668 65.7982L29.0841 65.8027Z" fill="white"/>
<path d="M37.5815 63.0504C37.6145 63.0671 37.6428 63.0925 37.6635 63.124C37.6843 63.1556 37.6968 63.1922 37.6998 63.2303C37.7029 63.2684 37.6964 63.3067 37.6809 63.3414C37.6654 63.3761 37.6416 63.406 37.6117 63.4282C37.5278 63.4228 37.4464 63.3966 37.3743 63.3517C37.3961 63.2562 37.4515 63.1728 37.5297 63.1179L37.5815 63.0504Z" fill="white"/>
<path opacity="0.5" d="M28.2807 64.6602C28.2456 64.6072 28.1999 64.5627 28.1469 64.5297C28.122 64.5123 28.0927 64.5031 28.0627 64.5031C28.0327 64.5031 28.0034 64.5123 27.9785 64.5297C27.9008 64.6017 27.9483 64.7321 27.9138 64.8311C27.8792 64.93 27.7627 64.993 27.7627 65.0964C27.7627 65.1998 27.8836 65.2673 27.9785 65.2403C28.0726 65.2049 28.1519 65.1365 28.203 65.0469C28.2606 64.9749 28.2979 64.8878 28.3109 64.7951C28.3167 64.749 28.3064 64.7022 28.2818 64.6634C28.2572 64.6246 28.2201 64.5963 28.1771 64.5837L28.2807 64.6602Z" fill="white"/>
<path d="M33.2001 62.1195C33.2787 61.9123 33.3068 61.6881 33.282 61.4668C33.2571 61.2455 33.18 61.034 33.0576 60.8513C32.8448 60.8698 32.6393 60.9411 32.4583 61.0592C32.2773 61.1774 32.1261 61.3389 32.0173 61.5304C31.9678 61.6274 31.9372 61.7337 31.9273 61.8432C31.9175 61.9526 31.9285 62.063 31.9598 62.1679C31.9911 62.2729 32.0421 62.3703 32.1097 62.4547C32.1774 62.539 32.2604 62.6085 32.354 62.6592C32.7468 62.8256 33.2648 62.3804 33.1094 61.9666L33.2001 62.1195Z" fill="white"/>
<path d="M38.0146 62.133C38.0089 62.1466 38.0008 62.1589 37.9906 62.1692C37.9804 62.1795 37.9684 62.1876 37.9552 62.1931C37.942 62.1985 37.9279 62.2012 37.9137 62.2009C37.8995 62.2006 37.8855 62.1974 37.8725 62.1914C37.8459 62.1783 37.8222 62.1596 37.8029 62.1363C37.7836 62.1131 37.7692 62.0859 37.7606 62.0565C37.75 62.0214 37.75 61.9837 37.7606 61.9486C37.7651 61.9286 37.7734 61.9098 37.785 61.8933C37.7966 61.8767 37.8113 61.8628 37.8282 61.8523C37.8451 61.8418 37.8638 61.835 37.8832 61.8322C37.9027 61.8294 37.9224 61.8308 37.9414 61.8362C37.9784 61.8504 38.0091 61.8786 38.0274 61.9152C38.0457 61.9517 38.0503 61.9941 38.0404 62.034C38.027 62.0727 38.0013 62.1054 37.9676 62.1266C37.9339 62.1479 37.8943 62.1565 37.8553 62.151L38.0146 62.133Z" fill="white"/>
<path d="M35.6748 62.1505C35.5755 62.1955 35.5626 62.3349 35.5669 62.4473C35.5712 62.5598 35.5669 62.6902 35.4935 62.7576C35.4809 62.7647 35.4668 62.7684 35.4525 62.7684C35.4382 62.7684 35.4241 62.7647 35.4115 62.7576C35.3381 62.7351 35.3597 62.6272 35.3511 62.5463C35.3344 62.4853 35.3113 62.4265 35.282 62.3709C35.2598 62.2995 35.2577 62.223 35.2761 62.1504C35.2945 62.0778 35.3325 62.0123 35.3856 61.9616C35.4233 61.9526 35.4628 61.9553 35.4991 61.9694C35.5353 61.9834 35.5669 62.0082 35.5898 62.0407C35.6128 62.0732 35.6261 62.112 35.6281 62.1523C35.6302 62.1926 35.6209 62.2326 35.6014 62.2674L35.6748 62.1505Z" fill="white"/>
<path d="M32.503 63.5131L32.3911 63.4636C32.3652 63.487 32.3477 63.5189 32.3414 63.554C32.3351 63.5892 32.3405 63.6255 32.3567 63.657C32.3658 63.6717 32.3776 63.6844 32.3915 63.6942C32.4054 63.704 32.4211 63.7108 32.4376 63.7142C32.454 63.7176 32.471 63.7174 32.4874 63.7138C32.5038 63.7101 32.5194 63.7031 32.5331 63.693C32.5465 63.6825 32.5573 63.6689 32.5648 63.6533C32.5723 63.6377 32.5762 63.6205 32.5762 63.603C32.5762 63.5856 32.5723 63.5684 32.5648 63.5528C32.5573 63.5371 32.5465 63.5236 32.5331 63.5131H32.503Z" fill="white"/>
<path d="M34.863 63.3968C34.8788 63.4136 34.8877 63.4362 34.8877 63.4597C34.8877 63.4833 34.8788 63.5059 34.863 63.5227C34.8237 63.5503 34.7765 63.563 34.7292 63.5587C34.6916 63.5594 34.6545 63.5501 34.6213 63.5317C34.5887 63.5119 34.5639 63.4807 34.5512 63.4437C34.5386 63.4066 34.5389 63.3661 34.5522 63.3293C34.5654 63.2931 34.5875 63.2612 34.6163 63.2367C34.6451 63.2122 34.6796 63.1961 34.7163 63.1899C34.7341 63.1864 34.7524 63.1865 34.7702 63.1904C34.788 63.1943 34.8049 63.2017 34.8199 63.2124C34.8323 63.2265 34.8392 63.245 34.8392 63.2641C34.8392 63.2833 34.8323 63.3017 34.8199 63.3158L34.863 63.3968Z" fill="white"/>
<path d="M34.2721 67.0613C34.4625 66.9605 34.6252 66.8112 34.7452 66.6272C34.8653 66.4432 34.9386 66.2305 34.9584 66.009C34.7882 65.8748 34.5888 65.7865 34.3779 65.752C34.1671 65.7174 33.9513 65.7377 33.7498 65.8111C33.6514 65.8509 33.5614 65.9105 33.4852 65.9865C33.4089 66.0625 33.3477 66.1535 33.3052 66.2542C33.2627 66.3548 33.2397 66.4632 33.2375 66.5732C33.2352 66.6831 33.2538 66.7925 33.2922 66.8949C33.3427 66.9875 33.4158 67.0645 33.5042 67.118C33.5925 67.1716 33.6929 67.1998 33.7951 67.1998C33.8973 67.1998 33.9977 67.1716 34.086 67.118C34.1743 67.0645 34.2475 66.9875 34.298 66.8949L34.2721 67.0613Z" fill="white"/>
<path d="M37.3964 65.8118C37.3403 65.6948 37.146 65.7668 37.1245 65.8972C37.1217 65.9615 37.1322 66.0258 37.1553 66.0855C37.1783 66.1452 37.2135 66.1991 37.2583 66.2435C37.3316 66.1982 37.3904 66.1313 37.4272 66.0513C37.4641 65.9713 37.4774 65.8817 37.4655 65.7938L37.3964 65.8118Z" fill="white"/>
<path d="M37.0302 61.1026L36.914 61.0531C36.8887 61.0769 36.8716 61.1088 36.8654 61.1437C36.8592 61.1787 36.8641 61.2148 36.8795 61.2465C36.889 61.2614 36.9013 61.2741 36.9156 61.284C36.9299 61.2939 36.9459 61.3007 36.9627 61.304C36.9795 61.3074 36.9968 61.3072 37.0136 61.3035C37.0303 61.2998 37.0462 61.2926 37.0603 61.2825C37.0736 61.2725 37.0845 61.2593 37.092 61.244C37.0995 61.2288 37.1034 61.2119 37.1034 61.1948C37.1034 61.1776 37.0995 61.1607 37.092 61.1455C37.0845 61.1302 37.0736 61.1171 37.0603 61.1071L37.0302 61.1026Z" fill="white"/>
<path d="M35.8206 63.0996C35.4742 62.7952 35.065 62.5782 34.6249 62.4655C34.5557 62.4404 34.4817 62.4327 34.4091 62.443C34.3409 62.4629 34.2785 62.5 34.2273 62.551C34.1761 62.602 34.1377 62.6653 34.1156 62.7353C34.0583 62.9065 34.0519 63.0916 34.0974 63.2666C34.1428 63.4415 34.2379 63.5981 34.3702 63.7157C34.5051 63.8289 34.6641 63.9068 34.8339 63.9428C35.0036 63.9788 35.1792 63.9719 35.3458 63.9226C35.5249 63.8753 35.6796 63.7576 35.7775 63.5943C35.8266 63.5097 35.8458 63.4098 35.8316 63.3121C35.8174 63.2143 35.7708 63.1248 35.6998 63.0591C35.6855 63.0634 35.6725 63.0714 35.6621 63.0824C35.6517 63.0934 35.6441 63.107 35.6402 63.1219C35.6363 63.1369 35.6362 63.1526 35.6398 63.1676C35.6434 63.1826 35.6507 63.1963 35.6609 63.2076L35.8206 63.0996Z" fill="white"/>
<path d="M30.7003 68.7433C30.6456 68.5243 30.5373 68.3238 30.386 68.1615C30.2347 67.9991 30.0455 67.8804 29.837 67.8169C29.6791 67.9644 29.5575 68.1492 29.4824 68.3558C29.4073 68.5624 29.3809 68.7847 29.4053 69.0042C29.4393 69.2232 29.555 69.4194 29.7272 69.55C29.8995 69.6806 30.1143 69.7349 30.3248 69.7012C30.7565 69.5888 30.8946 68.9052 30.532 68.6759L30.7003 68.7433Z" fill="white"/>
<path d="M28.1084 60.7969C28.081 60.6966 28.0322 60.6041 27.9657 60.5263C27.8991 60.4484 27.8166 60.3872 27.7242 60.3472C27.6789 60.4288 27.6496 60.519 27.6379 60.6125C27.6334 60.6584 27.6421 60.7047 27.6628 60.7456C27.6835 60.7864 27.7154 60.8199 27.7544 60.8419C27.8667 60.8958 27.9875 60.8104 28.0825 60.7339V60.8374L28.1084 60.7969Z" fill="white"/>
<path d="M26.6726 60.8376C26.6413 60.7885 26.5936 60.7532 26.5388 60.7386C26.486 60.7327 26.4328 60.7453 26.3877 60.7746C26.248 60.8376 26.1037 60.8887 25.9561 60.9275L26.6165 61.2603C26.6349 61.268 26.6512 61.2804 26.664 61.2963C26.7115 61.3457 26.664 61.4312 26.664 61.4986C26.664 61.5661 26.7935 61.6471 26.8928 61.6516C27.6223 61.701 26.8755 61.0714 26.6726 60.8376Z" fill="white"/>
<path d="M35.3012 61.8491L35.1113 61.7412C35.0775 61.8072 35.0644 61.8826 35.0737 61.9567C35.083 62.0309 35.1142 62.1001 35.1631 62.155C35.271 62.2494 35.4825 62.1954 35.4954 62.047C35.5084 61.8986 35.4954 61.8087 35.5688 61.8177L35.3012 61.8491Z" fill="white"/>
<path d="M29.2396 63.0092C29.296 63.0304 29.3454 63.0678 29.3821 63.1172C29.3103 63.1419 29.2341 63.1491 29.1592 63.1382C29.0843 63.1273 29.0129 63.0985 28.9504 63.0542C28.8727 63.0137 28.7864 62.9508 28.795 62.8608C28.8037 62.7709 28.8555 62.7529 28.8814 62.6989C28.9073 62.645 28.9073 62.4066 29.0195 62.3661C29.0532 62.3589 29.0882 62.3639 29.1189 62.3803C29.1495 62.3966 29.1738 62.4234 29.1878 62.4561C29.2134 62.5216 29.2237 62.5925 29.2181 62.663V63.1127L29.2396 63.0092Z" fill="white"/>
<path d="M28.4378 65.3036C28.386 65.1867 28.1917 65.2586 28.1658 65.389C28.1636 65.4537 28.1747 65.5181 28.1986 65.5779C28.2224 65.6377 28.2584 65.6914 28.3039 65.7353C28.3772 65.69 28.436 65.6232 28.4729 65.5431C28.5098 65.4631 28.5231 65.3735 28.5111 65.2856L28.4378 65.3036Z" fill="white"/>
<path opacity="0.5" d="M26.7683 63.145C26.7748 63.1748 26.7699 63.2061 26.7546 63.2321C26.7392 63.2582 26.7147 63.2769 26.6863 63.2844C26.6286 63.2936 26.5698 63.2791 26.5222 63.2439C26.4917 63.2257 26.4664 63.1993 26.4489 63.1675C26.441 63.1489 26.4369 63.1289 26.4365 63.1086C26.4362 63.0883 26.4398 63.0682 26.447 63.0493C26.4543 63.0305 26.465 63.0133 26.4787 62.9989C26.4923 62.9844 26.5086 62.9729 26.5266 62.9651C26.5453 62.9579 26.5651 62.9547 26.585 62.9556C26.6049 62.9565 26.6245 62.9614 26.6425 62.9702C26.6606 62.979 26.6768 62.9914 26.6902 63.0067C26.7037 63.0221 26.7141 63.04 26.7208 63.0595C26.7339 63.0987 26.7333 63.1413 26.7191 63.18C26.7048 63.2187 26.6779 63.2509 26.6431 63.2709L26.7683 63.145Z" fill="white"/>
<path d="M27.31 62.546C27.3331 62.5264 27.351 62.5008 27.3618 62.4717C27.3726 62.4427 27.376 62.4112 27.3717 62.3804C27.3673 62.3495 27.3554 62.3204 27.337 62.2958C27.3187 62.2713 27.2945 62.2521 27.267 62.2402C27.2135 62.2768 27.1728 62.3304 27.1508 62.3931C27.1398 62.4258 27.1398 62.4614 27.1508 62.4941C27.1617 62.5268 27.183 62.5546 27.211 62.573C27.2253 62.5803 27.241 62.584 27.2568 62.5836C27.2727 62.5833 27.2882 62.579 27.3021 62.571C27.316 62.5631 27.3279 62.5518 27.3368 62.538C27.3457 62.5243 27.3512 62.5085 27.3531 62.4921L27.31 62.546Z" fill="white"/>
<path d="M29.4288 60.6486C29.4328 60.5704 29.4193 60.4923 29.3894 60.4205C29.3594 60.3486 29.3138 60.2851 29.2561 60.2349L29.0446 60.5452C29.0066 60.5913 28.9812 60.6472 28.9712 60.7071C28.9715 60.7361 28.9778 60.7648 28.9896 60.7911C29.0015 60.8174 29.0187 60.8408 29.04 60.8595C29.0613 60.8783 29.0862 60.8921 29.1131 60.8999C29.1399 60.9078 29.1681 60.9095 29.1957 60.9049C29.2512 60.894 29.302 60.8651 29.3407 60.8223C29.3795 60.7795 29.4043 60.725 29.4115 60.6666L29.4288 60.6486Z" fill="white"/>
<path opacity="0.5" d="M26.926 64.957C26.9382 65.0005 26.9377 65.0467 26.9247 65.09C26.9116 65.1332 26.8865 65.1714 26.8527 65.1998C26.8187 65.2273 26.7778 65.244 26.735 65.248C26.6921 65.252 26.6491 65.2431 26.6109 65.2223C26.5591 65.1953 26.516 65.1234 26.5505 65.0739C26.5683 65.0547 26.5906 65.0408 26.6152 65.0334L26.9217 64.912V64.9705L26.926 64.957Z" fill="white"/>
<path opacity="0.5" d="M25.6525 66.1349C25.5446 66.1349 25.4885 66.2653 25.4583 66.3733C25.4281 66.4812 25.3892 66.6116 25.29 66.6431C25.2765 66.6499 25.2617 66.6534 25.2468 66.6534C25.2318 66.6534 25.2171 66.6499 25.2036 66.6431C25.1432 66.5936 25.2036 66.4992 25.2036 66.4182C25.21 66.3569 25.21 66.2951 25.2036 66.2338C25.2027 66.1586 25.2237 66.0849 25.2638 66.0223C25.3038 65.9597 25.3611 65.9111 25.4281 65.8831C25.4665 65.8874 25.503 65.9033 25.5329 65.9288C25.5628 65.9544 25.5849 65.9885 25.5964 66.027C25.6083 66.0658 25.6089 66.1075 25.5982 66.1467C25.5874 66.1859 25.5658 66.2209 25.536 66.2473L25.6525 66.1349Z" fill="white"/>
<path opacity="0.5" d="M32.7351 59.1102C32.6272 59.1102 32.5667 59.2407 32.5408 59.3486C32.5149 59.4565 32.4718 59.5869 32.3682 59.6184C32.3554 59.6251 32.3414 59.6286 32.3271 59.6286C32.3129 59.6286 32.2988 59.6251 32.2861 59.6184C32.2257 59.569 32.2861 59.4745 32.2861 59.3981C32.2925 59.3353 32.2925 59.272 32.2861 59.2092C32.2853 59.134 32.3062 59.0602 32.3463 58.9976C32.3863 58.935 32.4436 58.8865 32.5106 58.8584C32.5491 58.8627 32.5855 58.8786 32.6154 58.9042C32.6453 58.9297 32.6674 58.9638 32.679 59.0023C32.6888 59.0413 32.6883 59.0823 32.6777 59.1211C32.6671 59.1599 32.6466 59.195 32.6185 59.2227L32.7351 59.1102Z" fill="white"/>
<path opacity="0.5" d="M24.9525 65.2758L24.8621 65.1903C24.8305 65.2039 24.8041 65.228 24.787 65.2589C24.7698 65.2898 24.763 65.3258 24.7674 65.3612C24.7709 65.3785 24.7777 65.3949 24.7876 65.4093C24.7975 65.4236 24.8101 65.4356 24.8248 65.4445C24.8394 65.4535 24.8556 65.459 24.8724 65.461C24.8893 65.4629 24.9063 65.4611 24.9224 65.4556C24.9379 65.4496 24.9519 65.4398 24.963 65.427C24.9742 65.4141 24.9822 65.3987 24.9864 65.3819C24.9907 65.3651 24.9909 65.3475 24.9873 65.3306C24.9836 65.3137 24.9761 65.298 24.9654 65.2848L24.9525 65.2758Z" fill="white"/>
<path d="M27.8747 61.8131C27.8963 61.8941 28.0172 61.8896 28.0776 61.8356C28.138 61.7817 28.1639 61.6917 28.2201 61.6288C28.2478 61.5968 28.2818 61.5715 28.3198 61.5544C28.3578 61.5373 28.3988 61.529 28.4402 61.5298C28.4646 61.5274 28.4892 61.5319 28.5113 61.543C28.5333 61.5541 28.5521 61.5713 28.5654 61.5928C28.5762 61.6263 28.5762 61.6627 28.5654 61.6962C28.5573 61.8567 28.5081 62.012 28.4229 62.1459C28.3744 62.2149 28.3081 62.268 28.2316 62.2991C28.1552 62.3302 28.0718 62.3379 27.9913 62.3213C27.9378 62.305 27.8894 62.2745 27.8508 62.2327C27.8121 62.1909 27.7847 62.1393 27.7711 62.083C27.7584 62.0261 27.7601 61.9668 27.776 61.9109C27.7919 61.8549 27.8214 61.8042 27.8618 61.7637L27.8747 61.8131Z" fill="white"/>
<path d="M27.7811 59.5644C27.7766 59.5123 27.7531 59.464 27.7152 59.4296C27.6774 59.3953 27.6283 59.3775 27.5782 59.38C27.5277 59.3848 27.4796 59.4042 27.4392 59.436C27.3988 59.4678 27.3677 59.5107 27.3494 59.5599C27.3278 59.6049 27.3235 59.6633 27.3494 59.6858C27.3628 59.6926 27.3776 59.6961 27.3926 59.6961C27.4075 59.6961 27.4223 59.6926 27.4357 59.6858L27.7983 59.5869L27.7811 59.5644Z" fill="white"/>
<path d="M30.1352 64.8315C30.1259 64.8828 30.1055 64.9313 30.0757 64.9732C30.0458 65.0152 30.0072 65.0496 29.9628 65.0738C29.9183 65.098 29.8692 65.1115 29.8191 65.1131C29.769 65.1148 29.7191 65.1046 29.6733 65.0833C29.6955 64.9163 29.7646 64.7598 29.8719 64.6336C29.8986 64.6012 29.9318 64.5753 29.969 64.5575C30.0063 64.5397 30.0468 64.5305 30.0877 64.5305C30.1287 64.5305 30.1692 64.5397 30.2065 64.5575C30.2437 64.5753 30.2768 64.6012 30.3036 64.6336C30.3036 64.7325 30.2734 64.827 30.2604 64.9214L30.1352 64.8315Z" fill="white"/>
<path opacity="0.5" d="M26.2316 62.1728L26.1326 62.0873C26.1052 62.107 26.0819 62.1323 26.0641 62.1617C26.0464 62.1911 26.0345 62.2239 26.0293 62.2582C26.0293 62.3302 26.0982 62.4021 26.1541 62.3617C26.1744 62.3459 26.1895 62.3239 26.1972 62.2987L26.2918 62.0693L26.2316 62.1728Z" fill="white"/>
<path d="M37.4935 64.0981C37.4497 63.9973 37.3865 63.907 37.3079 63.8327C37.2685 63.7961 37.2194 63.7727 37.1671 63.7654C37.1148 63.7582 37.0615 63.7676 37.0144 63.7923C36.9692 63.821 36.9355 63.8657 36.9194 63.9182C36.8946 63.9975 36.9005 64.0838 36.936 64.1586C36.9715 64.2334 37.0337 64.2908 37.1093 64.3184C37.1871 64.3379 37.2691 64.3254 37.3382 64.2835C37.4073 64.2416 37.4583 64.1736 37.4805 64.0936L37.4935 64.0981Z" fill="white"/>
<path d="M31.9582 67.2462L31.7688 67.1383C31.7316 67.181 31.7037 67.2317 31.687 67.2867C31.7254 67.3247 31.7762 67.3458 31.829 67.3458C31.8819 67.3458 31.9327 67.3247 31.9711 67.2867L31.9582 67.2462Z" fill="white"/>
<path d="M42.5673 66.553C42.5728 66.5827 42.5674 66.6134 42.5522 66.6392C42.537 66.665 42.5132 66.684 42.4853 66.6924C42.4263 66.7019 42.366 66.6874 42.3169 66.6519C42.2866 66.6349 42.2624 66.608 42.2479 66.5755C42.2394 66.5566 42.2346 66.5362 42.234 66.5154C42.2333 66.4947 42.2367 66.474 42.244 66.4546C42.2512 66.4352 42.2622 66.4176 42.2763 66.4028C42.2903 66.388 42.3071 66.3764 42.3256 66.3686C42.3634 66.3564 42.4043 66.3594 42.4402 66.3768C42.4761 66.3943 42.5044 66.425 42.5198 66.463C42.532 66.5034 42.5304 66.5468 42.5155 66.5861C42.5006 66.6254 42.4731 66.6582 42.4378 66.6789L42.5673 66.553Z" fill="white"/>
<path d="M31.2096 65.5372L31.0203 65.4293C30.9831 65.472 30.9552 65.5227 30.9385 65.5777C30.9763 65.6167 31.0274 65.6386 31.0805 65.6386C31.1337 65.6386 31.1847 65.6167 31.2225 65.5777L31.2096 65.5372Z" fill="white"/>
<path d="M33.8611 60.0142C33.8611 59.9287 33.7446 59.8972 33.6712 59.9332C33.5978 59.9692 33.5503 60.0411 33.4769 60.0861C33.4416 60.1082 33.4021 60.1221 33.3611 60.1268C33.3201 60.1314 33.2786 60.1268 33.2395 60.1131C33.2154 60.1062 33.1933 60.0931 33.1752 60.075C33.1571 60.057 33.1436 60.0345 33.1359 60.0097C33.1279 59.9772 33.1279 59.9432 33.1359 59.9107C33.1892 59.7536 33.2834 59.6151 33.4079 59.5105C33.4688 59.4619 33.5417 59.4323 33.6181 59.4252C33.6945 59.418 33.7713 59.4335 33.8395 59.47C33.8858 59.5025 33.9233 59.5469 33.9482 59.5989C33.9732 59.6509 33.9848 59.7087 33.982 59.7668C33.9771 59.8244 33.9584 59.8798 33.9274 59.9278C33.8965 59.9757 33.8543 60.0147 33.805 60.0411L33.8611 60.0142Z" fill="white"/>
<path d="M35.4758 64.1702C35.4939 64.2306 35.5248 64.286 35.5664 64.3321C35.5863 64.3558 35.6126 64.3728 35.6418 64.3808C35.6711 64.3889 35.7019 64.3875 35.7305 64.3771C35.8211 64.3321 35.8168 64.1927 35.8772 64.1117C35.9377 64.0308 36.0672 63.9993 36.0974 63.9004C36.1276 63.8014 36.0283 63.7025 35.929 63.698C35.8295 63.7036 35.735 63.7449 35.6614 63.8149C35.5861 63.8667 35.5251 63.938 35.4844 64.0218C35.4677 64.0644 35.4654 64.1117 35.478 64.1559C35.4905 64.2 35.5172 64.2384 35.5535 64.2646L35.4758 64.1702Z" fill="white"/>
<path d="M31.3718 61.8493C31.7134 61.9954 32.0824 62.0584 32.4509 62.0337C32.5107 62.0342 32.5698 62.0204 32.6236 61.9932C32.6714 61.9604 32.7107 61.9156 32.7379 61.863C32.765 61.8104 32.7791 61.7516 32.779 61.6919C32.781 61.5449 32.741 61.4006 32.6642 61.2773C32.5873 61.154 32.477 61.0572 32.3473 60.9993C32.2163 60.9436 32.0742 60.9222 31.9335 60.9371C31.7927 60.952 31.6576 61.0027 31.5401 61.0848C31.4058 61.167 31.3081 61.3012 31.2682 61.458C31.2493 61.5362 31.2576 61.6188 31.2916 61.6912C31.3256 61.7636 31.383 61.8212 31.4538 61.8538C31.4636 61.8468 31.4716 61.8374 31.4771 61.8264C31.4826 61.8154 31.4855 61.8032 31.4855 61.7908C31.4855 61.7784 31.4826 61.7662 31.4771 61.7553C31.4716 61.7443 31.4636 61.7349 31.4538 61.7279L31.3718 61.8493Z" fill="white"/>
<path d="M33.1209 59.7583C33.1401 59.7047 33.1401 59.6456 33.1209 59.5919C33.0983 59.5405 33.0605 59.498 33.013 59.4705C32.8943 59.38 32.7831 59.2792 32.6806 59.1692L32.7324 59.9337C32.7345 59.9531 32.7345 59.9728 32.7324 59.9922C32.7108 60.0596 32.6202 60.0596 32.5641 60.1046C32.5079 60.1496 32.5079 60.298 32.5641 60.3879C32.8705 61.049 33.0303 60.0506 33.1209 59.7583Z" fill="white"/>
<path d="M31.3764 61.7685L31.2903 61.6741C31.2582 61.6851 31.2306 61.707 31.2118 61.7363C31.1931 61.7657 31.1843 61.8008 31.187 61.836C31.1901 61.8534 31.1965 61.87 31.2057 61.8849C31.215 61.8997 31.2269 61.9125 31.2409 61.9226C31.2549 61.9326 31.2706 61.9396 31.2872 61.9433C31.3038 61.9469 31.321 61.9472 31.3376 61.9439C31.3536 61.9386 31.3682 61.9294 31.3802 61.9171C31.3922 61.9048 31.4013 61.8898 31.4068 61.8732C31.4122 61.8566 31.4139 61.8388 31.4116 61.8215C31.4093 61.8041 31.4031 61.7875 31.3936 61.773L31.3764 61.7685Z" fill="white"/>
<path d="M31.9553 59.7895C31.9965 59.7587 32.0248 59.7126 32.0344 59.6608C32.044 59.609 32.0343 59.5553 32.0071 59.5107C31.978 59.4676 31.9379 59.4338 31.8914 59.4132C31.8449 59.3925 31.7938 59.3858 31.7438 59.3937C31.6963 59.3937 31.6445 59.4207 31.6445 59.4657C31.6445 59.5107 31.6661 59.5242 31.6877 59.5466L31.9467 59.8255L31.9553 59.7895Z" fill="white"/>
<path d="M31.3033 60.9907C31.3722 60.9165 31.424 60.8269 31.4547 60.7287C31.4853 60.6305 31.4941 60.5263 31.4803 60.4241C31.3913 60.4234 31.3032 60.4417 31.2213 60.4781C31.1805 60.4968 31.146 60.5278 31.1222 60.567C31.0983 60.6063 31.0863 60.652 31.0875 60.6984C31.0875 60.8243 31.2256 60.8963 31.3422 60.9413L31.2472 60.9818L31.3033 60.9907Z" fill="white"/>
<path d="M30.5056 61.463C30.525 61.5228 30.525 61.5876 30.5056 61.6474C30.4459 61.5914 30.3998 61.5214 30.3713 61.4432C30.3428 61.365 30.3326 61.2808 30.3415 61.1977C30.3415 61.1077 30.3415 60.9998 30.4235 60.9638C30.4833 60.9504 30.5451 60.9504 30.6048 60.9638C30.7257 60.9638 30.8552 60.8424 30.9459 60.9233C30.9665 60.951 30.9777 60.985 30.9777 61.02C30.9777 61.055 30.9665 61.0891 30.9459 61.1167C30.9038 61.1744 30.849 61.2207 30.7861 61.2516L30.402 61.4765L30.5056 61.463Z" fill="white"/>
<path d="M32.566 60.4598C32.6331 60.4238 32.6914 60.3723 32.7363 60.3091C32.7812 60.2459 32.8115 60.1729 32.825 60.0955L32.4624 60.0595C32.4059 60.0435 32.3463 60.0435 32.2898 60.0595C32.266 60.0745 32.2455 60.0945 32.2296 60.1182C32.2137 60.1419 32.2028 60.1688 32.1975 60.1972C32.1922 60.2256 32.1927 60.2548 32.1989 60.283C32.2051 60.3112 32.217 60.3377 32.2336 60.3608C32.2727 60.4037 32.3231 60.4335 32.3785 60.4463C32.4339 60.4591 32.4916 60.4544 32.5444 60.4328L32.566 60.4598Z" fill="white"/>
<path d="M30.8224 59.6323C30.7706 59.6953 30.8224 59.7987 30.9087 59.8257C30.9888 59.8394 31.0695 59.8484 31.1505 59.8527C31.1907 59.8628 31.2284 59.8817 31.2611 59.908C31.2938 59.9344 31.3209 59.9676 31.3404 60.0056C31.353 60.0273 31.3596 60.0522 31.3596 60.0776C31.3596 60.1029 31.353 60.1278 31.3404 60.1495C31.3203 60.1763 31.2934 60.1965 31.2627 60.208C31.121 60.2865 30.961 60.3224 30.8008 60.3114C30.7217 60.3015 30.6467 60.2689 30.5842 60.2173C30.5217 60.1657 30.4742 60.0971 30.4468 60.0191C30.4344 59.9626 30.4358 59.9038 30.4509 59.848C30.466 59.7922 30.4943 59.7412 30.5332 59.6998C30.5749 59.6613 30.6253 59.6345 30.6796 59.6219C30.734 59.6093 30.7906 59.6114 30.844 59.6278L30.8224 59.6323Z" fill="white"/>
<path d="M33.3885 64.3816C33.4519 64.293 33.4974 64.1921 33.5223 64.0847C33.5327 64.0301 33.5271 63.9735 33.5064 63.9222C33.4856 63.8709 33.4506 63.8273 33.4058 63.7969C33.3601 63.7692 33.3059 63.7612 33.2547 63.7744C33.1764 63.7907 33.1074 63.8387 33.0629 63.9078C33.0184 63.9769 33.002 64.0615 33.0173 64.1432C33.0385 64.2239 33.0893 64.2926 33.1588 64.3347C33.2282 64.3767 33.3107 64.3887 33.3885 64.3681V64.3816Z" fill="white"/>
<path d="M34.9125 62.4924C34.9818 62.4175 35.0337 62.3271 35.0644 62.2282C35.0951 62.1292 35.1037 62.0242 35.0895 61.9213C34.9989 61.9225 34.9094 61.9423 34.8262 61.9797C34.7861 61.9982 34.7521 62.0284 34.7283 62.0668C34.7045 62.1052 34.692 62.1499 34.6924 62.1956C34.6924 62.326 34.8348 62.3935 34.9471 62.4429L34.8564 62.4834L34.9125 62.4924Z" fill="white"/>
<path d="M30.1277 61.4987C30.0198 61.4987 29.9551 61.6201 29.9205 61.7235C29.886 61.8269 29.8385 61.9529 29.7306 61.9799C29.7181 61.9874 29.704 61.9913 29.6896 61.9913C29.6752 61.9913 29.6611 61.9874 29.6486 61.9799C29.5925 61.9304 29.6486 61.8359 29.6745 61.7595C29.6832 61.6984 29.6832 61.6362 29.6745 61.5751C29.679 61.4998 29.7054 61.4276 29.7501 61.3682C29.7948 61.3088 29.8557 61.2649 29.9249 61.2423C29.9634 61.2492 29.9991 61.2679 30.0275 61.2959C30.0559 61.3239 30.0758 61.36 30.0846 61.3997C30.0917 61.439 30.0882 61.4795 30.0744 61.5169C30.0607 61.5542 30.0373 61.5868 30.0069 61.6111L30.1277 61.4987Z" fill="white"/>
<path d="M36.5304 66.9985H36.4056C36.3847 67.0269 36.3733 67.0617 36.3733 67.0975C36.3733 67.1333 36.3847 67.1681 36.4056 67.1964C36.4297 67.2211 36.4622 67.235 36.496 67.235C36.5298 67.235 36.5622 67.2211 36.5864 67.1964C36.5959 67.182 36.6021 67.1654 36.6043 67.148C36.6066 67.1306 36.605 67.1129 36.5996 67.0963C36.5941 67.0796 36.585 67.0646 36.573 67.0523C36.561 67.04 36.5464 67.0308 36.5304 67.0255V66.9985Z" fill="white"/>
<path d="M32.831 61.4807V61.3458C32.7684 61.3213 32.6993 61.3213 32.6367 61.3458C32.5763 61.3772 32.5547 61.4807 32.6367 61.5122C32.6608 61.5184 32.686 61.5184 32.7101 61.5122L32.9518 61.4852L32.831 61.4807Z" fill="white"/>
<path d="M27.8467 71.9144C27.3331 75.0354 25.0539 82.2579 23.0121 81.4889C22.5804 81.3225 22.1099 80.7424 21.648 79.8834C20.2538 77.284 18.8811 72.1617 18.1947 68.6989C17.8235 66.8145 17.6551 65.4159 17.8062 65.191C18.717 63.7834 27.3676 69.8771 27.8813 70.5517C27.9762 70.6821 27.9547 71.1858 27.8467 71.9144Z" fill="url(#paint1_linear_318_49499)"/>
<path d="M41.5318 67.6956C41.5016 67.9834 41.4628 68.2848 41.4239 68.5951C40.8109 73.3351 39.5462 80.2878 38.1907 82.8332C37.867 83.4403 37.5346 83.7911 37.2065 83.8001C37.1172 83.8018 37.0283 83.7881 36.9432 83.7596C36.5657 83.6062 36.2337 83.3518 35.9806 83.0221C33.9216 80.6116 31.5949 73.2946 31.5129 71.109C31.4881 70.9192 31.515 70.726 31.5906 70.5513C32.7647 68.8919 41.2728 63.2254 41.7477 63.9C41.8728 64.0979 41.7779 65.5909 41.5318 67.6956Z" fill="url(#paint2_linear_318_49499)"/>
<path d="M17.8036 65.1908C16.8453 66.495 24.6498 72.3864 27.9391 70.8528C27.9391 70.8438 19.0727 63.4594 17.8036 65.1908Z" fill="url(#paint3_linear_318_49499)"/>
<path d="M31.5143 71.1094C31.2553 71.7705 40.2641 70.2504 41.749 63.9138C41.749 63.9003 33.9575 64.8493 31.5143 71.1094Z" fill="url(#paint4_linear_318_49499)"/>
<path style="mix-blend-mode:multiply" opacity="0.3" d="M21.2164 70.6686C20.7847 71.2308 21.32 78.5343 23.0035 81.4889C22.5718 81.3225 22.1013 80.7424 21.6394 79.8834C21.3675 78.6062 20.9617 76.7084 20.5775 74.8151C20.0669 72.6685 19.2645 70.609 18.1947 68.6989C17.8235 66.8145 17.6551 65.4159 17.8062 65.191C18.717 63.7834 27.3676 69.8771 27.8813 70.5517C27.9806 70.6821 27.959 71.1858 27.8381 71.9009C27.8511 71.9144 21.6567 70.111 21.2164 70.6686Z" fill="url(#paint5_linear_318_49499)"/>
<path d="M36.4551 73.3177C36.0882 73.4347 36.0019 76.4928 36.6148 76.6637C37.2278 76.8345 37.3055 73.0479 36.4551 73.3177Z" fill="white"/>
<path style="mix-blend-mode:multiply" opacity="0.3" d="M41.5307 67.6956C41.5307 67.6956 36.6055 69.2156 35.4874 71.6486C34.3694 74.0816 34.7752 79.865 36.0011 83.0176C33.9421 80.6071 31.6154 73.2901 31.5334 71.1045C31.5086 70.9147 31.5355 70.7214 31.6111 70.5468C32.7852 68.8874 41.2933 63.2209 41.7682 63.8955C41.8718 64.0978 41.7768 65.5909 41.5307 67.6956Z" fill="url(#paint6_linear_318_49499)"/>
<path d="M20.2382 43.766C20.2382 46.4643 19.8627 50.3949 18.6799 53.5609C16.7288 58.8001 13.7935 65.402 13.7028 65.6089C11.9114 66.7467 9.76605 66.6837 8.39768 66.4769C7.93489 66.4105 7.47749 66.3083 7.0293 66.1711C7.63687 61.7226 8.9099 57.4008 10.802 53.363C12.2987 50.2008 14.0978 47.204 16.172 44.4181V44.3866C16.172 44.3551 16.2151 44.3281 16.2367 44.2966C16.2496 44.2813 16.2612 44.2647 16.2712 44.2472C16.2851 44.2361 16.2968 44.2223 16.3058 44.2067C16.3205 44.1849 16.3364 44.1638 16.3533 44.1437C18.1274 41.7962 19.5692 40.3751 19.8713 40.546C20.0785 40.6404 20.2426 41.9221 20.2382 43.766Z" fill="url(#paint7_linear_318_49499)"/>
<path d="M7.05371 65.942C7.05371 65.942 9.36312 61.9709 11.7459 62.4881C14.1287 63.0053 13.7013 65.6362 13.7013 65.6362C12.7193 66.2977 11.5857 66.6748 10.4173 66.7286C9.24897 66.7823 8.08795 66.5108 7.05371 65.942Z" fill="url(#paint8_linear_318_49499)"/>
<path style="mix-blend-mode:multiply" opacity="0.3" d="M20.2406 43.766C20.2406 46.4643 19.8651 50.3949 18.6823 53.5609C16.7312 58.8002 13.7958 65.4021 13.7052 65.6089L8.39572 66.4814C7.93293 66.415 7.47554 66.3128 7.02734 66.1756C7.63492 61.7271 8.90795 57.4053 10.8001 53.3675C12.2968 50.2053 14.0958 47.2085 16.17 44.4226C15.1685 45.7987 10.99 51.789 9.85906 56.8754C8.56407 62.6588 13.744 60.4326 15.8592 56.8754C17.9744 53.3181 20.1758 43.766 20.1758 43.766H20.2406Z" fill="url(#paint9_linear_318_49499)"/>
<path d="M14.4686 53.0168C14.0369 52.8504 16.2212 47.7236 16.8946 47.6742C17.568 47.6247 14.8226 53.1563 14.4686 53.0168Z" fill="white"/>
<path d="M14.2454 53.5611C13.9131 53.3767 13.6023 54.3391 13.9044 54.4606C14.2066 54.582 14.621 53.7545 14.2454 53.5611Z" fill="white"/>
<path d="M10.9758 63.6848C9.74125 63.4734 7.95416 64.6742 7.39299 65.7535C6.83183 66.8329 6.52966 73.0525 7.94984 78.1883C7.94984 78.1883 9.93981 78.7505 11.4291 78.1883C12.9183 77.6262 13.9586 73.093 14.0363 69.6841C14.114 66.2752 13.0046 64.0266 10.9758 63.6848Z" fill="url(#paint10_linear_318_49499)"/>
<path d="M10.7926 78.359C10.7926 78.359 8.97532 67.4173 13.1064 65.1866C13.1064 65.1866 14.3323 67.3543 13.879 71.5817C13.4258 75.809 12.7438 77.9722 10.7926 78.359Z" fill="url(#paint11_linear_318_49499)"/>
<path style="mix-blend-mode:multiply" opacity="0.5" d="M10.4941 72.2873C10.4941 72.2873 11.556 73.9018 12.2812 74.1671C12.6983 74.3328 13.1592 74.3328 13.5762 74.1671L10.8999 69.2202C10.6448 70.2214 10.5085 71.2515 10.4941 72.2873Z" fill="url(#paint12_linear_318_49499)"/>
<path d="M10.8945 69.1883C10.8945 69.1883 11.4816 66.1572 13.2385 65.4152C13.2385 65.4152 14.8702 67.0926 14.4558 73.6091C14.4558 73.6091 13.545 74.8638 12.2586 73.6091C11.6047 72.2104 11.1454 70.7219 10.8945 69.1883Z" fill="url(#paint13_linear_318_49499)"/>
<path d="M11.8785 68.1185C11.2828 68.1185 12.1893 70.8708 12.5001 70.8169C12.8109 70.7629 12.3965 68.1185 11.8785 68.1185Z" fill="white"/>
<path d="M18.6825 5.23907C18.6825 5.23907 15.9846 2.81507 12.678 2.39233C12.678 2.39233 11.6679 2.90951 10.5197 6.70066C9.37145 10.4918 11.5082 17.9886 11.5082 17.9886L18.6825 5.23907Z" fill="url(#paint14_linear_318_49499)"/>
<path d="M11.3975 4.28566C11.6979 3.5675 12.139 2.92263 12.6925 2.39233C12.6925 2.39233 15.4119 5.00521 15.304 11.2518L14.5227 12.0973L11.3975 4.28566Z" fill="url(#paint15_linear_318_49499)"/>
<path d="M41.0242 5.23907C41.0242 5.23907 43.7264 2.81507 47.0286 2.39233C47.0286 2.39233 48.0387 2.90951 49.1869 6.70066C50.3352 10.4918 48.1984 17.9886 48.1984 17.9886L41.0242 5.23907Z" fill="url(#paint16_linear_318_49499)"/>
<path d="M47.0288 2.39149C45.2906 4.58558 44.3452 7.34478 44.3568 10.1896L45.3885 10.8687L48.4101 4.37476C48.4101 4.37476 47.4 2.33303 47.0288 2.39149Z" fill="url(#paint17_linear_318_49499)"/>
<path d="M45.2884 10.5407C45.2884 10.5407 44.5805 6.43022 47.1748 3.4126C47.1748 3.4126 50.1058 4.8517 51.3231 10.1899C52.5404 15.5281 49.3763 18.7346 49.3763 18.7346L45.2884 10.5407Z" fill="url(#paint18_linear_318_49499)"/>
<path d="M14.417 10.5407C14.417 10.5407 15.1292 6.43022 12.5306 3.4126C12.5306 3.4126 9.59962 4.8517 8.38664 10.1899C7.17366 15.5281 10.3334 18.7346 10.3334 18.7346L14.417 10.5407Z" fill="url(#paint19_linear_318_49499)"/>
<path d="M48.8921 33.256C42.8703 42.0616 14.5531 41.405 10.8667 34.2859C8.46235 29.6358 8.7084 22.6471 11.0394 16.2161C14.061 7.77484 20.6612 0.286987 29.3851 0.286987C39.6544 0.286987 47.5453 10.9454 49.9194 20.6773C51.1238 25.6063 50.9166 30.2969 48.8921 33.256Z" fill="url(#paint20_linear_318_49499)"/>
<path d="M12.983 25.0892C14.3298 31.084 39.2196 31.7361 45.3319 26.3035C51.4443 20.8709 42.6427 1.58683 29.1445 2.41882C16.8248 3.18784 10.7728 15.2718 12.983 25.0892Z" fill="#DFE3FB"/>
<path d="M12.8545 24.3652C14.2013 30.3555 39.0911 31.0076 45.2035 25.5794C51.3158 20.1513 42.5142 0.844782 29.029 1.69026C16.6963 2.45928 10.6444 14.5433 12.8545 24.3652Z" fill="url(#paint21_linear_318_49499)"/>
<path style="mix-blend-mode:multiply" opacity="0.3" d="M48.8921 33.2562C42.8703 42.0617 14.5531 41.4051 10.8667 34.286C8.46235 29.6359 8.7084 22.6473 11.0394 16.2162C10.9401 16.594 8.56595 25.6109 10.9919 29.5775C13.4697 33.6249 23.2684 33.0718 33.7881 32.6041C44.3078 32.1364 47.787 30.5399 49.5525 27.4503C50.9425 25.0173 49.5525 19.6476 48.8834 17.4755L49.9151 20.682C51.1238 25.6064 50.9166 30.297 48.8921 33.2562Z" fill="url(#paint22_linear_318_49499)"/>
<path d="M29.4158 39.7361C23.5322 39.7361 19.2889 39.0391 16.9191 38.0452C15.3608 37.3976 14.6053 36.624 14.7133 35.828C14.7823 35.3423 15.9392 34.9286 17.7349 34.5643C23.0789 33.557 34.1382 33.2556 40.1038 34.1956C40.6175 34.2765 41.0923 34.3665 41.5239 34.4654L41.7916 34.5328H41.8391C42.8707 34.7982 43.6003 35.122 43.924 35.5132C44.0003 35.6009 44.0564 35.7054 44.088 35.819C44.6837 37.8158 34.7554 39.7361 29.4158 39.7361Z" fill="url(#paint23_linear_318_49499)"/>
<path style="mix-blend-mode:multiply" opacity="0.5" d="M44.0406 35.3377C44.0149 35.4032 43.9816 35.4651 43.9413 35.5221C43.3628 36.372 41.0275 37.4649 41.0275 37.4649C41.0275 37.4649 32.0403 33.6332 24.7581 35.3377C17.4759 37.0421 16.9191 38.036 16.9191 38.036C15.3608 37.3884 14.6053 36.6149 14.7133 35.8189C14.7823 35.3332 15.9392 34.9194 17.7349 34.5552C23.0789 33.5478 34.1382 33.2465 40.1038 34.1864C40.7254 34.3033 41.2952 34.4158 41.7916 34.5237H41.8391C43.2722 34.8655 44.1053 35.1443 44.0406 35.3377Z" fill="url(#paint24_linear_318_49499)"/>
<path d="M41.54 34.4658C40.1501 35.851 33.4765 37.0517 29.6736 37.0472C22.8533 37.0472 18.7136 35.9139 17.751 34.5648C23.5569 33.472 36.1097 33.2066 41.54 34.4658Z" fill="url(#paint25_linear_318_49499)"/>
<path d="M41.1131 62.2407C40.2929 67.3001 35.9331 70.6685 29.7171 70.6685C24.2911 70.6685 19.6982 68.5638 18.4939 63.9227C17.2895 59.2816 17.7514 50.7144 19.3572 45.3762C19.5906 44.5907 19.8792 43.8241 20.2205 43.0826C20.5202 42.4326 20.862 41.8045 21.2436 41.2028C23.2206 38.0997 26.1171 36.0715 29.3934 36.0715C30.8687 36.0337 32.3336 36.339 33.6814 36.9653C35.0293 37.5915 36.2261 38.5229 37.1849 39.6917C38.0065 40.7018 38.6601 41.8479 39.1188 43.0826C39.6653 44.538 40.1125 46.0318 40.457 47.5529C40.4561 47.5678 40.4561 47.5829 40.457 47.5978C41.5921 52.3872 41.815 57.362 41.1131 62.2407Z" fill="url(#paint26_linear_318_49499)"/>
<path d="M36.8567 39.2778C36.8567 39.2778 37.3876 45.2861 40.7762 48.9378C40.7978 48.9378 39.8352 43.3388 36.8567 39.2778Z" fill="url(#paint27_linear_318_49499)"/>
<path d="M55.9997 31.9433C50.6946 42.903 41.3231 46.6447 41.3231 46.6447C38.7332 44.9088 36.5101 39.2468 37.395 38.1405C37.4391 38.0861 37.4935 38.0417 37.5547 38.0101C48.9722 32.3211 52.3867 26.4208 52.3867 26.4208C53.0164 26.4556 53.6243 26.6733 54.1415 27.0492C54.6587 27.4251 55.0646 27.9442 55.3134 28.548C55.7735 29.6153 56.0076 30.7733 55.9997 31.9433Z" fill="url(#paint28_linear_318_49499)"/>
<path style="mix-blend-mode:multiply" opacity="0.5" d="M10.8708 34.2859C11.882 33.1848 13.0846 32.2936 14.4148 31.6595C16.7587 30.4903 18.917 29.5728 19.2494 28.6329C19.5818 27.693 12.8133 28.2462 12.8133 28.2462L9.44629 29.7707C9.44629 29.7707 9.97292 32.6175 10.8708 34.2859Z" fill="url(#paint29_linear_318_49499)"/>
<path d="M52.4032 26.4157C51.4492 26.681 51.5399 33.2514 52.7615 33.908C53.9831 34.5646 55.999 31.9428 55.999 31.9428C55.999 31.9428 55.7745 25.4803 52.4032 26.4157Z" fill="url(#paint30_linear_318_49499)"/>
<path d="M34.3759 14.6604C35.2738 16.3109 41.2307 14.8448 41.5674 13.8644C41.9991 12.5557 40.3545 8.4318 37.2076 8.80956C34.0608 9.18733 33.9399 13.8599 34.3759 14.6604Z" fill="url(#paint31_linear_318_49499)"/>
<path d="M25.0698 14.6604C24.1677 16.3109 18.2107 14.8448 17.874 13.8644C17.4423 12.5557 19.0913 8.4318 22.2381 8.80956C25.385 9.18733 25.5058 13.8599 25.0698 14.6604Z" fill="url(#paint32_linear_318_49499)"/>
<path d="M23.4048 17.7051C23.4048 17.7051 25.1055 19.531 29.9186 19.531C34.7317 19.531 37.2051 17.4263 37.2051 17.4263C37.2051 17.4263 35.0813 20.4214 29.9186 20.4214C24.7559 20.4214 23.4048 17.7051 23.4048 17.7051Z" fill="#2F95CD"/>
<path d="M8.11011 12.0969C8.11011 12.0969 9.83678 13.2662 8.71013 15.978C8.71013 15.978 0.551666 20.6056 1.02218 25.6515C1.41931 29.8564 12.6771 27.8192 12.6771 27.8192L13.0786 29.2268C13.0786 29.2268 3.5172 31.1786 0.223602 28.831C0.223602 28.831 -0.898727 26.0518 1.88551 21.0419C3.68442 17.862 5.76861 14.867 8.11011 12.0969Z" fill="url(#paint33_linear_318_49499)"/>
<path style="mix-blend-mode:screen" opacity="0.5" d="M16.9392 9.20488C16.6284 11.1477 20.7724 11.0622 26.4359 10.8688C33.2216 10.635 40.0419 16.7152 44.0089 12.3529C44.6651 11.6334 38.1685 2.18025 30.3208 2.39161C22.4732 2.60298 17.2069 7.51843 16.9392 9.20488Z" fill="url(#paint34_linear_318_49499)"/>
<path style="mix-blend-mode:screen" opacity="0.5" d="M20.782 26.119C20.4237 27.5222 23.2511 28.9298 30.2009 28.579C38.6011 28.1293 40.3839 26.3304 39.9695 25.8087C39.7235 25.5029 37.2069 27.1579 30.3045 25.5794C25.7505 24.5225 21.1619 24.635 20.782 26.119Z" fill="url(#paint35_linear_318_49499)"/>
<path style="mix-blend-mode:multiply" opacity="0.3" d="M48.8327 17.2867L48.6304 16.6481C48.6691 16.7695 48.7466 16.9899 48.8327 17.2867Z" fill="url(#paint36_linear_318_49499)"/>
<path style="mix-blend-mode:multiply" opacity="0.3" d="M41.1131 62.2405C40.2929 67.2999 35.9331 70.6683 29.7171 70.6683C24.2911 70.6683 19.6982 68.5636 18.4939 63.9225C17.2895 59.2813 17.7514 50.7142 19.3572 45.376C19.5906 44.5904 19.8792 43.8239 20.2205 43.0824C20.2205 43.0824 16.9399 54.4154 19.5601 61.6334C22.1803 68.8514 34.405 68.6985 38.5533 63.9045C42.4901 59.3398 40.6728 48.614 40.4872 47.5931C41.6128 52.386 41.8254 57.3623 41.1131 62.2405Z" fill="url(#paint37_linear_318_49499)"/>
<path d="M18.7224 59.2406C19.6505 52.4543 24.8737 47.8537 30.6795 48.4473C36.9344 49.0634 40.297 55.2831 40.2064 60.6213C40.1157 65.9595 36.3732 70.1284 29.6608 70.1284C22.9484 70.1284 17.8548 65.5862 18.7224 59.2406Z" fill="url(#paint38_linear_318_49499)"/>
<path d="M18.7847 59.8028C19.7085 53.0165 24.936 48.4158 30.7375 49.0095C36.9967 49.6256 40.3593 55.8452 40.2687 61.1834C40.178 66.5216 36.4355 70.6905 29.7188 70.6905C23.0021 70.6905 17.9214 66.1483 18.7847 59.8028Z" fill="url(#paint39_radial_318_49499)"/>
<path style="mix-blend-mode:multiply" opacity="0.5" d="M37.2085 39.6828C35.8833 41.8505 28.5753 43.1142 24.3536 42.7139C20.6758 42.3631 21.2326 41.3288 21.2628 41.1984C23.2399 38.0953 26.1363 36.0671 29.4127 36.0671C30.8884 36.028 32.3539 36.3323 33.7025 36.9578C35.0511 37.5833 36.2488 38.5142 37.2085 39.6828Z" fill="url(#paint40_linear_318_49499)"/>
<path d="M34.6096 43.4419C34.2729 43.5588 34.2557 46.41 34.6096 46.8732C34.9636 47.3365 35.5377 47.188 35.7276 46.518C35.9176 45.8479 35.1233 43.2665 34.6096 43.4419Z" fill="white"/>
<path d="M35.2404 47.6337C34.9555 47.7011 34.9253 48.4117 35.0548 48.659C35.1024 48.7124 35.1618 48.753 35.2279 48.7771C35.2939 48.8013 35.3646 48.8084 35.4338 48.7978C35.5031 48.7871 35.5688 48.7591 35.6253 48.7162C35.6819 48.6732 35.7276 48.6165 35.7584 48.5511C35.8361 48.2498 35.5253 47.5617 35.2404 47.6337Z" fill="white"/>
<path style="mix-blend-mode:screen" opacity="0.72" d="M22.4551 66.7152C22.4551 66.7152 23.953 69.436 29.5387 69.4585C35.1244 69.481 37.3907 66.0137 37.3907 66.0137C36.4442 66.5574 35.4034 66.8994 34.3288 67.0199C33.2542 67.1403 32.1673 67.0368 31.1315 66.7152C27.4494 65.6629 23.8062 65.0737 22.4551 66.7152Z" fill="url(#paint41_linear_318_49499)"/>
<path d="M34.1923 1.52345C33.5966 1.67186 38.6039 4.42865 38.8068 4.10035C39.0096 3.77206 35.8455 1.13669 34.1923 1.52345Z" fill="white"/>
<path d="M43.7831 3.58806C43.2823 3.86689 43.3255 4.42904 44.3572 4.28963C45.3889 4.15022 45.95 3.30474 45.8378 3.14284C45.7256 2.98094 44.3442 3.27326 43.7831 3.58806Z" fill="white"/>
<path style="mix-blend-mode:multiply" opacity="0.3" d="M55.9997 31.9432C50.6946 42.9029 41.3231 46.6446 41.3231 46.6446C38.7332 44.9087 36.5101 39.2467 37.395 38.1404C37.4468 38.0954 37.4986 38.0504 37.5547 38.0099C37.6108 37.9695 39.2253 44.4005 44.1203 42.6286C49.9219 40.5239 52.3004 30.0364 52.3004 30.0364V26.9558L55.322 28.5703C55.7761 29.6314 56.0072 30.7814 55.9997 31.9432Z" fill="url(#paint42_linear_318_49499)"/>
<path d="M52.0631 28.2688C52.0631 28.2688 52.0199 31.7362 53.9063 32.3163C55.7927 32.8964 58.1539 29.2042 59.0301 27.6797C59.9064 26.1551 61.2316 19.2969 59.9755 17.6599C58.7193 16.0229 56.2891 16.4412 54.6703 18.7347C54.6703 18.7168 52.1537 25.3187 52.0631 28.2688Z" fill="url(#paint43_linear_318_49499)"/>
<path d="M52.1667 27.243C52.1667 27.243 54.3553 25.5071 54.8517 22.8403C55.3481 20.1734 57.9985 16.6521 57.9985 16.6521C57.9985 16.6521 56.6043 16.5172 54.6704 18.7163C52.7365 20.9155 52.1667 27.243 52.1667 27.243Z" fill="url(#paint44_linear_318_49499)"/>
<path style="mix-blend-mode:multiply" opacity="0.5" d="M54.3228 19.1755L55.9977 19.8321C55.5512 20.6314 55.2003 21.4847 54.9531 22.373C54.6081 23.4171 54.1242 24.4056 53.5156 25.3097L54.3228 19.1755Z" fill="url(#paint45_linear_318_49499)"/>
<path d="M52.1672 26.5866C51.73 25.3575 51.5078 24.0567 51.511 22.746C51.4333 20.214 52.0118 18.2488 52.2794 17.8755C52.547 17.5022 53.4924 17.5697 53.9413 18.1318C54.3902 18.694 54.714 21.4733 54.714 21.4733C54.714 21.4733 54.1096 25.975 52.1672 26.5866Z" fill="url(#paint46_linear_318_49499)"/>
<path d="M54.8486 22.8407C54.8486 22.8407 55.971 26.6993 58.6775 28.2374L59.0271 27.6527C57.1237 26.4326 55.684 24.5641 54.9522 22.364L54.8486 22.8407Z" fill="url(#paint47_linear_318_49499)"/>
<path d="M52.8856 19.7651C52.6136 19.7336 52.7043 22.2251 53.041 22.1172C53.3777 22.0092 53.2525 19.8146 52.8856 19.7651Z" fill="white"/>
<path style="mix-blend-mode:screen" opacity="0.2" d="M13.175 22.387C13.0015 20.7988 13.0204 19.1942 13.2311 17.6109C13.5721 14.8721 14.28 13.1137 14.6987 13.3476C15.1175 13.5814 15.057 16.2798 15.3031 18.9241C15.4973 20.9793 15.8772 22.9131 15.8772 22.9131C15.8772 22.9131 14.0383 24.721 13.175 22.387Z" fill="url(#paint48_linear_318_49499)"/>
<path style="mix-blend-mode:screen" opacity="0.72" d="M21.0003 55.4947C22.101 57.3295 26.6378 56.3536 31.753 56.8753C36.8683 57.397 37.7402 59.1239 38.8194 58.7776C39.8985 58.4314 38.1935 50.4038 30.553 49.8597C22.9125 49.3155 20.724 55.0405 21.0003 55.4947Z" fill="url(#paint49_linear_318_49499)"/>
<path style="mix-blend-mode:screen" opacity="0.72" d="M49.4335 5.82749C49.4335 5.82749 48.4839 4.59975 47.1889 4.92805C45.8939 5.25634 45.8032 9.5062 46.5802 9.61414C47.3572 9.72207 47.6853 7.2576 48.281 6.87534C48.7923 6.63691 49.3581 6.55427 49.9127 6.63699L49.4335 5.82749Z" fill="url(#paint50_linear_318_49499)"/>
<path style="mix-blend-mode:screen" opacity="0.72" d="M9.35645 7.30755C9.57457 7.10699 9.83678 6.96555 10.1199 6.89574C10.403 6.82593 10.6982 6.8299 10.9795 6.9073C12.1061 7.09618 12.7536 9.50218 13.3278 9.25934C13.9019 9.01649 13.4788 5.1264 11.9594 3.97961C11.9594 3.97961 10.0039 5.72453 9.35645 7.30755Z" fill="url(#paint51_linear_318_49499)"/>
<path d="M7.83192 12.9731C7.83192 12.9731 3.8606 17.6233 4.11097 17.9561C4.36133 18.2888 8.07365 13.4543 7.83192 12.9731Z" fill="url(#paint52_linear_318_49499)"/>
<path d="M12.1764 27.9269C11.0886 29.0782 13.2081 30.1216 14.9866 30.4274C16.9852 30.7692 20.5982 30.5398 20.473 28.4216C20.3478 26.3035 14.7276 25.2286 12.1764 27.9269Z" fill="url(#paint53_linear_318_49499)"/>
<path d="M12.2995 28.1607C12.2175 28.5025 19.3831 28.9882 19.6378 27.6795C19.8925 26.3708 12.9082 25.5163 12.2995 28.1607Z" fill="url(#paint54_linear_318_49499)"/>
<defs>
<linearGradient id="paint0_linear_318_49499" x1="65.7015" y1="92.9999" x2="65.7015" y2="92.9741" gradientUnits="userSpaceOnUse">
<stop stop-color="#9D68C2"/>
<stop offset="1" stop-color="#CCEDFF"/>
</linearGradient>
<linearGradient id="paint1_linear_318_49499" x1="21.2768" y1="81.2821" x2="23.3263" y2="65.6211" gradientUnits="userSpaceOnUse">
<stop stop-color="#CBC1F7"/>
<stop offset="1" stop-color="#E8DCF7"/>
</linearGradient>
<linearGradient id="paint2_linear_318_49499" x1="34.8108" y1="83.4988" x2="37.4545" y2="63.2972" gradientUnits="userSpaceOnUse">
<stop stop-color="#CBC1F7"/>
<stop offset="1" stop-color="#E8DCF7"/>
</linearGradient>
<linearGradient id="paint3_linear_318_49499" x1="22.8282" y1="71.1092" x2="22.8282" y2="64.9255" gradientUnits="userSpaceOnUse">
<stop stop-color="#BE9DEA"/>
<stop offset="1" stop-color="#9E8CEF"/>
</linearGradient>
<linearGradient id="paint4_linear_318_49499" x1="36.6295" y1="71.2533" x2="36.6295" y2="63.9003" gradientUnits="userSpaceOnUse">
<stop stop-color="#BE9DEA"/>
<stop offset="1" stop-color="#9E8CEF"/>
</linearGradient>
<linearGradient id="paint5_linear_318_49499" x1="22.8481" y1="81.4889" x2="22.8481" y2="64.9797" gradientUnits="userSpaceOnUse">
<stop stop-color="#9D68C2"/>
<stop offset="1" stop-color="#CCEDFF"/>
</linearGradient>
<linearGradient id="paint6_linear_318_49499" x1="36.6573" y1="83.0221" x2="36.6573" y2="63.8415" gradientUnits="userSpaceOnUse">
<stop stop-color="#9D68C2"/>
<stop offset="1" stop-color="#CCEDFF"/>
</linearGradient>
<linearGradient id="paint7_linear_318_49499" x1="12.2999" y1="66.994" x2="15.8327" y2="39.9926" gradientUnits="userSpaceOnUse">
<stop stop-color="#CBC1F7"/>
<stop offset="1" stop-color="#E8DCF7"/>
</linearGradient>
<linearGradient id="paint8_linear_318_49499" x1="10.3905" y1="66.738" x2="10.3905" y2="62.4386" gradientUnits="userSpaceOnUse">
<stop stop-color="#BE9DEA"/>
<stop offset="1" stop-color="#9E8CEF"/>
</linearGradient>
<linearGradient id="paint9_linear_318_49499" x1="13.6318" y1="66.4814" x2="13.6318" y2="43.766" gradientUnits="userSpaceOnUse">
<stop stop-color="#9D68C2"/>
<stop offset="1" stop-color="#CCEDFF"/>
</linearGradient>
<linearGradient id="paint10_linear_318_49499" x1="9.40023" y1="78.4357" x2="11.3234" y2="63.7268" gradientUnits="userSpaceOnUse">
<stop stop-color="#CBC1F7"/>
<stop offset="1" stop-color="#E8DCF7"/>
</linearGradient>
<linearGradient id="paint11_linear_318_49499" x1="12.1869" y1="78.359" x2="12.1869" y2="65.1866" gradientUnits="userSpaceOnUse">
<stop stop-color="#BE9DEA"/>
<stop offset="1" stop-color="#9E8CEF"/>
</linearGradient>
<linearGradient id="paint12_linear_318_49499" x1="12.0309" y1="74.2796" x2="12.0309" y2="69.1887" gradientUnits="userSpaceOnUse">
<stop stop-color="#8DA4E5"/>
<stop offset="1" stop-color="#755CBB"/>
</linearGradient>
<linearGradient id="paint13_linear_318_49499" x1="12.3579" y1="74.0408" x2="13.4809" y2="65.449" gradientUnits="userSpaceOnUse">
<stop stop-color="#CBC1F7"/>
<stop offset="1" stop-color="#E8DCF7"/>
</linearGradient>
<linearGradient id="paint14_linear_318_49499" x1="14.4176" y1="17.9886" x2="14.4176" y2="2.39233" gradientUnits="userSpaceOnUse">
<stop stop-color="#B9ACF4"/>
<stop offset="1" stop-color="#E1D1F5"/>
</linearGradient>
<linearGradient id="paint15_linear_318_49499" x1="13.3443" y1="12.0973" x2="13.3443" y2="2.39233" gradientUnits="userSpaceOnUse">
<stop stop-color="#BE9DEA"/>
<stop offset="1" stop-color="#9E8CEF"/>
</linearGradient>
<linearGradient id="paint16_linear_318_49499" x1="45.289" y1="17.9886" x2="45.289" y2="2.39233" gradientUnits="userSpaceOnUse">
<stop stop-color="#B9ACF4"/>
<stop offset="1" stop-color="#E1D1F5"/>
</linearGradient>
<linearGradient id="paint17_linear_318_49499" x1="46.377" y1="10.8687" x2="46.377" y2="2.39149" gradientUnits="userSpaceOnUse">
<stop stop-color="#BE9DEA"/>
<stop offset="1" stop-color="#9E8CEF"/>
</linearGradient>
<linearGradient id="paint18_linear_318_49499" x1="48.4007" y1="18.7346" x2="48.4007" y2="3.4126" gradientUnits="userSpaceOnUse">
<stop stop-color="#45FFCD"/>
<stop offset="1" stop-color="#22E0FF"/>
</linearGradient>
<linearGradient id="paint19_linear_318_49499" x1="11.3047" y1="18.7346" x2="11.3047" y2="3.4126" gradientUnits="userSpaceOnUse">
<stop stop-color="#45FFCD"/>
<stop offset="1" stop-color="#22E0FF"/>
</linearGradient>
<linearGradient id="paint20_linear_318_49499" x1="28.2369" y1="40.1053" x2="33.398" y2="0.685616" gradientUnits="userSpaceOnUse">
<stop stop-color="#CBC1F7"/>
<stop offset="1" stop-color="#E8DCF7"/>
</linearGradient>
<linearGradient id="paint21_linear_318_49499" x1="29.793" y1="29.2851" x2="29.793" y2="1.66327" gradientUnits="userSpaceOnUse">
<stop stop-color="#0665BD"/>
<stop offset="1" stop-color="#1A1F77"/>
</linearGradient>
<linearGradient id="paint22_linear_318_49499" x1="29.9204" y1="39.7411" x2="29.9204" y2="16.2117" gradientUnits="userSpaceOnUse">
<stop stop-color="#9D68C2"/>
<stop offset="1" stop-color="#CCEDFF"/>
</linearGradient>
<linearGradient id="paint23_linear_318_49499" x1="14.7003" y1="36.6825" x2="44.1312" y2="36.6825" gradientUnits="userSpaceOnUse">
<stop stop-color="#8879EA"/>
<stop offset="1" stop-color="#9E8CEF"/>
</linearGradient>
<linearGradient id="paint24_linear_318_49499" x1="29.3726" y1="38.045" x2="29.3726" y2="33.6287" gradientUnits="userSpaceOnUse">
<stop stop-color="#8DA4E5"/>
<stop offset="1" stop-color="#755CBB"/>
</linearGradient>
<linearGradient id="paint25_linear_318_49499" x1="29.298" y1="37.4205" x2="29.8923" y2="32.8483" gradientUnits="userSpaceOnUse">
<stop stop-color="#5E36CC"/>
<stop offset="1" stop-color="#6C4A96"/>
</linearGradient>
<linearGradient id="paint26_linear_318_49499" x1="27.9862" y1="70.61" x2="32.4688" y2="36.3643" gradientUnits="userSpaceOnUse">
<stop stop-color="#CBC1F7"/>
<stop offset="1" stop-color="#E8DCF7"/>
</linearGradient>
<linearGradient id="paint27_linear_318_49499" x1="36.8567" y1="44.1078" x2="40.7762" y2="44.1078" gradientUnits="userSpaceOnUse">
<stop stop-color="#8879EA"/>
<stop offset="1" stop-color="#9E8CEF"/>
</linearGradient>
<linearGradient id="paint28_linear_318_49499" x1="45.1822" y1="47.1484" x2="47.971" y2="25.8284" gradientUnits="userSpaceOnUse">
<stop stop-color="#CBC1F7"/>
<stop offset="1" stop-color="#E8DCF7"/>
</linearGradient>
<linearGradient id="paint29_linear_318_49499" x1="14.3543" y1="34.2859" x2="14.3543" y2="28.0843" gradientUnits="userSpaceOnUse">
<stop stop-color="#8DA4E5"/>
<stop offset="1" stop-color="#755CBB"/>
</linearGradient>
<linearGradient id="paint30_linear_318_49499" x1="53.8795" y1="34.0115" x2="53.8795" y2="26.3212" gradientUnits="userSpaceOnUse">
<stop stop-color="#BE9DEA"/>
<stop offset="1" stop-color="#9E8CEF"/>
</linearGradient>
<linearGradient id="paint31_linear_318_49499" x1="37.9155" y1="15.407" x2="37.9155" y2="8.78258" gradientUnits="userSpaceOnUse">
<stop stop-color="#45FFCD"/>
<stop offset="1" stop-color="#22E0FF"/>
</linearGradient>
<linearGradient id="paint32_linear_318_49499" x1="21.5259" y1="15.407" x2="21.5259" y2="8.78258" gradientUnits="userSpaceOnUse">
<stop stop-color="#45FFCD"/>
<stop offset="1" stop-color="#22E0FF"/>
</linearGradient>
<linearGradient id="paint33_linear_318_49499" x1="6.27122" y1="30.2342" x2="8.63418" y2="12.1658" gradientUnits="userSpaceOnUse">
<stop stop-color="#BE9DEA"/>
<stop offset="1" stop-color="#9E8CEF"/>
</linearGradient>
<linearGradient id="paint34_linear_318_49499" x1="16.922" y1="8.16153" x2="44.0435" y2="8.16153" gradientUnits="userSpaceOnUse">
<stop/>
<stop offset="1" stop-color="#6A9BFF"/>
</linearGradient>
<linearGradient id="paint35_linear_318_49499" x1="20.7518" y1="26.7576" x2="40.0256" y2="26.7576" gradientUnits="userSpaceOnUse">
<stop/>
<stop offset="1" stop-color="#6A9BFF"/>
</linearGradient>
<linearGradient id="paint36_linear_318_49499" x1="48.7337" y1="17.2867" x2="48.7337" y2="16.6481" gradientUnits="userSpaceOnUse">
<stop stop-color="#9D68C2"/>
<stop offset="1" stop-color="#CCEDFF"/>
</linearGradient>
<linearGradient id="paint37_linear_318_49499" x1="29.6697" y1="70.6683" x2="29.6697" y2="43.0779" gradientUnits="userSpaceOnUse">
<stop stop-color="#9D68C2"/>
<stop offset="1" stop-color="#CCEDFF"/>
</linearGradient>
<linearGradient id="paint38_linear_318_49499" x1="29.4191" y1="70.1059" x2="29.4191" y2="48.3754" gradientUnits="userSpaceOnUse">
<stop stop-color="#BE9DEA"/>
<stop offset="1" stop-color="#9E8CEF"/>
</linearGradient>
<radialGradient id="paint39_radial_318_49499" cx="0" cy="0" r="1" gradientUnits="userSpaceOnUse" gradientTransform="translate(29.8353 67.2951) scale(15.9155 16.5812)">
<stop stop-color="#45FFCD"/>
<stop offset="1" stop-color="#22E0FF"/>
</radialGradient>
<linearGradient id="paint40_linear_318_49499" x1="29.2141" y1="42.7859" x2="29.2141" y2="36.0626" gradientUnits="userSpaceOnUse">
<stop stop-color="#8DA4E5"/>
<stop offset="1" stop-color="#755CBB"/>
</linearGradient>
<linearGradient id="paint41_linear_318_49499" x1="29.9229" y1="69.4585" x2="29.9229" y2="65.6944" gradientUnits="userSpaceOnUse">
<stop stop-color="#D4E2FF"/>
<stop offset="1"/>
</linearGradient>
<linearGradient id="paint42_linear_318_49499" x1="46.6024" y1="46.6446" x2="46.6024" y2="26.9288" gradientUnits="userSpaceOnUse">
<stop stop-color="#9D68C2"/>
<stop offset="1" stop-color="#CCEDFF"/>
</linearGradient>
<linearGradient id="paint43_linear_318_49499" x1="55.3221" y1="32.5007" x2="57.409" y2="16.5523" gradientUnits="userSpaceOnUse">
<stop stop-color="#CBC1F7"/>
<stop offset="1" stop-color="#E8DCF7"/>
</linearGradient>
<linearGradient id="paint44_linear_318_49499" x1="55.0805" y1="27.243" x2="55.0805" y2="16.6476" gradientUnits="userSpaceOnUse">
<stop stop-color="#BE9DEA"/>
<stop offset="1" stop-color="#9E8CEF"/>
</linearGradient>
<linearGradient id="paint45_linear_318_49499" x1="54.7545" y1="25.3097" x2="54.7545" y2="19.1755" gradientUnits="userSpaceOnUse">
<stop stop-color="#8DA4E5"/>
<stop offset="1" stop-color="#755CBB"/>
</linearGradient>
<linearGradient id="paint46_linear_318_49499" x1="52.4823" y1="26.6271" x2="53.6474" y2="17.7389" gradientUnits="userSpaceOnUse">
<stop stop-color="#CBC1F7"/>
<stop offset="1" stop-color="#E8DCF7"/>
</linearGradient>
<linearGradient id="paint47_linear_318_49499" x1="56.9379" y1="28.2464" x2="56.9379" y2="22.373" gradientUnits="userSpaceOnUse">
<stop stop-color="#BE9DEA"/>
<stop offset="1" stop-color="#9E8CEF"/>
</linearGradient>
<linearGradient id="paint48_linear_318_49499" x1="14.3032" y1="23.5673" x2="15.0326" y2="13.3507" gradientUnits="userSpaceOnUse">
<stop/>
<stop offset="1" stop-color="#00E3FF"/>
</linearGradient>
<linearGradient id="paint49_linear_318_49499" x1="20.9744" y1="54.3209" x2="39.1129" y2="54.3209" gradientUnits="userSpaceOnUse">
<stop/>
<stop offset="1" stop-color="#D4E2FF"/>
</linearGradient>
<linearGradient id="paint50_linear_318_49499" x1="46.0622" y1="7.24411" x2="49.8911" y2="7.24411" gradientUnits="userSpaceOnUse">
<stop/>
<stop offset="1" stop-color="#D4E2FF"/>
</linearGradient>
<linearGradient id="paint51_linear_318_49499" x1="9.35645" y1="6.62847" x2="13.5738" y2="6.62847" gradientUnits="userSpaceOnUse">
<stop stop-color="#D4E2FF"/>
<stop offset="1"/>
</linearGradient>
<linearGradient id="paint52_linear_318_49499" x1="5.78168" y1="18.1384" x2="5.88719" y2="13.0747" gradientUnits="userSpaceOnUse">
<stop stop-color="#CBC1F7"/>
<stop offset="1" stop-color="#E8DCF7"/>
</linearGradient>
<linearGradient id="paint53_linear_318_49499" x1="15.5947" y1="30.6754" x2="16.9751" y2="26.1622" gradientUnits="userSpaceOnUse">
<stop stop-color="#1A2EDD"/>
<stop offset="1" stop-color="#3EAEFF"/>
</linearGradient>
<linearGradient id="paint54_linear_318_49499" x1="16.5458" y1="28.0759" x2="16.6585" y2="25.9132" gradientUnits="userSpaceOnUse">
<stop stop-color="#256BFF"/>
<stop offset="1" stop-color="#102552"/>
</linearGradient>
</defs>
</svg>
