<svg width="127" height="187" viewBox="0 0 127 187" fill="none" xmlns="http://www.w3.org/2000/svg">
<path d="M32.1894 14.3546C33.0562 16.9633 24.6025 22.5395 21.6441 20.3856C18.6857 18.2317 20.4194 11.6104 23.0915 10.2702C25.7636 8.92996 30.9408 10.5733 32.1894 14.3546Z" fill="#E5F6FF"/>
<path style="mix-blend-mode:multiply" opacity="0.3" d="M126.453 185.99C126.465 186.007 126.481 186.021 126.5 186.029C126.49 186.026 126.481 186.021 126.472 186.014C126.464 186.008 126.458 185.999 126.453 185.99Z" fill="url(#paint0_linear_444_84114)"/>
<path style="mix-blend-mode:multiply" opacity="0.5" d="M63.0937 183.995C81.0049 183.995 95.5248 180.752 95.5248 176.752C95.5248 172.751 81.0049 169.508 63.0937 169.508C45.1825 169.508 30.6626 172.751 30.6626 176.752C30.6626 180.752 45.1825 183.995 63.0937 183.995Z" fill="url(#paint1_radial_444_84114)"/>
<path d="M89.0111 137.694C89.0111 138.205 88.9395 138.747 88.9077 139.29C88.3033 147.754 86.7526 160.231 84.5338 164.874C84.0089 165.982 83.4363 166.645 82.8398 166.7C82.6739 166.716 82.5066 166.7 82.3468 166.653C81.6372 166.428 81.0002 166.018 80.5017 165.464C76.4459 161.475 71.3561 148.751 70.9585 144.89C70.8898 144.559 70.9202 144.215 71.046 143.901C73.0182 140.821 88.0329 129.797 88.9793 130.937C89.2258 131.249 89.2258 133.969 89.0111 137.694Z" fill="url(#paint2_linear_444_84114)"/>
<path d="M70.9585 144.89C70.5609 146.094 86.9594 142.353 88.9793 130.945C88.183 130.655 87.3103 130.655 86.514 130.945C82.2752 132.245 73.7738 136.482 70.9585 144.89Z" fill="url(#paint3_linear_444_84114)"/>
<path style="mix-blend-mode:multiply" opacity="0.3" d="M89.0111 137.694C89.0111 137.694 80.112 140.957 78.2909 145.401C76.4697 149.844 77.8932 160.023 80.5017 165.464C76.4459 161.475 71.3561 148.751 70.9585 144.89C70.8898 144.559 70.9202 144.215 71.046 143.901C73.0182 140.821 88.0329 129.797 88.9793 130.937C89.2258 131.249 89.2258 133.969 89.0111 137.694Z" fill="url(#paint4_linear_444_84114)"/>
<path d="M79.6907 158.699C80.3747 158.874 81.0347 161.467 79.9214 161.818C78.808 162.169 78.1002 158.276 79.6907 158.699Z" fill="white"/>
<path d="M42.2255 137.694C42.2255 138.205 42.2891 138.747 42.3289 139.29C42.9253 147.754 44.4761 160.231 46.6949 164.874C47.2198 165.982 47.7924 166.645 48.3968 166.7C48.56 166.715 48.7247 166.699 48.8819 166.653C49.5939 166.429 50.2335 166.018 50.7349 165.464C54.7908 161.475 59.8805 148.751 60.2781 144.89C60.3444 144.559 60.3168 144.217 60.1986 143.901C58.2184 140.821 43.2037 129.797 42.2573 130.937C42.0028 131.249 42.0028 133.969 42.2255 137.694Z" fill="url(#paint5_linear_444_84114)"/>
<path d="M60.2703 144.89C60.6759 146.094 44.2774 142.353 42.2495 130.945C42.2495 130.945 42.9016 130.467 44.4365 130.945C48.6991 132.269 57.4789 136.529 60.2703 144.89Z" fill="url(#paint6_linear_444_84114)"/>
<path style="mix-blend-mode:multiply" opacity="0.3" d="M42.2255 137.694C42.2255 137.694 51.1166 140.957 52.9378 145.401C54.7589 149.844 53.3354 160.023 50.7349 165.464C54.7908 161.475 59.8805 148.751 60.2781 144.89C60.3444 144.559 60.3168 144.217 60.1986 143.901C58.2184 140.821 43.2037 129.797 42.2573 130.937C42.0028 131.249 42.0028 133.969 42.2255 137.694Z" fill="url(#paint7_linear_444_84114)"/>
<path d="M52.405 153.649C51.7211 153.824 50.1942 161.451 51.3075 161.802C52.4209 162.153 53.9955 153.242 52.405 153.649Z" fill="white"/>
<path d="M46.0348 30.9399C46.0348 30.9399 41.0643 26.632 34.9726 25.8901C34.9726 25.8901 33.1116 26.7996 30.9565 33.5326C28.8013 40.2655 32.7776 53.548 32.7776 53.548L46.0348 30.9399Z" fill="url(#paint8_linear_444_84114)"/>
<path d="M32.6108 29.2407C33.1671 27.9707 33.9794 26.8299 34.9966 25.8901C34.9966 25.8901 40.0068 30.525 39.7683 41.5978L38.3288 43.0975L32.6108 29.2407Z" fill="url(#paint9_linear_444_84114)"/>
<path d="M87.198 30.9399C87.198 30.9399 92.1684 26.632 98.2602 25.8901C98.2602 25.8901 100.121 26.7996 102.276 33.5326C104.431 40.2655 100.487 53.548 100.487 53.548L87.198 30.9399Z" fill="url(#paint10_linear_444_84114)"/>
<path d="M98.2605 25.8899C95.0534 29.7767 93.3084 34.6695 93.3298 39.7148L95.2384 40.9194L100.805 29.4C100.805 29.4 98.9444 25.7862 98.2605 25.8899Z" fill="url(#paint11_linear_444_84114)"/>
<path d="M95.0551 40.3451C95.0551 40.3451 93.7429 33.0537 98.5305 27.6929C98.5305 27.6929 103.93 30.2457 106.165 39.7149C108.4 49.1842 102.586 54.8721 102.586 54.8721L95.0551 40.3451Z" fill="url(#paint12_linear_444_84114)"/>
<path d="M38.1777 40.3451C38.1777 40.3451 39.4899 33.0537 34.7024 27.6929C34.7024 27.6929 29.3025 30.2457 27.0678 39.7149C24.8331 49.1842 30.6465 54.8721 30.6465 54.8721L38.1777 40.3451Z" fill="url(#paint13_linear_444_84114)"/>
<path d="M101.696 80.6312C90.5621 96.2431 38.4322 95.0864 31.6406 82.4581C27.2109 74.2174 27.6643 61.8204 31.9587 50.4046C37.5256 35.4309 49.6853 22.1484 65.7577 22.1484C84.6771 22.1484 99.2147 41.055 103.589 58.3262C105.807 67.0696 105.426 75.3821 101.696 80.6312Z" fill="url(#paint14_linear_444_84114)"/>
<path d="M35.5295 66.1605C38.0187 76.7944 83.866 77.9511 95.1747 68.3144C106.483 58.6776 90.1486 24.4383 65.3362 25.9301C42.6074 27.3022 31.4656 48.7377 35.5295 66.1605Z" fill="#DFE3FB"/>
<path d="M35.275 64.8599C37.7642 75.4938 83.6115 76.6506 94.9202 67.0138C106.229 57.377 89.9577 23.1377 65.1215 24.6454C42.3688 26.0096 31.2271 47.4451 35.275 64.8599Z" fill="url(#paint15_linear_444_84114)"/>
<path style="mix-blend-mode:multiply" opacity="0.3" d="M101.696 80.6309C90.5621 96.2428 38.4322 95.0861 31.6406 82.4578C27.2109 74.217 27.6643 61.8201 31.9587 50.4043C31.7758 51.0744 27.4018 67.0692 31.8712 74.1054C36.4281 81.2851 54.4887 80.2959 73.8615 79.4662C93.2342 78.6365 99.66 75.8125 102.905 70.324C105.473 66.0162 102.905 56.4911 101.68 52.638L103.581 58.3259C105.807 67.0692 105.426 75.3817 101.696 80.6309Z" fill="url(#paint16_linear_444_84114)"/>
<path d="M87.1823 88.9915C80.2206 90.9414 73.04 91.9949 65.8133 92.1267C54.9738 92.1267 47.1563 90.8902 42.7505 89.1351C39.8796 87.9864 38.4879 86.6063 38.6947 85.1943C38.8219 84.3327 40.9453 83.5988 44.2615 82.9606C54.107 81.1736 74.4818 80.6312 85.4724 82.2985C86.4108 82.442 87.2936 82.6016 88.0889 82.7771L88.574 82.8968H88.6694C90.5621 83.3595 91.9062 83.9338 92.5026 84.6279C92.6406 84.7864 92.7461 84.9708 92.8128 85.1703C93.2661 86.5345 90.8564 87.8587 87.1823 88.9915Z" fill="url(#paint17_linear_444_84114)"/>
<path style="mix-blend-mode:multiply" opacity="0.5" d="M87.1824 88.992C84.7966 87.931 69.5593 81.557 57.2246 84.3252C43.8084 87.3487 42.7825 89.1117 42.7825 89.1117C39.9116 87.963 38.5199 86.5828 38.7266 85.1708C38.8539 84.3093 40.9772 83.5753 44.2935 82.9371C54.139 81.1502 74.5138 80.6077 85.5044 82.275C86.6496 82.4824 87.6914 82.6819 88.606 82.8733H88.7014C90.5941 83.336 91.9381 83.9104 92.5346 84.6044C92.6726 84.763 92.778 84.9473 92.8447 85.1469C93.2662 86.535 90.8566 87.8592 87.1824 88.992Z" fill="url(#paint18_linear_444_84114)"/>
<path d="M88.1523 82.7851C85.5915 85.2422 73.2966 87.3642 66.2903 87.3562C53.725 87.3562 46.0984 85.3538 44.325 82.9606C55.0213 81.0221 78.1478 80.5195 88.1523 82.7851Z" fill="url(#paint19_linear_444_84114)"/>
<path style="mix-blend-mode:multiply" opacity="0.5" d="M31.6406 82.4583C33.501 80.5076 35.714 78.9293 38.1618 77.8074C42.4881 75.7253 46.4565 74.1059 47.0768 72.4306C47.6971 70.7554 35.2194 71.7525 35.2194 71.7525L29.0083 74.4489C29.0083 74.4489 29.9865 79.4747 31.6406 82.4583Z" fill="url(#paint20_linear_444_84114)"/>
<path d="M75.5795 49.0883C77.2337 52.0161 87.2382 52.6702 89.3377 49.0883C90.5942 46.9663 85.9658 36.6036 80.1682 37.2657C74.3707 37.9278 74.7763 47.6683 75.5795 49.0883Z" fill="url(#paint21_linear_444_84114)"/>
<path d="M57.5979 48.9767C55.9437 51.8964 44.3248 52.7261 43.8715 49.6069C43.1399 44.5891 46.7902 36.6036 52.5797 37.2658C58.3693 37.9279 58.4011 47.5567 57.5979 48.9767Z" fill="url(#paint22_linear_444_84114)"/>
<path d="M58.8069 54.7125C58.8069 54.7125 60.9382 55.2948 66.9664 55.2948C72.9945 55.2948 76.104 54.3774 76.104 54.3774C76.104 54.3774 73.4399 57.9912 66.9664 57.9912C60.4929 57.9912 58.8069 54.7125 58.8069 54.7125Z" fill="#2F95CD"/>
<path d="M26.5272 43.0972C26.5272 43.0972 29.7082 45.1793 27.6405 49.9897C27.6405 49.9897 12.6099 58.1985 13.4768 67.1413C14.2084 74.6082 34.9491 70.9944 34.9491 70.9944L35.6966 73.4833C35.6966 73.4833 18.0575 76.9456 11.9737 72.7893C11.9737 72.7893 9.90602 67.8592 15.0355 58.9644C18.3586 53.3236 22.2063 48.0108 26.5272 43.0972Z" fill="url(#paint23_linear_444_84114)"/>
<path d="M32.3644 70.3001C30.4716 72.4461 34.4877 74.7994 37.7881 75.1584C41.4941 75.5652 48.0709 74.0894 47.6733 70.3719C47.2757 66.6544 36.802 65.2663 32.3644 70.3001Z" fill="url(#paint24_linear_444_84114)"/>
<path style="mix-blend-mode:screen" opacity="0.5" d="M42.8222 37.976C42.2496 41.4143 49.8842 41.2707 60.3181 40.9197C72.8198 40.5049 85.385 51.2904 92.6936 43.5602C93.9024 42.2759 81.9256 25.5072 67.4756 25.8822C53.0255 26.2571 43.3153 34.9845 42.8222 37.976Z" fill="url(#paint25_linear_444_84114)"/>
<path style="mix-blend-mode:screen" opacity="0.5" d="M49.9079 67.9712C49.2478 70.4682 54.4569 72.9651 67.2528 72.3349C82.7367 71.5771 86.0211 68.3462 85.2577 67.4208C84.8044 66.8783 80.1679 69.814 67.4516 67.0139C59.0615 65.1711 50.5998 65.3626 49.9079 67.9712Z" fill="url(#paint26_linear_444_84114)"/>
<path d="M74.6092 24.3502C73.5117 24.6055 82.7368 29.5036 83.1027 28.9213C83.4685 28.3389 77.6551 23.6402 74.6092 24.3502Z" fill="white"/>
<path d="M92.2795 28.0116C91.357 28.5062 91.4286 29.5034 93.3373 29.2481C95.2459 28.9929 96.2718 27.5091 96.065 27.2139C95.8583 26.9187 93.3293 27.4532 92.2795 28.0116Z" fill="white"/>
<path d="M79.4519 140.223L85.3289 122.13C86.0918 118.838 86.3148 115.443 85.989 112.078C85.8357 110.656 85.4933 109.261 84.9711 107.93C83.7794 105.293 82.8266 102.554 82.124 99.7452C81.2015 95.9001 80.8834 91.672 82.9193 89.3745C82.9193 89.3745 93.7111 100.91 97.2819 112.589C97.5814 113.523 97.8258 114.474 98.0135 115.437C101.203 131.575 87.675 139.617 79.4519 140.223Z" fill="url(#paint27_linear_444_84114)"/>
<path d="M82.9431 89.3745C82.9431 89.3745 88.9792 99.6654 86.4343 110.834C84.8925 107.315 83.5647 103.705 82.458 100.024C80.9788 94.7035 81.1378 90.7706 82.9431 89.3745Z" fill="url(#paint28_linear_444_84114)"/>
<path style="mix-blend-mode:multiply" opacity="0.3" d="M79.4519 140.223L85.3289 122.13C86.0918 118.838 86.3148 115.443 85.989 112.079L86.8956 110.013C86.8956 110.013 87.2694 122.45 91.1344 125.768C95.906 129.869 98.6656 120.328 97.3057 112.589C97.6053 113.523 97.8496 114.474 98.0374 115.437C101.203 131.576 87.675 139.617 79.4519 140.223Z" fill="url(#paint29_linear_444_84114)"/>
<path d="M88.4067 106.271C87.8898 106.271 87.7944 108.919 87.9455 110.012C88.0019 110.443 88.1523 110.857 88.3859 111.224C88.6196 111.591 88.9307 111.901 89.2974 112.134C89.5996 112.166 89.5917 106.271 88.4067 106.271Z" fill="white"/>
<path d="M51.9453 140.223L46.0683 122.13C45.3054 118.838 45.0824 115.443 45.4082 112.078C45.5615 110.656 45.9039 109.261 46.4261 107.93C47.6178 105.293 48.5707 102.554 49.2732 99.7452C50.1957 95.9001 50.5138 91.672 48.4779 89.3745C48.4779 89.3745 37.6861 100.91 34.1154 112.589C33.8158 113.523 33.5715 114.474 33.3837 115.437C30.1947 131.575 43.7222 139.617 51.9453 140.223Z" fill="url(#paint30_linear_444_84114)"/>
<path d="M48.4541 89.3745C48.4541 89.3745 42.418 99.6654 44.9629 110.834C46.5047 107.315 47.8326 103.705 48.9392 100.024C50.4184 94.7035 50.2594 90.7706 48.4541 89.3745Z" fill="url(#paint31_linear_444_84114)"/>
<path style="mix-blend-mode:multiply" opacity="0.3" d="M51.9453 140.223L46.0683 122.13C45.3054 118.838 45.0824 115.443 45.4082 112.079L44.5016 110.013C44.5016 110.013 44.1278 122.45 40.2628 125.768C35.4912 129.869 32.7316 120.328 34.0915 112.589C33.7919 113.523 33.5476 114.474 33.3599 115.437C30.1947 131.576 43.7222 139.617 51.9453 140.223Z" fill="url(#paint32_linear_444_84114)"/>
<path d="M42.9907 106.271C43.5077 106.271 43.6031 108.919 43.452 110.012C43.3955 110.443 43.2452 110.857 43.0115 111.224C42.7779 111.591 42.4667 111.901 42.1 112.134C41.7978 112.166 41.8058 106.271 42.9907 106.271Z" fill="white"/>
<path d="M32.619 70.6995C32.4997 71.3058 45.725 71.4972 46.0352 69.104C46.3453 66.7107 33.4858 65.9609 32.619 70.6995Z" fill="url(#paint33_linear_444_84114)"/>
<path style="mix-blend-mode:screen" opacity="0.2" d="M35.8634 61.3732C35.5435 58.5536 35.5755 55.7049 35.9589 52.8932C36.5951 48.0349 37.8993 44.9157 38.6707 45.3385C39.4422 45.7613 39.3308 50.5398 39.7841 55.2226C40.142 58.8763 40.8418 62.2986 40.8418 62.2986C40.8418 62.2986 37.4938 65.4896 35.8634 61.3732Z" fill="url(#paint34_linear_444_84114)"/>
<path style="mix-blend-mode:screen" opacity="0.72" d="M102.65 31.985C102.65 31.985 100.901 29.8071 98.5147 30.3895C96.1289 30.9719 95.9619 38.5185 97.3934 38.702C98.8249 38.8855 99.4293 34.5298 100.519 33.8437C101.464 33.422 102.509 33.2781 103.533 33.4289L102.65 31.985Z" fill="url(#paint35_linear_444_84114)"/>
<path style="mix-blend-mode:screen" opacity="0.72" d="M28.8572 34.6014C29.2601 34.2475 29.7432 33.9977 30.2644 33.874C30.7856 33.7502 31.329 33.7562 31.8474 33.8914C33.9151 34.2344 35.108 38.4944 36.1737 38.0716C37.2393 37.6488 36.452 30.7323 33.6527 28.7061C33.6845 28.7061 30.0421 31.7933 28.8572 34.6014Z" fill="url(#paint36_linear_444_84114)"/>
<path d="M26.042 44.6211C26.042 44.6211 18.7256 52.8778 19.1709 53.4681C19.6163 54.0584 26.5271 45.5066 26.042 44.6211Z" fill="url(#paint37_linear_444_84114)"/>
<path d="M86.8166 129.039C85.3056 138.006 77.2733 143.981 65.8215 143.981C55.8329 143.981 47.3632 140.247 45.1444 132.015C42.9256 123.782 43.7766 108.585 46.735 99.1155C47.1686 97.7233 47.7001 96.3637 48.3255 95.047C48.8811 93.8957 49.5107 92.7818 50.2103 91.7124C53.8526 86.2079 59.1889 82.6101 65.225 82.6101C67.9364 82.549 70.6275 83.0935 73.1033 84.2042C75.5791 85.3149 77.7777 86.9639 79.5399 89.032C81.0531 90.8284 82.2596 92.8635 83.1106 95.055C84.1103 97.6364 84.934 100.283 85.5759 102.977C85.5727 103.003 85.5727 103.03 85.5759 103.056C87.6774 111.553 88.0989 120.38 86.8166 129.039Z" fill="url(#paint38_linear_444_84114)"/>
<path d="M45.5578 123.709C47.2677 111.671 56.8984 103.51 67.5868 104.563C79.1103 105.656 85.3054 116.697 85.1464 126.166C84.9873 135.636 78.0764 143.031 65.71 143.031C53.3435 143.031 43.9593 134.974 45.5578 123.709Z" fill="url(#paint39_linear_444_84114)"/>
<path d="M45.6692 124.706C47.379 112.668 57.0018 104.507 67.6981 105.561C79.2216 106.653 85.4167 117.694 85.2497 127.164C85.0827 136.633 78.1877 144.028 65.8213 144.028C53.4549 144.028 44.0707 135.971 45.6692 124.706Z" fill="url(#paint40_radial_444_84114)"/>
<path style="mix-blend-mode:multiply" opacity="0.5" d="M79.6193 89.0155C77.1778 92.8686 63.7139 95.1023 55.9361 94.3923C49.1604 93.7701 50.1943 91.9353 50.242 91.7039C53.8843 86.1995 59.2206 82.6016 65.2567 82.6016C67.9755 82.5324 70.6754 83.0722 73.16 84.1817C75.6445 85.2912 77.8512 86.9426 79.6193 89.0155Z" fill="url(#paint41_linear_444_84114)"/>
<path d="M74.8399 95.677C74.2116 95.8844 74.1798 100.95 74.8399 101.764C75.5 102.578 76.5418 102.33 76.8917 101.134C77.2416 99.937 75.7863 95.3739 74.8399 95.677Z" fill="white"/>
<path d="M75.9927 103.12C75.4678 103.239 75.4122 104.5 75.6508 104.939C75.7386 105.033 75.848 105.105 75.9696 105.148C76.0913 105.191 76.2215 105.203 76.3491 105.185C76.4766 105.166 76.5977 105.116 76.7019 105.04C76.8061 104.964 76.8902 104.863 76.947 104.747C77.0902 104.213 76.5176 102.992 75.9927 103.12Z" fill="white"/>
<path style="mix-blend-mode:screen" opacity="0.72" d="M49.7567 117.072C51.7846 120.319 60.1509 118.588 69.5669 119.513C78.9829 120.439 80.5973 123.502 82.5854 122.888C84.5736 122.274 81.4323 108.034 67.356 107.069C53.2797 106.103 49.2477 116.259 49.7567 117.072Z" fill="url(#paint42_linear_444_84114)"/>
<path d="M38.1218 109.007C37.0482 108.696 35.3861 113.467 35.4735 114.073C35.561 114.679 37.5015 112.82 37.9707 112.031C38.583 110.97 39.1795 109.31 38.1218 109.007Z" fill="white"/>
<g style="mix-blend-mode:hard-light" opacity="0.8">
<path d="M15.8066 3.74418C13.9457 5.37956 14.5342 75.6531 17.747 77.4719C20.9599 79.2908 113.975 79.3466 116.877 75.8366C119.78 72.3265 117.41 6.24911 115.541 3.37722C113.672 0.505329 19.0195 0.928134 15.8066 3.74418Z" fill="#2F95CD"/>
<path d="M15.8066 2.34059C13.9457 3.93608 14.5342 74.2495 17.747 76.0683C20.9599 77.8872 113.975 77.9431 116.877 74.433C119.78 70.9229 117.41 4.84552 115.541 1.97363C113.672 -0.89826 19.0195 -0.515342 15.8066 2.34059Z" fill="url(#paint43_radial_444_84114)"/>
<path d="M19.8818 60.0127C20.2884 60.1714 21.2758 60.4886 21.9728 60.4886C22.844 60.4886 23.8895 58.3473 24.7607 58.3473C25.6319 58.3473 26.5031 63.3437 27.7228 63.8195C29.6395 63.5816 30.3365 54.7784 30.685 53.1129C31.0335 51.4475 32.2532 43.2787 33.9956 42.8822C36.0866 42.4063 35.3896 53.1129 37.4805 54.3026C39.3972 55.393 40.4427 54.7784 40.9654 54.3026C41.4882 53.8267 42.0109 52.1612 42.8821 51.9233C43.7533 51.6854 44.2761 55.7301 45.3215 55.7301C47.064 55.4922 46.9385 52.2661 47.4125 50.9716C48.2837 49.0682 47.761 45.4994 48.9807 44.3097C51.0716 44.3097 50.2004 60.2507 51.7686 60.9644C52.9883 61.5196 53.8595 55.4922 54.7307 55.2543C55.602 55.0163 58.1006 56.812 59.0868 55.0163C60.655 52.1612 61.8399 52.3992 62.049 50.9716C62.2232 49.782 63.7914 42.6443 64.8369 41.6926C65.3449 40.9989 65.5339 38.5995 66.2309 38.5995C66.9278 38.5995 67.4506 41.2167 68.3218 41.4546C69.6355 41.8134 71.6324 32.4135 71.9809 31.6997C72.3294 30.986 73.2006 30.748 74.2461 30.0343C76.0452 28.8059 77.3825 18.138 77.731 16.4726C78.0795 14.3312 80.8674 11.952 81.2159 11.4762C81.5644 11.0003 81.9129 9.57275 82.7841 9.57275C85.3978 9.57275 84.875 21.2311 86.966 21.9448C88.0114 22.3017 88.1857 17.4243 89.2311 17.4243C93.0645 17.4243 95.8524 42.4063 98.6403 42.8822C99.7642 43.074 100.209 41.2167 101.08 40.9788C102 40.7275 103.171 38.1237 104.042 38.1237C105.087 38.1237 106.133 43.1201 107.178 43.1201C108.479 43.1201 108.921 37.172 109.966 36.6961C110.837 36.4582 111.012 33.8411 112.928 34.079" stroke="white" stroke-width="1.59549" stroke-linecap="round"/>
</g>
<g style="mix-blend-mode:soft-light">
<path d="M117.025 7.0821L15.8853 7.87646L15.8884 8.27533L117.028 7.48096L117.025 7.0821Z" fill="white"/>
<path d="M117.027 14.5167L15.8877 15.311L15.8908 15.7099L117.03 14.9155L117.027 14.5167Z" fill="white"/>
<path d="M117.03 21.9517L15.8904 22.7461L15.8935 23.145L117.033 22.3506L117.03 21.9517Z" fill="white"/>
<path d="M117.032 29.3868L15.8931 30.1812L15.8962 30.58L117.036 29.7857L117.032 29.3868Z" fill="white"/>
<path d="M117.027 36.8218L15.8875 37.6162L15.8906 38.0151L117.03 37.2207L117.027 36.8218Z" fill="white"/>
<path d="M117.029 44.2564L15.8901 45.0508L15.8933 45.4496L117.033 44.6553L117.029 44.2564Z" fill="white"/>
<path d="M117.032 51.691L15.8928 52.4854L15.896 52.8842L117.035 52.0898L117.032 51.691Z" fill="white"/>
<path d="M117.026 59.1256L15.887 59.9199L15.8901 60.3188L117.029 59.5244L117.026 59.1256Z" fill="white"/>
<path d="M117.029 66.5684L15.8899 67.3628L15.893 67.7617L117.032 66.9673L117.029 66.5684Z" fill="white"/>
</g>
<defs>
<linearGradient id="paint0_linear_444_84114" x1="126.476" y1="186.029" x2="126.476" y2="185.99" gradientUnits="userSpaceOnUse">
<stop stop-color="#9D68C2"/>
<stop offset="1" stop-color="#CCEDFF"/>
</linearGradient>
<radialGradient id="paint1_radial_444_84114" cx="0" cy="0" r="1" gradientUnits="userSpaceOnUse" gradientTransform="translate(63.0937 176.814) scale(32.4391 7.15881)">
<stop stop-color="#BE9DEA"/>
<stop offset="0.39" stop-color="#E0BFF5"/>
<stop offset="1" stop-color="white"/>
</radialGradient>
<linearGradient id="paint2_linear_444_84114" x1="78.374" y1="166.47" x2="80.6325" y2="130.377" gradientUnits="userSpaceOnUse">
<stop stop-color="#CBC1F7"/>
<stop offset="1" stop-color="#E8DCF7"/>
</linearGradient>
<linearGradient id="paint3_linear_444_84114" x1="80.3591" y1="144.572" x2="79.5223" y2="131.276" gradientUnits="userSpaceOnUse">
<stop stop-color="#BE9DEA"/>
<stop offset="1" stop-color="#9E8CEF"/>
</linearGradient>
<linearGradient id="paint4_linear_444_84114" x1="81.7178" y1="165.405" x2="79.5813" y2="131.456" gradientUnits="userSpaceOnUse">
<stop stop-color="#9D68C2"/>
<stop offset="1" stop-color="#CCEDFF"/>
</linearGradient>
<linearGradient id="paint5_linear_444_84114" x1="50.6409" y1="171.595" x2="48.2793" y2="135.443" gradientUnits="userSpaceOnUse">
<stop stop-color="#CBC1F7"/>
<stop offset="1" stop-color="#E8DCF7"/>
</linearGradient>
<linearGradient id="paint6_linear_444_84114" x1="48.5923" y1="149.671" x2="49.3936" y2="136.357" gradientUnits="userSpaceOnUse">
<stop stop-color="#BE9DEA"/>
<stop offset="1" stop-color="#9E8CEF"/>
</linearGradient>
<linearGradient id="paint7_linear_444_84114" x1="47.2877" y1="170.545" x2="49.335" y2="136.53" gradientUnits="userSpaceOnUse">
<stop stop-color="#9D68C2"/>
<stop offset="1" stop-color="#CCEDFF"/>
</linearGradient>
<linearGradient id="paint8_linear_444_84114" x1="38.1696" y1="53.548" x2="38.1696" y2="25.8901" gradientUnits="userSpaceOnUse">
<stop stop-color="#B9ACF4"/>
<stop offset="1" stop-color="#E1D1F5"/>
</linearGradient>
<linearGradient id="paint9_linear_444_84114" x1="36.2055" y1="43.0975" x2="36.2055" y2="25.8901" gradientUnits="userSpaceOnUse">
<stop stop-color="#BE9DEA"/>
<stop offset="1" stop-color="#9E8CEF"/>
</linearGradient>
<linearGradient id="paint10_linear_444_84114" x1="95.0553" y1="53.548" x2="95.0553" y2="25.8901" gradientUnits="userSpaceOnUse">
<stop stop-color="#B9ACF4"/>
<stop offset="1" stop-color="#E1D1F5"/>
</linearGradient>
<linearGradient id="paint11_linear_444_84114" x1="97.0596" y1="40.9194" x2="97.0596" y2="25.8819" gradientUnits="userSpaceOnUse">
<stop stop-color="#BE9DEA"/>
<stop offset="1" stop-color="#9E8CEF"/>
</linearGradient>
<linearGradient id="paint12_linear_444_84114" x1="100.789" y1="54.8721" x2="100.789" y2="27.6929" gradientUnits="userSpaceOnUse">
<stop stop-color="#45FFCD"/>
<stop offset="1" stop-color="#22E0FF"/>
</linearGradient>
<linearGradient id="paint13_linear_444_84114" x1="32.4438" y1="54.8721" x2="32.4438" y2="27.6929" gradientUnits="userSpaceOnUse">
<stop stop-color="#45FFCD"/>
<stop offset="1" stop-color="#22E0FF"/>
</linearGradient>
<linearGradient id="paint14_linear_444_84114" x1="63.6423" y1="92.7889" x2="72.4599" y2="22.7695" gradientUnits="userSpaceOnUse">
<stop stop-color="#CBC1F7"/>
<stop offset="1" stop-color="#E8DCF7"/>
</linearGradient>
<linearGradient id="paint15_linear_444_84114" x1="66.5052" y1="73.5872" x2="66.5052" y2="24.5976" gradientUnits="userSpaceOnUse">
<stop stop-color="#0665BD"/>
<stop offset="1" stop-color="#1A1F77"/>
</linearGradient>
<linearGradient id="paint16_linear_444_84114" x1="66.7438" y1="92.1344" x2="66.7438" y2="50.4043" gradientUnits="userSpaceOnUse">
<stop stop-color="#9D68C2"/>
<stop offset="1" stop-color="#CCEDFF"/>
</linearGradient>
<linearGradient id="paint17_linear_444_84114" x1="38.7026" y1="86.71" x2="92.9241" y2="86.71" gradientUnits="userSpaceOnUse">
<stop stop-color="#8879EA"/>
<stop offset="1" stop-color="#9E8CEF"/>
</linearGradient>
<linearGradient id="paint18_linear_444_84114" x1="65.8135" y1="89.1356" x2="65.8135" y2="81.3018" gradientUnits="userSpaceOnUse">
<stop stop-color="#8DA4E5"/>
<stop offset="1" stop-color="#755CBB"/>
</linearGradient>
<linearGradient id="paint19_linear_444_84114" x1="65.5905" y1="88.0263" x2="66.6147" y2="79.898" gradientUnits="userSpaceOnUse">
<stop stop-color="#5E36CC"/>
<stop offset="1" stop-color="#6C4A96"/>
</linearGradient>
<linearGradient id="paint20_linear_444_84114" x1="38.0505" y1="82.4583" x2="38.0505" y2="71.4654" gradientUnits="userSpaceOnUse">
<stop stop-color="#8DA4E5"/>
<stop offset="1" stop-color="#755CBB"/>
</linearGradient>
<linearGradient id="paint21_linear_444_84114" x1="82.3314" y1="51.5374" x2="82.3314" y2="37.2338" gradientUnits="userSpaceOnUse">
<stop stop-color="#45FFCD"/>
<stop offset="1" stop-color="#22E0FF"/>
</linearGradient>
<linearGradient id="paint22_linear_444_84114" x1="50.8699" y1="51.5933" x2="50.8699" y2="37.2259" gradientUnits="userSpaceOnUse">
<stop stop-color="#45FFCD"/>
<stop offset="1" stop-color="#22E0FF"/>
</linearGradient>
<linearGradient id="paint23_linear_444_84114" x1="23.1711" y1="75.2703" x2="27.2119" y2="43.18" gradientUnits="userSpaceOnUse">
<stop stop-color="#BE9DEA"/>
<stop offset="1" stop-color="#9E8CEF"/>
</linearGradient>
<linearGradient id="paint24_linear_444_84114" x1="38.4051" y1="75.1625" x2="40.4915" y2="66.3904" gradientUnits="userSpaceOnUse">
<stop stop-color="#DD1A8F"/>
<stop offset="1" stop-color="#FE117E"/>
</linearGradient>
<linearGradient id="paint25_linear_444_84114" x1="42.7904" y1="36.1252" x2="92.7572" y2="36.1252" gradientUnits="userSpaceOnUse">
<stop/>
<stop offset="1" stop-color="#6A9BFF"/>
</linearGradient>
<linearGradient id="paint26_linear_444_84114" x1="49.8522" y1="69.112" x2="85.361" y2="69.112" gradientUnits="userSpaceOnUse">
<stop/>
<stop offset="1" stop-color="#6A9BFF"/>
</linearGradient>
<linearGradient id="paint27_linear_444_84114" x1="85.7584" y1="141.021" x2="92.1196" y2="90.5361" gradientUnits="userSpaceOnUse">
<stop stop-color="#CBC1F7"/>
<stop offset="1" stop-color="#E8DCF7"/>
</linearGradient>
<linearGradient id="paint28_linear_444_84114" x1="81.9888" y1="100.328" x2="86.7129" y2="99.9153" gradientUnits="userSpaceOnUse">
<stop stop-color="#8879EA"/>
<stop offset="1" stop-color="#9E8CEF"/>
</linearGradient>
<linearGradient id="paint29_linear_444_84114" x1="88.9792" y1="140.223" x2="88.9792" y2="110.013" gradientUnits="userSpaceOnUse">
<stop stop-color="#9D68C2"/>
<stop offset="1" stop-color="#CCEDFF"/>
</linearGradient>
<linearGradient id="paint30_linear_444_84114" x1="45.6388" y1="141.021" x2="39.2776" y2="90.5361" gradientUnits="userSpaceOnUse">
<stop stop-color="#CBC1F7"/>
<stop offset="1" stop-color="#E8DCF7"/>
</linearGradient>
<linearGradient id="paint31_linear_444_84114" x1="49.4084" y1="100.328" x2="44.6843" y2="99.9153" gradientUnits="userSpaceOnUse">
<stop stop-color="#8879EA"/>
<stop offset="1" stop-color="#9E8CEF"/>
</linearGradient>
<linearGradient id="paint32_linear_444_84114" x1="42.418" y1="140.223" x2="42.418" y2="110.013" gradientUnits="userSpaceOnUse">
<stop stop-color="#9D68C2"/>
<stop offset="1" stop-color="#CCEDFF"/>
</linearGradient>
<linearGradient id="paint33_linear_444_84114" x1="39.331" y1="71.0824" x2="39.331" y2="67.2452" gradientUnits="userSpaceOnUse">
<stop stop-color="#D93DE3"/>
<stop offset="1" stop-color="#FF6DBA"/>
</linearGradient>
<linearGradient id="paint34_linear_444_84114" x1="37.9649" y1="63.4453" x2="39.2111" y2="45.3157" gradientUnits="userSpaceOnUse">
<stop/>
<stop offset="1" stop-color="#00E3FF"/>
</linearGradient>
<linearGradient id="paint35_linear_444_84114" x1="96.4788" y1="34.4899" x2="103.533" y2="34.4899" gradientUnits="userSpaceOnUse">
<stop/>
<stop offset="1" stop-color="#D4E2FF"/>
</linearGradient>
<linearGradient id="paint36_linear_444_84114" x1="28.8572" y1="33.4048" x2="36.627" y2="33.4048" gradientUnits="userSpaceOnUse">
<stop stop-color="#D4E2FF"/>
<stop offset="1"/>
</linearGradient>
<linearGradient id="paint37_linear_444_84114" x1="22.2632" y1="53.8438" x2="22.4434" y2="44.8612" gradientUnits="userSpaceOnUse">
<stop stop-color="#CBC1F7"/>
<stop offset="1" stop-color="#E8DCF7"/>
</linearGradient>
<linearGradient id="paint38_linear_444_84114" x1="62.6324" y1="143.877" x2="70.2979" y2="83.0548" gradientUnits="userSpaceOnUse">
<stop stop-color="#CBC1F7"/>
<stop offset="1" stop-color="#E8DCF7"/>
</linearGradient>
<linearGradient id="paint39_linear_444_84114" x1="65.2646" y1="142.991" x2="65.2646" y2="104.444" gradientUnits="userSpaceOnUse">
<stop stop-color="#BE9DEA"/>
<stop offset="1" stop-color="#9E8CEF"/>
</linearGradient>
<radialGradient id="paint40_radial_444_84114" cx="0" cy="0" r="1" gradientUnits="userSpaceOnUse" gradientTransform="translate(66.036 138.005) scale(29.3216 29.4129)">
<stop stop-color="#45FFCD"/>
<stop offset="1" stop-color="#22E0FF"/>
</radialGradient>
<linearGradient id="paint41_linear_444_84114" x1="64.8909" y1="94.5199" x2="64.8909" y2="82.5936" gradientUnits="userSpaceOnUse">
<stop stop-color="#8DA4E5"/>
<stop offset="1" stop-color="#755CBB"/>
</linearGradient>
<linearGradient id="paint42_linear_444_84114" x1="49.709" y1="114.99" x2="83.1262" y2="114.99" gradientUnits="userSpaceOnUse">
<stop/>
<stop offset="1" stop-color="#D4E2FF"/>
</linearGradient>
<radialGradient id="paint43_radial_444_84114" cx="0" cy="0" r="1" gradientUnits="userSpaceOnUse" gradientTransform="translate(68.2308 65.2669) scale(74.9462 75.1797)">
<stop stop-color="#45FFCD"/>
<stop offset="1" stop-color="#22E0FF"/>
</radialGradient>
</defs>
</svg>
