<svg width="138" height="183" viewBox="0 0 138 183" fill="none" xmlns="http://www.w3.org/2000/svg">
<path style="mix-blend-mode:multiply" opacity="0.5" d="M72.27 183C93.468 183 110.652 179.165 110.652 174.435C110.652 169.705 93.468 165.87 72.27 165.87C51.072 165.87 33.8877 169.705 33.8877 174.435C33.8877 179.165 51.072 183 72.27 183Z" fill="url(#paint0_radial_444_84268)"/>
<path d="M100.459 127.621C100.619 128.206 100.779 128.828 100.949 129.508C103.462 139.223 106.417 153.787 105.655 159.824C105.485 161.277 105.09 162.229 104.44 162.512C104.262 162.594 104.071 162.642 103.876 162.654C102.992 162.676 102.119 162.454 101.353 162.012C95.2919 159.032 84.8069 146.741 82.915 142.562C82.7126 142.217 82.6144 141.821 82.6326 141.421C83.6868 137.224 96.3836 119.198 97.8708 120.113C98.2755 120.358 99.2826 123.358 100.459 127.621Z" fill="url(#paint1_linear_444_84268)"/>
<path d="M82.9247 142.553C82.9247 144.053 99.9135 133.658 97.8805 120.103C97.8805 120.075 82.9059 128.385 82.9247 142.553Z" fill="url(#paint2_linear_444_84268)"/>
<path style="mix-blend-mode:multiply" opacity="0.3" d="M100.459 127.621C100.459 127.621 91.7061 134.639 91.339 140.318C90.9719 145.996 96.3933 156.853 101.363 161.966C95.3015 158.985 84.8165 146.694 82.9246 142.515C82.7222 142.17 82.6241 141.774 82.6423 141.374C83.6964 137.177 96.3933 119.151 97.8804 120.066C98.2757 120.358 99.2828 123.358 100.459 127.621Z" fill="url(#paint3_linear_444_84268)"/>
<path d="M40.9752 129.989C40.8058 130.574 40.6458 131.187 40.4858 131.875C37.9728 141.581 35.0174 156.145 35.7798 162.192C35.9586 163.635 36.3445 164.597 37.0033 164.88C37.1825 164.958 37.3733 165.006 37.568 165.022C38.4503 165.032 39.32 164.811 40.0905 164.38C46.1613 161.399 56.6463 149.109 58.5381 144.94C58.7378 144.594 58.8326 144.197 58.811 143.798C57.7569 139.601 45.06 121.565 43.5729 122.49C43.1211 122.679 42.1799 125.735 40.9752 129.989Z" fill="url(#paint4_linear_444_84268)"/>
<path d="M58.5095 144.873C58.5095 146.383 41.5208 135.978 43.5444 122.433C43.5444 122.433 58.5283 130.706 58.5095 144.873Z" fill="url(#paint5_linear_444_84268)"/>
<path d="M46.7822 145.091C47.4317 145.619 45.1822 151.627 43.808 151.458C42.4338 151.288 45.2763 143.855 46.7822 145.091Z" fill="white"/>
<path d="M97.7111 153.862C98.5488 153.796 100.422 157.296 99.3018 158.116C98.1817 158.937 95.8287 154.032 97.7111 153.862Z" fill="white"/>
<path style="mix-blend-mode:multiply" opacity="0.3" d="M40.9751 129.989C40.9751 129.989 49.7095 137.054 50.0954 142.714C50.4813 148.373 45.0035 159.221 40.0621 164.324C46.1329 161.343 56.6179 149.053 58.5097 144.883C58.7094 144.538 58.8043 144.141 58.7827 143.742C57.7286 139.544 45.0317 121.509 43.5446 122.434C43.1211 122.679 42.1798 125.735 40.9751 129.989Z" fill="url(#paint6_linear_444_84268)"/>
<path d="M45.1257 11.0251C45.1257 11.0251 39.2337 5.94087 32.0334 5.0542C32.0334 5.0542 29.831 6.12952 27.2804 14.0907C24.7297 22.0518 29.4358 37.7571 29.4358 37.7571L45.1257 11.0251Z" fill="url(#paint7_linear_444_84268)"/>
<path d="M29.2383 9.01591C29.8966 7.51422 30.858 6.16535 32.0619 5.0542C32.0619 5.0542 37.9915 10.5346 37.7091 23.6365L35.9961 25.4004L29.2383 9.01591Z" fill="url(#paint8_linear_444_84268)"/>
<path d="M93.8428 11.0251C93.8428 11.0251 99.7253 5.94087 106.935 5.0542C106.935 5.0542 109.137 6.12952 111.688 14.0907C114.239 22.0518 109.533 37.7571 109.533 37.7571L93.8428 11.0251Z" fill="url(#paint9_linear_444_84268)"/>
<path d="M106.935 5.05385C103.137 9.65213 101.072 15.4411 101.099 21.41L103.358 22.8344L109.947 9.21365C109.947 9.21365 107.744 4.93123 106.935 5.05385Z" fill="url(#paint10_linear_444_84268)"/>
<path d="M103.141 22.1457C103.141 22.1457 101.588 13.5243 107.255 7.18555C107.255 7.18555 113.645 10.2134 116.29 21.41C118.935 32.6065 112.055 39.3319 112.055 39.3319L103.141 22.1457Z" fill="url(#paint11_linear_444_84268)"/>
<path d="M35.8269 22.1457C35.8269 22.1457 37.3705 13.5243 31.7139 7.18555C31.7139 7.18555 25.3231 10.2134 22.6689 21.41C20.0147 32.6065 26.9138 39.3319 26.9138 39.3319L35.8269 22.1457Z" fill="url(#paint12_linear_444_84268)"/>
<path d="M111.001 69.7805C97.8241 88.2401 36.1281 86.8724 28.0902 71.95C22.8382 62.1966 23.3841 47.5383 28.4666 34.0497C35.055 16.3446 49.4367 0.629883 68.4678 0.629883C90.8591 0.629883 108.055 22.9852 113.241 43.4068C115.867 53.745 115.415 63.5832 111.001 69.7805Z" fill="url(#paint13_linear_444_84268)"/>
<path d="M32.6926 52.6602C35.6385 65.2339 89.899 66.6016 103.227 55.207C116.554 43.8124 97.3628 3.32754 67.9596 5.11031C41.0693 6.72329 27.883 32.0688 32.6926 52.6602Z" fill="#DFE3FB"/>
<path d="M32.41 51.1324C35.3559 63.706 89.6165 65.0738 102.944 53.6792C116.271 42.2845 97.0802 1.79971 67.677 3.58247C40.7867 5.19545 27.6004 30.5409 32.41 51.1324Z" fill="url(#paint14_linear_444_84268)"/>
<path style="mix-blend-mode:multiply" opacity="0.3" d="M111.001 69.7806C97.8241 88.2402 36.1281 86.8725 28.0902 71.9501C22.8382 62.1968 23.3841 47.5385 28.4666 34.0498C28.2501 34.8421 23.0735 53.7546 28.3537 62.0741C33.7562 70.5635 55.1215 69.3939 78.0587 68.4129C100.996 67.4319 108.582 64.0927 112.432 57.6125C115.462 52.5095 112.432 41.2469 110.982 36.6909L113.232 43.4164C115.867 53.7451 115.415 63.5834 111.001 69.7806Z" fill="url(#paint15_linear_444_84268)"/>
<path d="M68.5338 83.3725C55.7052 83.3725 46.4531 81.9104 41.2388 79.8353C37.8411 78.477 36.194 76.8545 36.4387 75.1755C36.5893 74.1568 39.1117 73.289 43.0742 72.5344C54.7263 70.4215 78.84 69.7801 91.8475 71.7609C92.9581 71.9307 94.0028 72.1194 94.944 72.3269L95.5181 72.4684H95.6311C97.8712 73.0249 99.4618 73.7041 100.168 74.5247C100.333 74.7072 100.458 74.9225 100.535 75.1567C101.777 79.3448 80.1294 83.3819 68.5338 83.3725Z" fill="url(#paint16_linear_444_84268)"/>
<path style="mix-blend-mode:multiply" opacity="0.5" d="M100.412 74.1571C100.36 74.2963 100.287 74.4267 100.196 74.5439C98.9438 76.3266 93.8424 78.6188 93.8424 78.6188C93.8424 78.6188 74.2559 70.5822 58.3684 74.1571C42.4808 77.7321 41.2761 79.8167 41.2761 79.8167C37.8783 78.4584 36.2312 76.836 36.4759 75.157C36.6265 74.1383 39.1489 73.2705 43.1114 72.5159C54.7635 70.403 78.8772 69.7615 91.8847 71.7424C93.24 71.9782 94.473 72.2234 95.5554 72.4498H95.6684C98.7367 73.1573 100.534 73.7515 100.412 74.1571Z" fill="url(#paint17_linear_444_84268)"/>
<path d="M94.9721 72.327C91.932 75.2323 77.3903 77.7508 69.0889 77.7414C54.2273 77.7414 45.1916 75.3644 43.1022 72.5346C55.752 70.2424 83.1317 69.6859 94.9721 72.327Z" fill="url(#paint18_linear_444_84268)"/>
<path style="mix-blend-mode:multiply" opacity="0.5" d="M28.0617 71.9686C30.2613 69.6571 32.8808 67.7875 35.7796 66.4599C40.8997 64.0075 45.5964 62.0832 46.3211 60.1118C47.0458 58.1404 32.2971 59.3006 32.2971 59.3006L24.9463 62.4982C24.9463 62.4982 26.1793 68.4125 28.0617 71.9686Z" fill="url(#paint19_linear_444_84268)"/>
<path d="M22.066 25.3999C22.066 25.3999 25.8309 27.8618 23.3743 33.5497C23.3743 33.5497 5.59491 43.2559 6.62082 53.8298C7.47732 62.6588 32.0334 58.3858 32.0334 58.3858L32.9181 61.3382C32.9181 61.3382 12.0422 65.432 4.84199 60.5082C4.84199 60.5082 2.38542 54.6788 8.46561 44.1708C12.397 37.4972 16.9509 31.2121 22.066 25.3999Z" fill="url(#paint20_linear_444_84268)"/>
<path d="M28.9462 57.565C26.7061 60.1119 31.4592 62.8851 35.3652 63.3095C39.7512 63.7906 47.535 62.055 47.0644 57.6499C46.5938 53.2449 34.1981 51.6131 28.9462 57.565Z" fill="url(#paint21_linear_444_84268)"/>
<path style="mix-blend-mode:screen" opacity="0.5" d="M41.3138 19.3446C40.6361 23.4195 49.6811 23.2403 62.0203 22.8347C76.8255 22.3442 91.6965 35.0971 100.346 25.9475C101.767 24.4382 87.6023 4.61086 70.5006 5.0542C53.3989 5.49753 41.9067 15.8074 41.3138 19.3446Z" fill="url(#paint22_linear_444_84268)"/>
<path style="mix-blend-mode:screen" opacity="0.5" d="M49.7095 54.8106C48.9283 57.7631 55.0649 60.1495 70.2372 59.9703C89.4566 59.7533 92.8261 55.1125 92.4778 54.7918C92.4778 54.7918 84.5152 59.5081 69.4654 56.1595C59.5356 53.9806 50.5283 51.7073 49.7095 54.8106Z" fill="url(#paint23_linear_444_84268)"/>
<path style="mix-blend-mode:multiply" opacity="0.3" d="M110.888 36.294L110.446 34.9546C110.512 35.181 110.672 35.6715 110.888 36.294Z" fill="url(#paint24_linear_444_84268)"/>
<path d="M78.9432 3.23312C77.6443 3.53496 88.5529 9.3266 88.9952 8.63802C89.4376 7.94944 82.5386 2.39362 78.9432 3.23312Z" fill="white"/>
<path d="M99.8472 7.56258C98.7649 8.1474 98.8495 9.32648 101.099 9.03407C103.348 8.74165 104.581 6.96832 104.337 6.62875C104.092 6.28918 101.071 6.88343 99.8472 7.56258Z" fill="white"/>
<path d="M119.669 41.4918C119.086 41.4258 119.283 46.642 120.018 46.4251C120.752 46.2081 120.507 41.5956 119.669 41.4918Z" fill="white"/>
<path d="M29.2381 58.0367C29.1064 58.763 44.7586 58.98 45.1257 56.1502C45.4928 53.3204 30.2735 52.4337 29.2381 58.0367Z" fill="url(#paint25_linear_444_84268)"/>
<path style="mix-blend-mode:screen" opacity="0.2" d="M33.0879 46.9911C32.7032 43.6574 32.7412 40.2884 33.2008 36.9642C33.9538 31.2198 35.4973 27.5316 36.4103 28.0315C37.3233 28.5315 37.1821 34.1816 37.728 39.728C38.1515 44.0387 38.9798 48.0853 38.9798 48.0853C38.9798 48.0853 35.0173 51.8867 33.0879 46.9911Z" fill="url(#paint26_linear_444_84268)"/>
<path style="mix-blend-mode:screen" opacity="0.72" d="M112.13 12.2604C112.13 12.2604 110.06 9.68527 107.227 10.3739C104.394 11.0624 104.215 19.9857 105.909 20.2121C107.603 20.4385 108.309 15.2694 109.608 14.4582C110.723 13.9593 111.957 13.7891 113.166 13.9677L112.13 12.2604Z" fill="url(#paint27_linear_444_84268)"/>
<path style="mix-blend-mode:screen" opacity="0.72" d="M24.796 15.3726C24.796 15.3726 25.8784 14.137 28.3349 14.5426C30.7915 14.9482 32.1938 19.9758 33.4456 19.4758C34.6974 18.9759 33.7845 10.8072 30.4715 8.40193C30.4715 8.38306 26.1796 12.0429 24.796 15.3726Z" fill="url(#paint28_linear_444_84268)"/>
<path d="M21.473 27.2485C21.473 27.2485 12.8045 37.0019 13.3316 37.6999C13.8586 38.3979 21.9813 28.2578 21.473 27.2485Z" fill="url(#paint29_linear_444_84268)"/>
<path d="M51.4975 79.911C50.4057 85.4951 48.0904 93.4185 44.3161 99.4554C38.0759 109.454 29.1909 121.839 28.918 122.235C24.6261 123.839 20.0612 122.839 17.2094 121.848C16.2396 121.52 15.2958 121.12 14.3857 120.65C17.4357 111.735 21.863 103.354 27.5062 95.8144C31.9499 89.9144 36.9763 84.4788 42.509 79.5903L42.5749 79.5337L42.7443 79.3827C42.774 79.349 42.809 79.3203 42.8479 79.2978L42.9325 79.2129L43.0549 79.1092C47.7609 75.006 51.4222 72.6573 52.0058 73.1478C52.4011 73.4119 52.2317 76.119 51.4975 79.911Z" fill="url(#paint30_linear_444_84268)"/>
<path style="mix-blend-mode:multiply" opacity="0.3" d="M51.4975 79.911C50.4057 85.4952 48.0904 93.4186 44.3161 99.4554C38.0759 109.454 29.1909 121.839 28.918 122.235L17.2094 121.849C16.2396 121.52 15.2958 121.12 14.3857 120.651C17.4357 111.735 21.863 103.354 27.5062 95.8144C31.9499 89.9145 36.9763 84.4789 42.509 79.5903C39.8265 82.0145 28.5133 92.6357 24.1084 102.653C19.0824 114.048 31.0263 111.576 36.9559 105.115C42.8855 98.6537 51.3469 79.8827 51.3469 79.8827L51.4975 79.911Z" fill="url(#paint31_linear_444_84268)"/>
<path d="M39.1961 91.6075C38.3585 91.0981 41.3327 86.4195 42.7916 86.5988C44.2504 86.778 39.9115 92.0508 39.1961 91.6075Z" fill="white"/>
<path d="M34.7725 98.1823C34.1325 97.6729 33.0877 99.5217 33.6807 99.9368C34.2737 100.352 35.4973 98.7671 34.7725 98.1823Z" fill="white"/>
<path d="M16.3625 115.406C16.3625 115.406 19.3556 109.407 24.4098 111.793C29.4641 114.18 25.8311 122.424 25.8311 122.424C25.8311 122.424 19.0732 125.575 14.3954 120.66C14.9315 118.866 15.5888 117.111 16.3625 115.406Z" fill="url(#paint32_linear_444_84268)"/>
<path d="M16.1931 113.925C16.1931 113.925 22.6874 111.312 25.7087 114.349C28.137 116.783 27.2052 122.056 25.7651 125.489C24.3251 128.923 14.4707 139.78 10.0753 139.638C5.67983 139.497 3.27032 134.658 5.0492 128.961C5.0492 128.923 11.3365 117.745 16.1931 113.925Z" fill="url(#paint33_linear_444_84268)"/>
<path d="M16.1931 113.925C16.1931 113.925 16.099 119.934 12.2306 124.122C8.36226 128.31 5.85863 137.328 5.85863 137.328C5.85863 137.328 3.83506 135.036 5.04921 128.904C6.26337 122.773 16.1931 113.925 16.1931 113.925Z" fill="url(#paint34_linear_444_84268)"/>
<path style="mix-blend-mode:multiply" opacity="0.5" d="M5.36938 127.744L8.64476 129.876C9.41713 128.099 10.4033 126.423 11.5813 124.886C12.8965 122.982 13.9389 120.902 14.6779 118.708L5.36938 127.744Z" fill="url(#paint35_linear_444_84268)"/>
<path d="M15.0827 114.746C12.4473 115.497 9.96957 116.721 7.76947 118.358C3.40228 121.358 0.785733 124.848 0.54102 125.753C0.296306 126.659 1.59516 128.272 3.11991 128.366C4.64467 128.461 9.70835 125.537 9.70835 125.537C9.70835 125.537 16.5698 118.924 15.0827 114.746Z" fill="url(#paint36_linear_444_84268)"/>
<path d="M12.2307 124.121C12.2307 124.121 20.1933 121.292 26.3488 124.121L25.8123 125.461C21.2946 123.629 16.2847 123.416 11.6283 124.857L12.2307 124.121Z" fill="url(#paint37_linear_444_84268)"/>
<path d="M4.53174 124.462C4.12702 124.019 8.44716 121.094 8.7107 121.811C8.97423 122.528 5.06823 125.075 4.53174 124.462Z" fill="white"/>
<path d="M52.0529 73.1289C52.0529 73.1289 45.8786 83.5048 46.5375 95.371C46.5375 95.371 54.5566 80.7976 52.0529 73.1289Z" fill="url(#paint38_linear_444_84268)"/>
<path d="M87.4707 78.9489C88.5531 84.533 90.8779 92.4565 94.6521 98.4933C100.892 108.492 109.777 120.877 110.05 121.273C114.333 122.886 118.907 121.877 121.749 120.896C122.719 120.568 123.663 120.168 124.573 119.698C121.523 110.782 117.096 102.402 111.453 94.8618C107.009 88.9619 101.982 83.5264 96.4498 78.6377L96.3746 78.5811C96.3275 78.5245 96.2616 78.4773 96.2052 78.4207L96.111 78.3358C96.0768 78.3183 96.0477 78.2923 96.0263 78.2604L95.904 78.1566C91.1979 74.044 87.5366 71.7047 86.9531 72.1857C86.5672 72.4499 86.7272 75.157 87.4707 78.9489Z" fill="url(#paint39_linear_444_84268)"/>
<path style="mix-blend-mode:multiply" opacity="0.3" d="M87.4707 78.9485C88.5531 84.5326 90.8779 92.456 94.6521 98.4929C100.892 108.491 109.777 120.877 110.05 121.273L121.749 120.895C122.719 120.568 123.663 120.167 124.573 119.697C121.523 110.782 117.096 102.401 111.453 94.8613C107.009 88.9615 101.982 83.5259 96.4498 78.6372C99.1322 81.0614 110.446 91.6825 114.85 101.7C119.867 113.095 107.933 110.623 102.003 104.162C96.0733 97.7005 87.6025 78.9202 87.6025 78.9202L87.4707 78.9485Z" fill="url(#paint40_linear_444_84268)"/>
<path d="M99.7723 90.6456C100.601 90.1362 97.6358 85.4576 96.1769 85.6369C94.718 85.8161 99.057 91.0795 99.7723 90.6456Z" fill="white"/>
<path d="M122.606 114.416C122.606 114.416 119.613 108.417 114.559 110.803C109.504 113.19 113.128 121.424 113.128 121.424C113.128 121.424 119.886 124.575 124.573 119.67C124.032 117.878 123.375 116.123 122.606 114.416Z" fill="url(#paint41_linear_444_84268)"/>
<path d="M122.775 112.963C122.775 112.963 116.271 110.341 113.25 113.378C110.831 115.812 111.763 121.094 113.25 124.528C114.737 127.961 124.545 138.818 128.931 138.677C133.317 138.535 135.745 133.696 133.966 127.999C133.919 127.961 127.632 116.783 122.775 112.963Z" fill="url(#paint42_linear_444_84268)"/>
<path d="M120.648 112.312C120.648 112.312 122.117 118.859 126.738 123.16C130.898 127.037 133.11 136.366 133.11 136.366C133.11 136.366 135.133 134.074 133.919 127.942C132.705 121.811 120.648 112.312 120.648 112.312Z" fill="url(#paint43_linear_444_84268)"/>
<path style="mix-blend-mode:multiply" opacity="0.5" d="M133.59 126.782L130.409 128.668C129.648 126.934 128.626 125.327 127.378 123.905C124.188 120.673 121.872 116.68 120.648 112.303L128.178 119.236C128.178 119.236 130.013 121.179 131.416 123.009C132.075 123.905 133.59 126.782 133.59 126.782Z" fill="url(#paint44_linear_444_84268)"/>
<path d="M120.648 112.312C120.648 112.312 122.182 111.85 127.481 111.718C132.931 111.576 135.849 113.095 136.649 113.604C137.449 114.114 137.59 116.161 136.545 117.283C135.501 118.405 125.947 120.075 125.947 120.075C123.805 117.767 122.018 115.15 120.648 112.312Z" fill="url(#paint45_linear_444_84268)"/>
<path d="M126.738 123.159C126.738 123.159 118.766 120.329 112.62 123.159L113.156 124.498C117.67 122.667 122.676 122.45 127.33 123.885L126.738 123.159Z" fill="url(#paint46_linear_444_84268)"/>
<path d="M132.291 113.085C132.357 112.491 127.152 112.652 127.359 113.387C127.566 114.123 132.178 113.925 132.291 113.085Z" fill="white"/>
<path d="M86.9154 72.1577C86.9154 72.1577 93.0897 82.5336 92.4309 94.4093C92.4309 94.4093 84.4118 79.8359 86.9154 72.1577Z" fill="url(#paint47_linear_444_84268)"/>
<path d="M60.4391 44.209C60.4391 44.209 71.9689 44.6146 78.5102 42.9639C78.5102 42.9639 76.9667 53.7925 69.4747 53.7925C61.9827 53.7925 60.4391 44.209 60.4391 44.209Z" fill="#2F95CD"/>
<path d="M95.0285 126.027C93.2402 136.638 83.734 143.703 70.1806 143.703C58.3591 143.703 48.3352 139.289 45.7093 129.554C43.0833 119.82 44.0904 101.86 47.5917 90.6636C48.1048 89.0175 48.7339 87.4099 49.4741 85.853C50.1275 84.4895 50.8728 83.1722 51.7047 81.9101C56.0249 75.4016 62.3404 71.157 69.4747 71.157C72.6916 71.0777 75.8856 71.7181 78.8244 73.0316C81.7632 74.3451 84.3728 76.2987 86.4635 78.7502C88.2608 80.8662 89.6895 83.2706 90.6895 85.8624C91.8726 88.918 92.8475 92.0505 93.6072 95.2384C93.6072 95.2384 93.6072 95.2856 93.6072 95.3233C96.0761 105.367 96.559 115.797 95.0285 126.027Z" fill="url(#paint48_linear_444_84268)"/>
<path style="mix-blend-mode:multiply" opacity="0.3" d="M95.0285 126.027C93.2402 136.639 83.734 143.704 70.1806 143.704C58.3591 143.704 48.3352 139.289 45.7093 129.555C43.0833 119.82 44.0904 101.861 47.5917 90.6642C48.1048 89.018 48.7339 87.4104 49.4741 85.8535C49.4741 85.8535 42.3209 109.624 48.034 124.763C53.7471 139.902 80.4021 139.582 89.4471 129.527C98.0214 119.952 94.059 97.4557 93.6543 95.305C96.11 105.357 96.5768 115.795 95.0285 126.027Z" fill="url(#paint49_linear_444_84268)"/>
<path d="M46.1986 119.735C48.2222 105.502 59.6201 95.8521 72.2699 97.0972C85.9174 98.3895 93.2494 111.435 93.0518 122.631C92.8541 133.828 84.6845 142.572 70.0487 142.572C55.413 142.572 44.3068 133.045 46.1986 119.735Z" fill="url(#paint50_linear_444_84268)"/>
<path d="M46.3304 120.914C48.354 106.68 59.7426 97.0308 72.4018 98.2759C86.0399 99.5682 93.3719 112.614 93.1743 123.81C92.9766 135.007 84.8164 143.751 70.1806 143.751C55.5449 143.751 44.4386 134.224 46.3304 120.914Z" fill="url(#paint51_radial_444_84268)"/>
<path style="mix-blend-mode:multiply" opacity="0.5" d="M86.5106 78.7129C83.6211 83.2595 67.6865 85.91 58.4815 85.0705C50.4718 84.3348 51.686 82.1653 51.7424 81.8917C56.0626 75.3832 62.3781 71.1385 69.5124 71.1385C72.7293 71.0555 75.9243 71.6923 78.8647 73.0026C81.8052 74.3128 84.4171 76.2636 86.5106 78.7129Z" fill="url(#paint52_linear_444_84268)"/>
<path d="M80.8539 86.5989C80.1103 86.8442 80.0727 92.8245 80.8539 93.7866C81.6351 94.7487 82.868 94.4563 83.2821 93.0509C83.6963 91.6454 81.9739 86.2311 80.8539 86.5989Z" fill="white"/>
<path style="mix-blend-mode:screen" opacity="0.72" d="M51.1686 111.878C53.5686 115.727 63.4701 113.68 74.6234 114.765C85.7767 115.85 87.6685 119.481 90.0216 118.755C92.3746 118.028 88.6568 101.201 71.9974 100.059C55.3381 98.918 50.5662 110.926 51.1686 111.878Z" fill="url(#paint53_linear_444_84268)"/>
<path style="mix-blend-mode:screen" opacity="0.72" d="M54.6039 135.866C54.6039 135.866 57.8793 141.526 70.049 141.62C82.2188 141.714 87.179 134.404 87.179 134.404C85.1151 135.544 82.8452 136.26 80.502 136.511C78.1588 136.762 75.7892 136.543 73.5315 135.866C65.4936 133.668 57.5499 132.433 54.6039 135.866Z" fill="url(#paint54_linear_444_84268)"/>
<path d="M78.642 30.5595C78.3032 31.0217 84.8069 26.7864 95.1602 30.8425C96.1767 31.2481 85.2869 21.4381 78.642 30.5595Z" fill="url(#paint55_linear_444_84268)"/>
<path d="M60.3892 30.5595C60.7281 31.0217 54.2243 26.7864 43.871 30.8425C42.8545 31.2481 53.7443 21.4381 60.3892 30.5595Z" fill="url(#paint56_linear_444_84268)"/>
<defs>
<radialGradient id="paint0_radial_444_84268" cx="0" cy="0" r="1" gradientUnits="userSpaceOnUse" gradientTransform="translate(72.2701 174.508) scale(38.3918 8.46465)">
<stop stop-color="#BE9DEA"/>
<stop offset="0.39" stop-color="#E0BFF5"/>
<stop offset="1" stop-color="white"/>
</radialGradient>
<linearGradient id="paint1_linear_444_84268" x1="99.3661" y1="163.863" x2="88.2485" y2="122.579" gradientUnits="userSpaceOnUse">
<stop stop-color="#CBC1F7"/>
<stop offset="1" stop-color="#E8DCF7"/>
</linearGradient>
<linearGradient id="paint2_linear_444_84268" x1="93.3514" y1="138.582" x2="87.5152" y2="124.312" gradientUnits="userSpaceOnUse">
<stop stop-color="#BE9DEA"/>
<stop offset="1" stop-color="#9E8CEF"/>
</linearGradient>
<linearGradient id="paint3_linear_444_84268" x1="102.719" y1="161.413" x2="87.4948" y2="124.188" gradientUnits="userSpaceOnUse">
<stop stop-color="#9D68C2"/>
<stop offset="1" stop-color="#CCEDFF"/>
</linearGradient>
<linearGradient id="paint4_linear_444_84268" x1="39.1368" y1="165.803" x2="50.3329" y2="124.336" gradientUnits="userSpaceOnUse">
<stop stop-color="#CBC1F7"/>
<stop offset="1" stop-color="#E8DCF7"/>
</linearGradient>
<linearGradient id="paint5_linear_444_84268" x1="45.1939" y1="140.398" x2="51.06" y2="126.073" gradientUnits="userSpaceOnUse">
<stop stop-color="#BE9DEA"/>
<stop offset="1" stop-color="#9E8CEF"/>
</linearGradient>
<linearGradient id="paint6_linear_444_84268" x1="35.7781" y1="163.343" x2="51.0894" y2="125.953" gradientUnits="userSpaceOnUse">
<stop stop-color="#9D68C2"/>
<stop offset="1" stop-color="#CCEDFF"/>
</linearGradient>
<linearGradient id="paint7_linear_444_84268" x1="35.8171" y1="37.7571" x2="35.8171" y2="5.0542" gradientUnits="userSpaceOnUse">
<stop stop-color="#B9ACF4"/>
<stop offset="1" stop-color="#E1D1F5"/>
</linearGradient>
<linearGradient id="paint8_linear_444_84268" x1="33.4831" y1="25.4004" x2="33.4831" y2="5.0542" gradientUnits="userSpaceOnUse">
<stop stop-color="#BE9DEA"/>
<stop offset="1" stop-color="#9E8CEF"/>
</linearGradient>
<linearGradient id="paint9_linear_444_84268" x1="103.142" y1="37.7571" x2="103.142" y2="5.0542" gradientUnits="userSpaceOnUse">
<stop stop-color="#B9ACF4"/>
<stop offset="1" stop-color="#E1D1F5"/>
</linearGradient>
<linearGradient id="paint10_linear_444_84268" x1="105.513" y1="22.8344" x2="105.513" y2="5.05385" gradientUnits="userSpaceOnUse">
<stop stop-color="#BE9DEA"/>
<stop offset="1" stop-color="#9E8CEF"/>
</linearGradient>
<linearGradient id="paint11_linear_444_84268" x1="109.965" y1="39.3235" x2="109.707" y2="7.19145" gradientUnits="userSpaceOnUse">
<stop stop-color="#45FFCD"/>
<stop offset="1" stop-color="#22E0FF"/>
</linearGradient>
<linearGradient id="paint12_linear_444_84268" x1="29.0839" y1="39.3235" x2="28.8262" y2="7.19145" gradientUnits="userSpaceOnUse">
<stop stop-color="#45FFCD"/>
<stop offset="1" stop-color="#22E0FF"/>
</linearGradient>
<linearGradient id="paint13_linear_444_84268" x1="65.9643" y1="84.1558" x2="76.381" y2="1.36182" gradientUnits="userSpaceOnUse">
<stop stop-color="#CBC1F7"/>
<stop offset="1" stop-color="#E8DCF7"/>
</linearGradient>
<linearGradient id="paint14_linear_444_84268" x1="69.3523" y1="61.4517" x2="69.3523" y2="3.52588" gradientUnits="userSpaceOnUse">
<stop stop-color="#0665BD"/>
<stop offset="1" stop-color="#1A1F77"/>
</linearGradient>
<linearGradient id="paint15_linear_444_84268" x1="69.635" y1="83.3919" x2="69.635" y2="34.0404" gradientUnits="userSpaceOnUse">
<stop stop-color="#9D68C2"/>
<stop offset="1" stop-color="#CCEDFF"/>
</linearGradient>
<linearGradient id="paint16_linear_444_84268" x1="36.4481" y1="76.9677" x2="100.61" y2="76.9677" gradientUnits="userSpaceOnUse">
<stop stop-color="#8879EA"/>
<stop offset="1" stop-color="#9E8CEF"/>
</linearGradient>
<linearGradient id="paint17_linear_444_84268" x1="68.4299" y1="79.8356" x2="68.4299" y2="70.5727" gradientUnits="userSpaceOnUse">
<stop stop-color="#8DA4E5"/>
<stop offset="1" stop-color="#755CBB"/>
</linearGradient>
<linearGradient id="paint18_linear_444_84268" x1="68.27" y1="78.5243" x2="69.48" y2="68.9131" gradientUnits="userSpaceOnUse">
<stop stop-color="#5E36CC"/>
<stop offset="1" stop-color="#6C4A96"/>
</linearGradient>
<linearGradient id="paint19_linear_444_84268" x1="35.676" y1="71.9497" x2="35.676" y2="58.9421" gradientUnits="userSpaceOnUse">
<stop stop-color="#8DA4E5"/>
<stop offset="1" stop-color="#755CBB"/>
</linearGradient>
<linearGradient id="paint20_linear_444_84268" x1="18.0565" y1="63.4511" x2="22.8395" y2="25.4968" gradientUnits="userSpaceOnUse">
<stop stop-color="#BE9DEA"/>
<stop offset="1" stop-color="#9E8CEF"/>
</linearGradient>
<linearGradient id="paint21_linear_444_84268" x1="36.4584" y1="63.6591" x2="39.7484" y2="53.4244" gradientUnits="userSpaceOnUse">
<stop stop-color="#1A2EDD"/>
<stop offset="1" stop-color="#3EAEFF"/>
</linearGradient>
<linearGradient id="paint22_linear_444_84268" x1="41.2761" y1="17.1563" x2="100.412" y2="17.1563" gradientUnits="userSpaceOnUse">
<stop/>
<stop offset="1" stop-color="#6A9BFF"/>
</linearGradient>
<linearGradient id="paint23_linear_444_84268" x1="49.6436" y1="56.6406" x2="92.4967" y2="56.6406" gradientUnits="userSpaceOnUse">
<stop/>
<stop offset="1" stop-color="#6A9BFF"/>
</linearGradient>
<linearGradient id="paint24_linear_444_84268" x1="110.643" y1="36.294" x2="110.643" y2="34.9546" gradientUnits="userSpaceOnUse">
<stop stop-color="#9D68C2"/>
<stop offset="1" stop-color="#CCEDFF"/>
</linearGradient>
<linearGradient id="paint25_linear_444_84268" x1="38.427" y1="57.4962" x2="38.6741" y2="52.7845" gradientUnits="userSpaceOnUse">
<stop stop-color="#256BFF"/>
<stop offset="1" stop-color="#102552"/>
</linearGradient>
<linearGradient id="paint26_linear_444_84268" x1="35.5623" y1="49.449" x2="37.0344" y2="28.0122" gradientUnits="userSpaceOnUse">
<stop/>
<stop offset="1" stop-color="#00E3FF"/>
</linearGradient>
<linearGradient id="paint27_linear_444_84268" x1="104.827" y1="15.2317" x2="113.166" y2="15.2317" gradientUnits="userSpaceOnUse">
<stop/>
<stop offset="1" stop-color="#D4E2FF"/>
</linearGradient>
<linearGradient id="paint28_linear_444_84268" x1="24.796" y1="13.9389" x2="33.9821" y2="13.9389" gradientUnits="userSpaceOnUse">
<stop stop-color="#D4E2FF"/>
<stop offset="1"/>
</linearGradient>
<linearGradient id="paint29_linear_444_84268" x1="17.0249" y1="39.666" x2="17.2378" y2="29.0449" gradientUnits="userSpaceOnUse">
<stop stop-color="#CBC1F7"/>
<stop offset="1" stop-color="#E8DCF7"/>
</linearGradient>
<linearGradient id="paint30_linear_444_84268" x1="25.3888" y1="124.48" x2="43.0606" y2="70.1386" gradientUnits="userSpaceOnUse">
<stop stop-color="#CBC1F7"/>
<stop offset="1" stop-color="#E8DCF7"/>
</linearGradient>
<linearGradient id="paint31_linear_444_84268" x1="28.4468" y1="123.971" x2="37.4089" y2="77.1809" gradientUnits="userSpaceOnUse">
<stop stop-color="#9D68C2"/>
<stop offset="1" stop-color="#CCEDFF"/>
</linearGradient>
<linearGradient id="paint32_linear_444_84268" x1="20.9232" y1="123.411" x2="20.4731" y2="111.273" gradientUnits="userSpaceOnUse">
<stop stop-color="#BE9DEA"/>
<stop offset="1" stop-color="#9E8CEF"/>
</linearGradient>
<linearGradient id="paint33_linear_444_84268" x1="26.8925" y1="117.902" x2="4.75634" y2="138.657" gradientUnits="userSpaceOnUse">
<stop stop-color="#CBC1F7"/>
<stop offset="1" stop-color="#E8DCF7"/>
</linearGradient>
<linearGradient id="paint34_linear_444_84268" x1="20.1904" y1="121.637" x2="2.20929" y2="134.706" gradientUnits="userSpaceOnUse">
<stop stop-color="#BE9DEA"/>
<stop offset="1" stop-color="#9E8CEF"/>
</linearGradient>
<linearGradient id="paint35_linear_444_84268" x1="16.5035" y1="123.451" x2="6.0813" y2="131.026" gradientUnits="userSpaceOnUse">
<stop stop-color="#8DA4E5"/>
<stop offset="1" stop-color="#755CBB"/>
</linearGradient>
<linearGradient id="paint36_linear_444_84268" x1="15.7976" y1="117.792" x2="2.07246" y2="130.673" gradientUnits="userSpaceOnUse">
<stop stop-color="#CBC1F7"/>
<stop offset="1" stop-color="#E8DCF7"/>
</linearGradient>
<linearGradient id="paint37_linear_444_84268" x1="24.286" y1="123.675" x2="14.3143" y2="130.923" gradientUnits="userSpaceOnUse">
<stop stop-color="#BE9DEA"/>
<stop offset="1" stop-color="#9E8CEF"/>
</linearGradient>
<linearGradient id="paint38_linear_444_84268" x1="47.0258" y1="84.0876" x2="52.0601" y2="84.4142" gradientUnits="userSpaceOnUse">
<stop stop-color="#8879EA"/>
<stop offset="1" stop-color="#9E8CEF"/>
</linearGradient>
<linearGradient id="paint39_linear_444_84268" x1="115.461" y1="124.673" x2="97.6754" y2="70.4745" gradientUnits="userSpaceOnUse">
<stop stop-color="#CBC1F7"/>
<stop offset="1" stop-color="#E8DCF7"/>
</linearGradient>
<linearGradient id="paint40_linear_444_84268" x1="112.407" y1="124.173" x2="103.334" y2="77.4796" gradientUnits="userSpaceOnUse">
<stop stop-color="#9D68C2"/>
<stop offset="1" stop-color="#CCEDFF"/>
</linearGradient>
<linearGradient id="paint41_linear_444_84268" x1="115.75" y1="119.538" x2="116.253" y2="107.382" gradientUnits="userSpaceOnUse">
<stop stop-color="#BE9DEA"/>
<stop offset="1" stop-color="#9E8CEF"/>
</linearGradient>
<linearGradient id="paint42_linear_444_84268" x1="112.32" y1="114.356" x2="134.321" y2="135.165" gradientUnits="userSpaceOnUse">
<stop stop-color="#CBC1F7"/>
<stop offset="1" stop-color="#E8DCF7"/>
</linearGradient>
<linearGradient id="paint43_linear_444_84268" x1="117.092" y1="117.167" x2="136.67" y2="131.517" gradientUnits="userSpaceOnUse">
<stop stop-color="#BE9DEA"/>
<stop offset="1" stop-color="#9E8CEF"/>
</linearGradient>
<linearGradient id="paint44_linear_444_84268" x1="118.457" y1="115.304" x2="133.773" y2="126.53" gradientUnits="userSpaceOnUse">
<stop stop-color="#8DA4E5"/>
<stop offset="1" stop-color="#755CBB"/>
</linearGradient>
<linearGradient id="paint45_linear_444_84268" x1="120.651" y1="115.874" x2="137.309" y2="115.996" gradientUnits="userSpaceOnUse">
<stop stop-color="#CBC1F7"/>
<stop offset="1" stop-color="#E8DCF7"/>
</linearGradient>
<linearGradient id="paint46_linear_444_84268" x1="114.898" y1="120.127" x2="124.82" y2="127.4" gradientUnits="userSpaceOnUse">
<stop stop-color="#BE9DEA"/>
<stop offset="1" stop-color="#9E8CEF"/>
</linearGradient>
<linearGradient id="paint47_linear_444_84268" x1="89.788" y1="80.0143" x2="84.7524" y2="80.3158" gradientUnits="userSpaceOnUse">
<stop stop-color="#8879EA"/>
<stop offset="1" stop-color="#9E8CEF"/>
</linearGradient>
<linearGradient id="paint48_linear_444_84268" x1="66.4158" y1="143.581" x2="75.4619" y2="71.6618" gradientUnits="userSpaceOnUse">
<stop stop-color="#CBC1F7"/>
<stop offset="1" stop-color="#E8DCF7"/>
</linearGradient>
<linearGradient id="paint49_linear_444_84268" x1="70.0771" y1="143.704" x2="70.0771" y2="85.8347" gradientUnits="userSpaceOnUse">
<stop stop-color="#9D68C2"/>
<stop offset="1" stop-color="#CCEDFF"/>
</linearGradient>
<linearGradient id="paint50_linear_444_84268" x1="69.5217" y1="142.525" x2="69.5217" y2="96.9463" gradientUnits="userSpaceOnUse">
<stop stop-color="#BE9DEA"/>
<stop offset="1" stop-color="#9E8CEF"/>
</linearGradient>
<radialGradient id="paint51_radial_444_84268" cx="0" cy="0" r="1" gradientUnits="userSpaceOnUse" gradientTransform="translate(76.1483 136.518) rotate(-15.0176) scale(32.8196 30.0327)">
<stop stop-color="#45FFCD"/>
<stop offset="1" stop-color="#22E0FF"/>
</radialGradient>
<linearGradient id="paint52_linear_444_84268" x1="69.0795" y1="85.2215" x2="69.0795" y2="71.1197" gradientUnits="userSpaceOnUse">
<stop stop-color="#8DA4E5"/>
<stop offset="1" stop-color="#755CBB"/>
</linearGradient>
<linearGradient id="paint53_linear_444_84268" x1="51.1215" y1="109.416" x2="90.6616" y2="109.416" gradientUnits="userSpaceOnUse">
<stop/>
<stop offset="1" stop-color="#FF955C"/>
</linearGradient>
<linearGradient id="paint54_linear_444_84268" x1="70.8961" y1="141.62" x2="70.8961" y2="133.725" gradientUnits="userSpaceOnUse">
<stop stop-color="#FF4B90"/>
<stop offset="1"/>
</linearGradient>
<linearGradient id="paint55_linear_444_84268" x1="86.673" y1="32.1338" x2="87.6963" y2="26.8367" gradientUnits="userSpaceOnUse">
<stop stop-color="#45FFCD"/>
<stop offset="1" stop-color="#22E0FF"/>
</linearGradient>
<linearGradient id="paint56_linear_444_84268" x1="52.3582" y1="32.1338" x2="51.335" y2="26.8367" gradientUnits="userSpaceOnUse">
<stop stop-color="#45FFCD"/>
<stop offset="1" stop-color="#22E0FF"/>
</linearGradient>
</defs>
</svg>
