<svg width="24" height="24" viewBox="0 0 24 24" fill="none" xmlns="http://www.w3.org/2000/svg">
<path d="M22.0002 10.9699V13.03C22.0002 13.58 21.5602 14.0299 21.0002 14.0499H19.0402C17.9602 14.0499 16.9702 13.2599 16.8802 12.1799C16.8202 11.5499 17.0602 10.9599 17.4802 10.5499C17.8502 10.1699 18.3602 9.94995 18.9202 9.94995H21.0002C21.5602 9.96995 22.0002 10.4199 22.0002 10.9699Z" fill="#3EAEFF"/>
<path opacity="0.4" d="M17.48 10.55C17.06 10.96 16.82 11.55 16.88 12.18C16.97 13.26 17.96 14.05 19.04 14.05H21V15.5C21 18.5 19 20.5 16 20.5H7C4 20.5 2 18.5 2 15.5V8.5C2 5.78 3.64 3.88 6.19 3.56C6.45 3.52 6.72 3.5 7 3.5H16C16.26 3.5 16.51 3.50999 16.75 3.54999C19.33 3.84999 21 5.76 21 8.5V9.95001H18.92C18.36 9.95001 17.85 10.17 17.48 10.55Z" fill="#3EAEFF"/>
<path d="M13 9.25H7C6.86614 9.25 6.75 9.13386 6.75 9C6.75 8.86614 6.86614 8.75 7 8.75H13C13.1339 8.75 13.25 8.86614 13.25 9C13.25 9.13386 13.1339 9.25 13 9.25Z" fill="#3EAEFF" stroke="#3EAEFF"/>
</svg>
