<!DOCTYPE svg PUBLIC "-//W3C//DTD SVG 1.1//EN" "http://www.w3.org/Graphics/SVG/1.1/DTD/svg11.dtd">
<!-- Uploaded to: SVG Repo, www.svgrepo.com, Transformed by: SVG Repo Mixer Tools -->
<svg height="800px" width="800px" version="1.1" id="Layer_1" xmlns="http://www.w3.org/2000/svg" xmlns:xlink="http://www.w3.org/1999/xlink" viewBox="0 0 511.882 511.882" xml:space="preserve" fill="#000000">
<g id="SVGRepo_bgCarrier" stroke-width="0"/>
<g id="SVGRepo_tracerCarrier" stroke-linecap="round" stroke-linejoin="round"/>
<g id="SVGRepo_iconCarrier"> <polygon style="fill:#e0990b;" points="350.216,176.572 278.374,158.615 37.038,264.123 0,338.207 125.753,374.324 386.13,258.531 "/> <polygon style="fill:#d37912;" points="350.216,176.572 107.756,284.345 125.753,374.324 386.13,258.531 "/> <polygon style="fill:#c15d1a;" points="107.756,284.345 37.038,264.123 0.015,338.207 125.753,374.324 "/> <polygon style="fill:#e0990b;" points="475.969,212.682 404.127,194.717 162.791,300.232 125.753,374.324 251.504,410.41 511.882,294.625 "/> <polygon style="fill:#d37912;" points="475.969,212.682 233.508,320.431 251.504,410.41 511.882,294.625 "/> <polygon style="fill:#c15d1a;" points="233.508,320.431 162.791,300.232 125.753,374.324 251.504,410.41 "/> <polygon style="fill:#e0990b;" points="396.316,119.429 324.488,101.473 103.867,198.435 66.843,272.519 192.596,308.621 432.245,201.379 "/> <polygon style="fill:#d37912;" points="396.316,119.429 174.6,218.641 192.596,308.621 432.245,201.379 "/> <polygon style="fill:#c15d1a;" points="174.6,218.641 103.867,198.435 66.843,272.519 192.596,308.621 "/> </g>
</svg>